<?xml version="1.0" standalone="no"?>
<!DOCTYPE svg PUBLIC "-//W3C//DTD SVG 1.1//EN" "http://www.w3.org/Graphics/SVG/1.1/DTD/svg11.dtd" >
<svg>
<metadata>
Created by FontForge 20090622 at Mon Oct 14 02:39:53 2019
 By deploy user
Copyright (c) Jess Latham, 2006. All rights reserved.
</metadata>
<defs>
<font id="EyeCatchingPro" horiz-adv-x="261" >
  <font-face 
    font-family="Eye Catching Pro"
    font-weight="400"
    font-stretch="normal"
    units-per-em="1000"
    panose-1="2 0 0 0 0 0 0 0 0 0"
    ascent="750"
    descent="-250"
    x-height="295"
    cap-height="603"
    bbox="-294 -203 971 698.308"
    underline-thickness="50"
    underline-position="-50"
    unicode-range="U+000D-U+FB02"
  />
<missing-glyph horiz-adv-x="395" 
d="M181 520q-19 -3 -38 -7t-28 -7l-9 -3q2 -18 2 -41t-2 -35q-14 -89 -38 -174l-20 -67q37 9 87 9l162 9q-6 20 3 26q6 3 7.5 2t1.5 -3v-2q8 67 17 119q1 13 4.5 39l6.5 48t5 45t2 37t-3 17q-12 8 -160 -12zM68 546q7 6 16.5 3.5t17.5 -9.5l9 -6l2 4t6.5 5.5t12.5 2.5
q2 0 8.5 -4t28.5 1q30 6 97 12t89 6q16 -2 19 -10.5t-2 -27.5q-1 -10 -13.5 -88.5t-15.5 -108.5q-8 -93 -8 -98q0 -24 6 -36q7 -11 -4 -15.5t-28 -4.5q-1 0 -31 0.5t-53 0.5q-74 0 -99 -4q-73 -16 -90 -29q-8 -8 -17 10q-7 12 -3 22q1 7 19.5 67t26.5 90q9 40 14 86.5
t1 63.5q-2 6 -5.5 18t-5.5 19.5t-2 16t4 13.5zM164 453q33 27 78 23q27 -2 42 -19.5t-1 -43.5q-9 -12 -30.5 -32.5t-36 -39t-18.5 -36.5q-1 -11 -16 -12q-17 -1 -17 15q0 6 2 12q7 20 29 44t42.5 42.5t23.5 26.5q3 7 -6 10.5t-25 3.5q-39 0 -50 -11q-11 -12 -19 1
q-7 10 2 16zM158 250q-2 9 14.5 16t23.5 -1q10 -15 -9 -29q-12 -6 -29 14z" />
    <glyph glyph-name="T_h" unicode="Th" horiz-adv-x="524" 
d="M277 148q4 47 62.5 171t99.5 168q10 10 17.5 8.5t7.5 -9.5t-5 -15q-26 -25 -81 -130t-71 -167q68 81 120 118q8 6 15 0t5 -21q-7 -42 -7 -57q0 -32 18 -37q11 -3 25.5 4.5t25 16.5t24.5 23t18 17q13 11 16 1q1 -4 -2 -8l-6 -7q-6 -7 -8 -9t-8 -9t-9.5 -10.5t-10 -9.5
t-11.5 -9.5l-11.5 -8t-12 -7t-12 -4.5t-12.5 -2q-24 -1 -34 17.5t-10 46.5l4 41q-73 -59 -114 -117q-9 -13 -21.5 -11.5t-11.5 16.5zM286 518q-51 -68 -113 -172q-35 -59 -74.5 -146.5t-31.5 -102.5q5 -9 14 5q4 6 4 10q0 6 5 1q7 -5 4 -16q-16 -47 -39 -36q-14 4 -14 27
t13 61q32 99 107 225q87 146 106 155q-66 -12 -156.5 -40t-95.5 -29q-31 -5 -39 16q-4 11 3 11q39 0 82 15q47 19 137 40.5t158 23.5h29q128 0 157 -27q8 -8 8 -15t-6.5 -8.5t-14.5 2.5q-31 23 -129 23q-34 0 -54 -2q-34 -2 -62 -7q10 -4 2 -14z" />
    <glyph glyph-name="b_b" unicode="bb" horiz-adv-x="607" 
d="M65 282q-8 -13 -15 -28.5t-10 -24.5l-4 -9q29 32 84 66q58 34 96 34q18 0 31 -8q12 -6 15.5 -18.5t1.5 -21.5l-2 -10q72 21 104 53q3 3 5 4q107 214 123 234q15 17 31 13q13 -3 4 -19q-12 -24 -66 -117.5t-74 -125.5q-39 -63 -55 -110q1 3 12 19t33.5 39t43.5 36
q46 27 84 27q45 0 53 -29q4 -15 -2 -33.5t-17.5 -33.5t-24 -28t-21.5 -21l-9 -7q73 14 141 76q21 14 24 5q2 -5 -6 -14q-46 -48 -105 -72t-99 -27q-16 0 -24.5 15.5t1.5 22.5q6 4 21.5 5t29.5 7q27 12 49.5 41.5t22.5 46.5q0 9 -12 16t-30 7q-35 0 -71 -26
q-31 -22 -52.5 -49t-34.5 -51.5t-15 -27.5q-14 -15 -21.5 -8t-7.5 23q0 8 56 129q-20 -14 -51 -29t-52 -23l-20 -7q-55 -58 -87 -76q-24 -15 -29 6q-4 17 9 32q7 10 28.5 23t40.5 21l18 8q26 17 26 46q0 28 -52 10q-32 -11 -67 -36q-81 -53 -103 -111q-3 -11 -12.5 -14
t-17.5 0.5t-8 10.5q1 7 5 14.5l9.5 17t17.5 35t26 59.5q7 14 35.5 78.5t56.5 120.5t43 72q16 16 32 8q13 -5 3 -17q-6 -9 -35 -60.5l-63.5 -114.5z" />
    <glyph glyph-name="c_c" unicode="cc" horiz-adv-x="392" 
d="M301 313q14 0 18 -19q2 -12 -3 -12q-28 1 -54.5 -28t-37.5 -60q-6 -16 -6 -28q0 -24 27 -18q21 2 85 37.5t82 53.5q15 12 20 4q3 -5 -5 -15q-19 -21 -84.5 -59t-100.5 -44q-28 -4 -42 17q-20 27 11 86q-93 -65 -171 -97q-28 -10 -45 6.5t-4 51.5q12 35 44.5 73t60.5 52
q17 8 25 -10q7 -14 -2 -16q-46 -18 -73 -56q-13 -16 -22.5 -34t-11.5 -29.5t5 -14.5q16 -5 97 40t125 78q29 35 62 41z" />
    <glyph glyph-name="f_f" unicode="ff" horiz-adv-x="334" 
d="M-196 82q11 -8 50 -8q30 0 70 6q5 1 14 2.5t13 1.5q17 50 59 143q48 109 107.5 204.5t95.5 126.5q14 13 28 14t18 -11q9 -20 -49 -131q-65 -123 -183 -219q-37 -81 -52 -122q51 10 141 41q0 2 1 3q85 228 152 331q23 35 49.5 56.5t44.5 22.5t27 -14q7 -17 -1.5 -44.5
t-21 -49.5l-40.5 -70q-28 -49 -98 -130t-86 -90q-2 -4 -2 -6l4 2q128 46 202 91q28 17 26 8q0 -3 -4 -8q-35 -48 -237 -116q-45 -120 -45 -174q0 -32 17 -42q18 -9 7 -14q-12 -5 -30 9q-16 15 -16 49q0 52 42 163q-79 -27 -140 -40q-21 -61 -28 -111q-2 -23 7.5 -29t17.5 1
q6 7 11 4t1 -11q-3 -12 -16.5 -15.5t-29.5 9.5q-10 10 -10 36q0 40 24 112q-19 -4 -56 -8q-22 -3 -41 -3q-44 0 -55 15q-6 8 -4.5 13.5t6.5 5t10 -3.5zM285 448q-56 -83 -126 -264q69 78 134 168q38 52 61.5 102.5t16.5 59.5q-8 4 -19.5 1t-30 -21t-36.5 -46zM79 317
l-32 -64q70 60 119 142q30 52 52.5 99.5t12.5 44.5q-38 -4 -152 -222z" />
    <glyph glyph-name="l_l" unicode="ll" horiz-adv-x="381" 
d="M161 360q-43 -69 -122 -134q-2 -8 -2 -23q-1 -23 13.5 -30.5t37.5 -0.5q20 6 67 35t64 44q17 72 88 178q18 26 46.5 51.5t44.5 27.5q26 4 32.5 -7.5t-0.5 -27.5q-5 -21 -33 -65.5t-57 -73.5q-54 -61 -101 -93q-3 -11 -3 -19q-3 -29 8 -42t50 -5q57 13 107 58q9 10 14 6
t-1 -14q-8 -14 -46 -40t-73 -32q-39 -7 -61 8.5t-19 60.5q-48 -37 -90 -58q-32 -17 -60 -17q-29 0 -41 22q-7 13 -7 35q0 57 54 177q25 58 59 100.5t57 55.5q9 6 20 8t19.5 -3.5t8.5 -19.5q-1 -28 -17 -61.5t-57 -100.5zM100 388q-36 -69 -53 -129q37 31 99 117
q28 39 52 89.5t12 54.5q-11 6 -46 -35.5t-64 -96.5zM319 403q-48 -77 -70 -128q80 80 87 88q26 31 52 72t22 47q-5 6 -18.5 -1t-34 -28t-38.5 -50z" />
    <glyph glyph-name="m_m" unicode="mm" horiz-adv-x="772" 
d="M476 302q0 -9 -10 -34t-20 -46l-11 -20q76 84 107 94q13 4 20 -1.5t5 -15.5q-1 -6 -10 -34q-18 -63 -13 -62q11 4 68 58l56 54q7 8 17.5 9.5t15 -4t-1.5 -19.5q-21 -39 -23 -90q-2 -38 65 1q37 22 53 41q17 17 20 9q2 -6 -10 -20q-20 -24 -56 -46.5t-62 -22.5
q-20 0 -29 17q-6 17 -4 38.5t7 39.5l6 18q-97 -96 -117 -108q-7 -7 -22 -5t-15 16q0 4 19 64q8 28 2 28q-14 -3 -57 -45t-61 -65q-5 -7 -13 -8t-12 3.5t-1 13.5q1 5 6.5 15l14 26.5l14.5 28.5q-23 -23 -48.5 -40.5t-40.5 -20.5q-17 -7 -31 -7q-27 0 -30 30q-3 14 1 33.5
t9 32.5l5 12q-72 -81 -102 -104q-15 -12 -30 -12q-22 0 -20 27q0 8 1 19.5t2 20.5t1 17.5t-1 13.5t-4 6q-6 2 -48.5 -31t-87.5 -74q-17 -17 -23 0q-5 12 4 25q5 9 34 53.5t35 57.5q2 6 7.5 6.5t9.5 -4t4 -11.5q-3 -16 -48 -76q1 1 22 17.5l47 36.5t38 28q18 14 29.5 8.5
t9.5 -20.5q-5 -24 -7 -54t2 -37q8 -2 27 15t45 46t36 38q24 24 42 20q11 -3 5 -20l-6.5 -16t-7 -18l-6 -17t-4 -17t0 -13.5t5 -10t12.5 -4.5q21 -2 68 30.5t63 62.5l3 15q1 19 18 21q11 1 11 -9v-4z" />
    <glyph glyph-name="n_n" unicode="nn" horiz-adv-x="589" 
d="M612 241q15 12 14 0q-1 -10 -9 -23q-13 -21 -41.5 -41t-52.5 -20q-30 0 -38 36q-2 10 -3.5 22.5t-2 20.5t-1.5 15.5t-2 11t-4 2.5q-7 -2 -34.5 -26.5t-48.5 -51.5l-16.5 -21.5l-13 -17.5t-10 -12t-10.5 -10q-9 -8 -21.5 -2.5t-10.5 20.5q9 50 19 77l-11.5 -11t-17 -14.5
t-20 -12.5t-28.5 -14t-29 -6q-21 0 -33.5 13.5t-12.5 37.5q0 14 5 34.5t7.5 28.5t-1.5 12q-16 0 -96 -93l-23 -28l-19.5 -24t-11.5 -13q-7 -8 -22 -7.5t-18 12.5q-3 46 31 118l5 10.5t4.5 9t3.5 7t3 6t2.5 4.5t2.5 4t2.5 3t3 3t3.5 3q9 4 20 -2.5t9 -14.5q-2 -9 -17 -26
t-18 -22q-7 -7 -15.5 -28t-11 -36t2.5 -17q1 0 33 38.5t72 78t60 43.5q12 4 19.5 -5.5t4.5 -22.5l-7.5 -23t-8 -30t-2.5 -29q0 -15 12.5 -21t27.5 0q31 11 66 42.5t56 68.5q7 11 17 10.5t17 -7t5 -12.5q-1 -2 -9.5 -8.5t-13.5 -14.5q-7 -11 -17.5 -35t-16 -44t-1.5 -20
q3 1 27.5 30t55.5 61t49 40q13 4 20 -3.5t9 -25.5q4 -50 8 -73q8 -41 67 8q26 21 36 37z" />
    <glyph glyph-name="o_o" unicode="oo" horiz-adv-x="442" 
d="M297 267l-34 -21q-11 -12 -16 -35.5t-3 -38.5q5 -30 37 -12q22 12 36 25q-8 12 -7 32q2 31 20.5 61.5t42.5 37.5q19 4 29 -4.5t8 -24.5q-3 -38 -55 -95q9 0 26 5q40 11 82 42q10 6 11 -4q0 -6 -5 -11q-13 -12 -44 -29t-62 -23q-15 -3 -27 0q-23 -21 -44 -34
q-20 -10 -34 -10q-25 0 -33 38q-6 27 6 65q-25 -10 -64 -18q-6 -2 -10 -2q-39 -51 -87 -80q-24 -11 -36 -11q-25 0 -33 34q-7 31 11 74.5t43 57.5q21 8 28 -8q3 -8 -2 -9q-2 0 -4 1q-11 -3 -31 -34q-28 -44 -24 -71q6 -33 37 -15q38 22 68 60q-35 2 -35 34q0 20 19 42.5
t43 29.5q18 4 27.5 -4.5t9.5 -24.5q-2 -26 -21 -56q15 2 38 10q24 8 35 14q11 18 25 27q25 10 31 -6q2 -6 -2 -9zM351 219q32 38 36 65q1 9 -3.5 11.5t-11.5 -2.5q-12 -8 -27.5 -34.5t-14.5 -44.5q0 -8 4 -14q5 5 17 19zM170 283q1 9 -4.5 12t-12.5 -2q-40 -26 -38 -51
q1 -14 27 -14q25 36 28 55z" />
    <glyph glyph-name="p_p" unicode="pp" horiz-adv-x="415" 
d="M237 253l1 1q3 9 11 25q1 5 7.5 7t11.5 -1.5t4 -11.5q-7 -24 -12 -35q61 61 105 61q15 0 23 -13t0 -39q-8 -20 -20 -38t-20 -27l-7 -8q60 23 91 58q5 5 9.5 6t5 -3t-4.5 -13q-19 -31 -86 -62q-52 -26 -76 -26q-16 0 -17.5 11t6.5 18q7 7 26 10t20 4q6 3 19.5 18.5
t21.5 31.5q20 34 10 46q-13 8 -59 -22q-39 -26 -65 -65l-63 -128q-23 -54 -38 -98q-5 -15 -13 -9q-9 6 -7 29q3 10 39.5 90t44.5 102l10.5 24.5t8.5 21.5q-81 -66 -161 -78q-23 -4 -35 14q-6 12 4 16q3 2 5 -1q8 -8 38 3q25 9 45.5 40t29.5 58q4 13 -14 8q-22 -7 -50 -29
q-48 -37 -72 -77l-47 -93q-14 -30 -25 -65l-12 -34q-11 -17 -16 -1q-2 6 -2 16q0 20 35 92q32 58 49 108l20.5 46t14.5 35q5 11 15.5 9.5t10.5 -12.5q-6 -22 -11 -32q2 1 13 11.5t19 17t22 15.5t27 14q20 11 36 2t10 -40q-4 -19 -21 -47t-28 -35q25 8 61.5 33.5t51.5 40.5z
" />
    <glyph glyph-name="s_s" unicode="ss" horiz-adv-x="350" 
d="M274 307q-18 -18 -30 -38q2 -10 19 -40t23 -44q65 32 87 58q7 8 13.5 0.5t-4.5 -18.5q-13 -18 -89 -59q8 -27 -1 -46q-14 -28 -52.5 -39t-50.5 1q-10 9 -9 22.5t9 22.5q17 19 77 49q-10 18 -14 27q-1 3 -11.5 20t-14.5 28q-107 -123 -170 -158q-13 -8 -29 -8
q-22 0 -25 12q-2 4 3 8q5 3 28 12t33 17q3 11 -23 55t-23 61q2 21 19 39t26 17q8 0 13.5 -5.5t5.5 -10.5t-2 -7q-9 -1 -24 -19.5t-14 -26.5q1 -13 20.5 -43t24.5 -50q2 2 12 9.5t13.5 10.5l13.5 12t16 15l16.5 16.5t19.5 21l20.5 24.5t22.5 30q0 6 3 12q8 26 30 37
q12 6 18.5 -6t-0.5 -19zM200 104q4 -11 30 -5.5t38 23.5q10 15 5 34l-31 -17t-22.5 -13.5t-17.5 -13.5t-2 -8z" />
    <glyph glyph-name="t_t" unicode="tt" horiz-adv-x="293" 
d="M34 397q32 -5 52 -4q48 109 52 117q12 18 28 16q11 -1 9 -13q0 -10 -6 -26t-19 -42l-18 -36q-6 -11 -7 -13q69 6 111 14q37 78 62 103q9 9 15.5 7.5t6.5 -10.5q-7 -25 -35 -75q-4 -10 -7 -15q51 9 74 26q8 5 7 15t0 11q7 9 17 1t2 -25q-11 -26 -115 -52l-15 -27.5
l-13.5 -25l-6.5 -12.5q-8 -11 -21 -62t-13 -84q0 -25 17 -25q19 0 55 28q25 20 46 44q16 13 21 5q3 -5 -4 -14q-17 -19 -36 -37t-48.5 -34.5t-49.5 -10.5q-20 7 -20 43q0 16 11 82q-50 -65 -97 -104q-32 -27 -54 -27q-19 0 -24 19q-10 23 26 119q12 35 40 100q-60 1 -101 15
q-16 6 -7 17q6 9 19 7q30 -13 46 -15zM65 278q-24 -50 -34 -87q-8 -29 3 -32.5t35 12.5q19 12 63 62t66 81q16 47 29 77q-65 -13 -113 -16q-31 -59 -49 -97z" />
    <glyph glyph-name="w_w_w" unicode="www" horiz-adv-x="955" 
d="M324 312q-2 17 9 18t14 -12q1 -3 1 -6q-2 -34 -37.5 -83t-85.5 -76q-29 -16 -46 -16t-34 22q-4 6 -5.5 15.5t-1.5 16.5l1 7q-35 -49 -80 -72q-22 -12 -38 3.5t-10 42.5q7 33 25.5 79.5t18.5 58.5q1 17 11 18q12 0 13 -18v-4q-1 -13 -21 -61.5t-24 -67.5q-5 -24 3 -29.5
t28 8.5q21 14 56 54t37 53q3 12 21 4.5t9 -17.5q-1 -2 -4.5 -6.5t-5 -7l-4 -7t-4 -8t-3 -9t-2 -11.5t-0.5 -13q-2 -22 13.5 -24.5t43.5 16.5q39 27 72 67t30 65zM428 267l-6 -5q-7 -5 -12 -10l-13 -13t-14.5 -16.5t-13 -18.5t-11 -21.5t-6.5 -23.5q-2 -9 3 -9q2 0 24 13
q52 36 81 70q26 30 40 55q8 6 25 1q9 -3 6 -9q-1 -3 -26.5 -36t-28.5 -45q-5 -20 5 -30.5t31 -8.5q26 5 59 30.5t45 53.5q18 41 9 61q-2 4 -6 6.5t-7 3.5t-5 3.5t1 6.5q1 9 9.5 10.5t17.5 -3.5t13 -15q6 -15 6 -30q0 -39 -32 -78q-24 -30 -59 -52t-57 -20q-28 0 -40.5 14.5
t-10.5 28.5l2 15q-47 -47 -73 -58q-14 -8 -28 -8q-32 0 -24 37q4 27 27 66t37 50q7 5 15 3t14 -8t3 -10zM739 288q0 -2 -29 -64q-29 -64 -11 -64h2q19 4 52.5 48.5t43.5 67.5q7 17 26 14q12 -2 9 -11q-11 -48 -11 -73q0 -42 23 -47q30 -3 66.5 61t36.5 101q-2 21 9 20
q12 -6 15 -23q-3 -46 -42 -115t-77 -69q-31 1 -45.5 23.5t-13.5 44.5l1 22q-47 -58 -76 -81q-15 -13 -31.5 -1.5t-14.5 41.5q2 28 20 70t18 44q1 6 9 6.5t14.5 -4t5.5 -11.5z" />
    <glyph glyph-name=".notdef" horiz-adv-x="395" 
d="M181 520q-19 -3 -38 -7t-28 -7l-9 -3q2 -18 2 -41t-2 -35q-14 -89 -38 -174l-20 -67q37 9 87 9l162 9q-6 20 3 26q6 3 7.5 2t1.5 -3v-2q8 67 17 119q1 13 4.5 39l6.5 48t5 45t2 37t-3 17q-12 8 -160 -12zM68 546q7 6 16.5 3.5t17.5 -9.5l9 -6l2 4t6.5 5.5t12.5 2.5
q2 0 8.5 -4t28.5 1q30 6 97 12t89 6q16 -2 19 -10.5t-2 -27.5q-1 -10 -13.5 -88.5t-15.5 -108.5q-8 -93 -8 -98q0 -24 6 -36q7 -11 -4 -15.5t-28 -4.5q-1 0 -31 0.5t-53 0.5q-74 0 -99 -4q-73 -16 -90 -29q-8 -8 -17 10q-7 12 -3 22q1 7 19.5 67t26.5 90q9 40 14 86.5
t1 63.5q-2 6 -5.5 18t-5.5 19.5t-2 16t4 13.5zM164 453q33 27 78 23q27 -2 42 -19.5t-1 -43.5q-9 -12 -30.5 -32.5t-36 -39t-18.5 -36.5q-1 -11 -16 -12q-17 -1 -17 15q0 6 2 12q7 20 29 44t42.5 42.5t23.5 26.5q3 7 -6 10.5t-25 3.5q-39 0 -50 -11q-11 -12 -19 1
q-7 10 2 16zM158 250q-2 9 14.5 16t23.5 -1q10 -15 -9 -29q-12 -6 -29 14z" />
    <glyph glyph-name=".null" horiz-adv-x="0" 
 />
    <glyph glyph-name=".null" horiz-adv-x="0" 
 />
    <glyph glyph-name="nonmarkingreturn" horiz-adv-x="333" 
 />
    <glyph glyph-name="CR" unicode="&#xd;" horiz-adv-x="255" 
 />
    <glyph glyph-name="space" unicode=" " horiz-adv-x="214" 
 />
    <glyph glyph-name="exclam" unicode="!" horiz-adv-x="302" 
d="M285 515q-7 -4 -33 -29.5t-48 -51.5q-57 -67 -82 -127q-21 -52 -11 -67q5 -13 -5 -16q-9 -4 -14 13q-1 2 -1 3q-10 39 41 131q21 38 65 98t64 70q7 3 12 2.5t8 -4t4.5 -8t1.5 -8.5t-2 -6zM64 156q1 0 5 -1.5t5.5 -2t4 -2.5t4 -5t2.5 -7q0 -23 -23 -23q-7 -2 -15.5 4
t-8.5 16t9 15.5t17 5.5z" />
    <glyph glyph-name="quotedbl" unicode="&#x22;" horiz-adv-x="169" 
d="M80 419q-3 -8 -1 -12.5t-1 -5.5q-2 -4 -9 -2.5t-9 7.5q-3 9 4 33q13 44 20 61q4 12 14.5 9t8.5 -15q-1 -5 -6.5 -20l-12.5 -33t-8 -22zM127 422l6 -12q2 -2 -1.5 -6t-10.5 -6t-13.5 2.5t-6.5 12.5q0 14 38 90q7 8 12 -3q3 -7 -1 -15t-13.5 -33.5t-9.5 -29.5z" />
    <glyph glyph-name="numbersign" unicode="#" horiz-adv-x="339" 
d="M38 450q18 6 96 6q5 10 12 22.5t11 20.5t5 11q0 6 11 2q6 -3 6 -8l-23 -48h29q34 -2 50 -4q25 51 38 56q8 3 14.5 -2t0.5 -13q-16 -15 -32 -44q64 -11 72 -20t-4 -10q-5 0 -10 2q-8 6 -66 13q-4 -8 -10 -24q-4 -9 -11 -32q35 -3 40 -7q8 -5 -3 -12q-7 -4 -14 -2
q-8 1 -28 3q-8 -37 -4 -52q1 -7 -3 -10.5t-10 -1.5t-7 9q-7 16 3 56q-31 1 -89 -1q-4 -11 -7.5 -23t-5 -19t-0.5 -7q3 0 5.5 2.5t5.5 6.5t4 5q3 4 6 -3q2 -5 -1 -11q-14 -25 -23 -29q-8 -2 -13.5 6.5t-3.5 24.5q2 18 12 47q-30 -2 -33 -3q-5 -1 -6 5q-1 15 6 21h42
q10 25 22 49l3 6q-53 -3 -87 -11q-7 -4 -7 7q-1 14 7 16zM122 386l-1 -2q-1 -1 -1 -2q45 0 87 -3l14 42l6 15q-34 4 -43 4q-25 0 -37 -1q-14 -27 -25 -53z" />
    <glyph glyph-name="dollar" unicode="$" horiz-adv-x="242" 
d="M207 453q10 1 15 -5t-2 -12q-14 -9 -33 -38q20 -6 25 -14q2 -2 1 -5.5t-4.5 -6t-5.5 -0.5q-5 8 -24 12q-17 -31 -24 -51q48 -12 65 -31q7 -9 0.5 -22t-19.5 -22q-26 -16 -80 -32v-1q-18 -76 -8 -87q5 -7 -3 -11t-17 9q-10 14 8 83q-18 -2 -43 -8q-5 -19 -7 -28.5t-1 -9.5
q5 -2 7.5 2.5t4.5 9.5v2q3 7 4 -4q1 -3 1 -8q0 -9 -5.5 -20t-11.5 -13q-3 0 -7.5 -0.5t-9 6t-4.5 17.5q1 13 11 45q-16 -3 -27 -1q-26 1 -19 20q6 22 45 40q13 7 15 1l-2 -1l-12 -9q-12 -10 -16 -14q-8 -8 -5.5 -14.5t15.5 -6.5q6 0 10 1q24 71 37 100l3 6q-24 6 -32 13
q-9 5 -9.5 16.5t7.5 18.5q21 12 65 19q21 44 32 51q7 5 13 -1t3 -13q-7 -5 -23 -34h2q1 1 2 1h21q21 43 42 50zM130 319l-14.5 3.5t-15.5 4.5v-1q-16 -36 -37 -98q8 1 23 4.5t18 4.5q15 53 26 82zM184 305q-4 2 -17 5.5t-19 5.5q-14 -38 -23 -73q48 15 64 27q9 6 11.5 12.5
t-1.5 12.5t-15 10zM108 345q10 -3 28 -7q1 1 1 2q7 23 20 47q-9 0 -29 -4q-5 -7 -20 -38zM82 353l9 -4q1 5 5.5 15t6.5 14q-12 -4 -27 -10q-16 -8 6 -15z" />
    <glyph glyph-name="percent" unicode="%" horiz-adv-x="346" 
d="M54 366q-9 -17 -9.5 -34.5t6.5 -20.5q7 -4 24 1t34 16q31 23 41 46q4 12 4.5 23.5t-0.5 17.5l-2 6q-37 3 -52 14q-30 21 9 26q10 3 23 -1.5t21 -9.5l8 -6q41 -3 76 3q39 10 69 35q8 7 22 -5.5t1 -20.5q-3 -2 -26 -19t-49 -38.5t-44 -41.5q-43 -47 -83 -102t-59.5 -89.5
t-13.5 -34.5q9 0 20 16t15 27q0 8 8 8q6 1 6 -5q5 -9 -11.5 -36t-31.5 -33q-14 -7 -23.5 0t-5.5 20q2 15 35 70t60 89q28 37 59.5 72t48.5 51l17 17q-29 -6 -49 -6l-32 -6q9 -23 -6 -55q-11 -23 -39 -46t-62 -27q-23 -4 -31.5 11.5t-6.5 41.5q0 20 17.5 50.5t34.5 38.5
q15 7 20 -7q4 -11 -3 -13q-28 -12 -40 -43zM329 279q8 -19 -5.5 -47.5t-32.5 -47.5q-44 -42 -85 -21q-18 10 -18 36q0 22 9 38q24 44 51 50q-2 6 1 10.5t8 4.5q7 2 19.5 3t29.5 -5t23 -21zM281 202q17 20 25 43t0 31q-5 5 -12.5 6.5t-19.5 0.5t-14 -1q9 -9 0 -15
q-2 -2 -8.5 -4t-13 -6.5t-14.5 -15.5q-13 -18 -17.5 -35.5t6.5 -25.5q34 -17 68 22z" />
    <glyph glyph-name="ampersand" unicode="&#x26;" horiz-adv-x="308" 
d="M379 264q13 -6 11.5 -15t-11.5 -12q-4 0 -9.5 3.5t-14.5 2.5q-18 -3 -41 -9.5t-51.5 -16.5l-37.5 -13q11 -15 23 -26t19 -15l7 -4q0 9 4 9q1 0 1.5 -2t3 -4.5t8.5 -4.5l5 -2.5t4.5 -2t3.5 -2t1.5 -3.5t-2.5 -4q-12 -15 -50 5q-30 17 -52 47q-22 -7 -62 -24t-72.5 -27.5
t-60.5 -12.5q-55 -5 -55 26q0 32 90 103q78 66 105 96q0 85 22 121q20 30 45 30q13 0 22.5 -8t8.5 -17q-1 -13 -5 -26.5t-7 -22t-13.5 -23t-13.5 -19t-17 -22t-16 -19.5q3 -62 29 -103q2 -9 14 -21q134 47 164 38zM171 403v-20q1 3 9 11q33 39 40 71q3 16 -8 17
q-15 1 -27 -25t-14 -54zM36 160q26 6 83.5 29.5t72.5 28.5q-15 18 -22 37q-15 26 -19 74q-20 -21 -61 -57l-70 -63t-35 -39q-7 -15 14 -15q13 0 37 5z" />
    <glyph glyph-name="quotesingle" unicode="'" horiz-adv-x="95" 
d="M122 501q13 1 4 -32l-9 -29q-4 -11 -4 -12q-1 -1 2 -2t5 -2t-1 -4q-3 -2 -9 -9.5t-9 -8.5q-3 -7 -9 1q-4 4 -2 11q0 1 6.5 17t9 27.5t-1.5 24.5q-4 12 4 16.5t14 1.5z" />
    <glyph glyph-name="parenleft" unicode="(" horiz-adv-x="174" 
d="M227 560q-1 -1 -10.5 -12t-18 -19.5t-12.5 -9.5q-3 -3 -6 -3t-4 2l-2 1q-37 -40 -55 -72q-1 -1 -16.5 -28l-26.5 -46.5t-27 -50.5t-28.5 -62t-20.5 -60q-17 -62 -17 -107q0 -49 17 -49q6 0 10.5 5t6 10.5t2.5 14t2 10.5q2 5 6.5 7.5t8 -0.5t2.5 -13q0 -40 -20 -60
q-7 -2 -18 -2.5t-23 9.5t-17 30q-9 34 9 112.5t52 148.5q41 85 91.5 163.5t82.5 94.5q13 7 20.5 4t10.5 -9.5t1 -8.5z" />
    <glyph glyph-name="parenright" unicode=")" horiz-adv-x="301" 
d="M240 513q32 -10 32 -58q0 -92 -38 -194q-77 -188 -162 -255q-16 -11 -24 -2q-6 5 3 16q80 67 125 160q31 65 49 130t21 105q2 50 -24 69q-10 9 -2 20t20 9z" />
    <glyph glyph-name="asterisk" unicode="*" horiz-adv-x="378" 
d="M199 343q-1 -3 -7 -13t-9.5 -20t-3.5 -22q-1 -7 -1 -22l1 1q18 22 56.5 55.5t53.5 37.5q19 5 23 -7q2 -7 -5 -10q-18 -4 -82 -58q-6 -5 -27 -26q11 0 32 0.5t31 0.5q70 0 78 -4q5 -3 5.5 -6.5t-3.5 -6t-11 -2.5q-3 0 -63 -1.5t-86 -1.5q5 -26 18 -43q28 -41 29 -41h15
q6 -4 5 -13.5t-11 -9.5q-13 -2 -30.5 14t-30.5 44q-9 18 -13 34l-62 -63q-9 -8 -18 -19t-14 -16q-11 -11 -17 -4.5t-3 19.5q2 5 7 10.5t9 9.5l4 3l78 73q-85 -2 -110 17q-17 10 -18 27.5t12 21.5q9 2 24.5 -1.5t19.5 -10.5q7 -7 1 -7q-3 -1 -7 2q-5 4 -15 5t-11 -5
q0 -24 46 -26q12 -1 66 -1q-4 38 4 61q7 24 12.5 33.5t13.5 7.5q10 0 14.5 -5.5t-0.5 -11.5z" />
    <glyph glyph-name="plus" unicode="+" horiz-adv-x="401" 
d="M180 201q0 -5 2 -13t2 -13t-4 -9q-7 -7 -16 -2.5t-10 17.5q-6 25 25 107q-11 0 -61 -4.5t-66 -1.5q-22 4 -13 17q7 12 25 12h125q44 92 72 110q7 6 14 4t7.5 -8.5t-7.5 -15.5q-20 -20 -56 -90q25 0 75 1.5t57 1.5q15 -2 14 -14q-2 -11 -14 -9q-4 0 -61.5 -1.5t-82.5 -1.5
q-27 -51 -27 -87z" />
    <glyph glyph-name="comma" unicode="," horiz-adv-x="145" 
d="M95 147q-4 -18 -20 -35t-34 -21q-9 -2 -13.5 0.5t-2 7.5t9.5 7q27 9 42 58q4 13 13 6.5t5 -23.5z" />
    <glyph glyph-name="hyphen" unicode="-" horiz-adv-x="344" 
d="M132 217q-6 -4 -26 -4q-22 -1 -29 10q-4 9 -1 13.5t14 3.5q5 -1 11.5 -1t20.5 0.5t27 0.5q10 0 30 1t30 0.5t15 -3.5q9 -2 12 -9.5t-2 -11.5q-3 -7 -11 -10.5t-12 -1.5q-3 1 -2.5 4t3 6t2 5.5t-4.5 2.5q-10 2 -27 0.5t-34 -3.5z" />
    <glyph glyph-name="period" unicode="." horiz-adv-x="133" 
d="M52 145q-4 3 -5 8t1 9l1 3l3 3q5 15 18 15q9 -2 13 -19t-4 -19q-4 -1 -8 -2.5l-6.5 -2.5t-6 0t-6.5 5z" />
    <glyph glyph-name="slash" unicode="/" horiz-adv-x="311" 
d="M356 456q-29 -7 -84 -70q-20 -22 -71.5 -91.5l-92.5 -128.5l-42 -58q6 -9 -3 -21l-8.5 -12.5t-11.5 -14.5t-9 -5q-10 -2 -16 7t1 22q3 5 23.5 31t40.5 56q20 32 96 131t81 107q7 9 18.5 22.5l20 23.5t10.5 15q8 8 19 12t19 -3q20 -20 9 -23z" />
    <glyph glyph-name="zero" unicode="0" horiz-adv-x="262" 
d="M139 465q10 6 13 3q2 1 4.5 2.5t5.5 2.5t4 2q26 8 50 -8t31 -50q3 -17 3 -35q0 -51 -31 -132q-26 -67 -63.5 -101t-73.5 -40q-34 -7 -54 8.5t-22 49.5q-5 60 36 155q19 45 48 86.5t49 56.5zM90 325q4 -9 -5 -15t-16 -6q-9 0 -8 11q-27 -64 -34 -112q-12 -73 36 -73
q23 0 54 19q70 44 100 161q12 50 12 80q0 37 -14 52t-35 10q-24 -5 -43 -26.5t-29 -42.5q-20 -34 -18 -58z" />
    <glyph glyph-name="one" unicode="1" horiz-adv-x="217" 
d="M150 453q0 6 -10 -2.5l-23.5 -21t-19.5 -14.5q-6 -1 -11 1t-4.5 6.5t7.5 7.5q8 4 18.5 13.5t23 23.5t13.5 15q7 6 17 9.5t17.5 -3t2.5 -26.5q-8 -25 -32 -80.5t-31 -75.5q-63 -171 -59 -177q2 -1 7.5 1t8.5 0q8 -8 -2 -18.5t-23 -7.5q-19 7 -8 53q3 13 14 43.5l26 69.5
t20 54q6 18 19 50t21 53.5t8 25.5z" />
    <glyph glyph-name="two" unicode="2" horiz-adv-x="299" 
d="M147 422q-3 -5 0 -10t-3 -10q-8 -4 -16.5 -1t-8.5 11q0 12 18 31.5t51 28.5q16 4 31 4q49 0 49 -54q0 -77 -66 -170l-5 -7q28 -11 48 -38.5t23 -49.5q0 -21 -13 -26q-8 -4 -8 8q0 30 -16.5 54.5t-45.5 35.5q-70 -90 -134 -120q-22 -9 -36 0.5t-14 31.5q0 36 33 70
q43 43 105 43q17 0 36 -3q29 40 50.5 89t21.5 83q0 39 -48 28q-33 -8 -52 -29zM37 131q6 0 12 2t13.5 6.5t13.5 8.5t15 12.5l13.5 13l15 15.5l14 14.5t14.5 16t13 14.5q-61 8 -104 -30q-41 -37 -35 -62q2 -12 15 -11z" />
    <glyph glyph-name="three" unicode="3" horiz-adv-x="259" 
d="M76 440q13 12 44 26t63 14q30 0 49.5 -10t21.5 -20.5t-1 -17.5q-6 -17 -24 -33t-30 -22t-17 -8l4 -1q3 -2 6.5 -3.5t8.5 -4.5t9 -7l8.5 -8.5t7.5 -11t4 -13.5q9 -51 -32 -110q26 -18 20 -35q-3 -16 -13 -16t-3 17q4 9 -14 20q-16 -18 -26 -26q-65 -57 -119 -49
q-35 3 -35 33q0 20 19 42q29 33 94 33q20 0 39 -4q3 -1 8.5 -2.5t8.5 -2.5q38 53 28 98q-6 22 -24.5 30t-38.5 4q-23 0 -47 -12q-4 -2 -5 4q-1 16 13 22q1 1 3 1q8 5 64 21q23 8 40 24.5t17 27.5t-24.5 16t-46.5 -2q-50 -14 -63 -33q-4 -10 -14 3q-9 11 -3 16zM101 210
q-41 -8 -65 -39q-17 -22 0 -29q52 -7 110 45q7 5 21 19q-30 10 -66 4z" />
    <glyph glyph-name="four" unicode="4" horiz-adv-x="249" 
d="M214 480q5 -23 -21 -107l-26 -91q25 -3 39 -8q25 -9 20 -20q-5 -10 -19 -3q-18 10 -45 13l-15 -54q-6 -23 -9 -37t-5 -27.5t-0.5 -19.5t6.5 -6q4 0 5.5 -5t-1 -10.5t-7.5 -5.5q-3 -2 -8 0t-10.5 9.5t-5.5 16.5q0 46 29 140q-70 3 -117 -16q-7 -5 -11 8q-6 16 7 30
l12.5 8.5t22.5 20.5t39 46q86 106 86 128q0 14 15 5q14 5 19 -15zM38 274q6 1 17 2.5t39.5 4t51.5 2.5l24 78q20 82 21 96q-10 -17 -79 -106q-13 -17 -31.5 -36.5t-30.5 -30.5z" />
    <glyph glyph-name="five" unicode="5" horiz-adv-x="252" 
d="M100 453h-6l-42 -78q5 3 13 6.5t30.5 9t41.5 3.5q32 -3 55 -18.5t17 -48.5q-3 -24 -15 -56q30 -8 37 -26q10 -19 -1 -23q-7 -2 -15 7q-6 16 -30 22q-18 -35 -45 -67q-44 -50 -90 -61q-22 -4 -34 21.5t-6 57.5q10 53 104 70q26 5 56 3q21 45 14 71q-7 25 -54 25
q-53 0 -78 -21q-22 -18 -34 -10q-7 4 -2 17q4 12 19 33.5t26 39.5t8 27q-6 18 8 22t60 4q35 4 65 -3t34 -23q5 -6 2 -11.5t-10 -6t-13 4.5q-19 18 -66 18q-18 0 -30.5 -2t-15.5 -4zM143 226q17 27 18 29q-18 1 -43 -2q-91 -21 -91 -66q0 -21 9 -34t23 -6q1 1 7 4.5t10 5.5
t11 7t12.5 10.5l13 13t15 17t15.5 21.5z" />
    <glyph glyph-name="six" unicode="6" horiz-adv-x="229" 
d="M203 456q-24 0 -89 -83q-36 -46 -57.5 -98t-23.5 -90q-2 -35 8.5 -48t35.5 -3q38 15 75 61t41 88q2 22 -10.5 34t-32.5 12q-14 0 -29 -6q-24 -9 -32 -28t-7 -33q0 -1 4 -3q6 -1 1 -3q0 -8 -7 -9q-9 -1 -14 15q-7 22 13.5 52t52.5 36q36 8 63.5 -15.5t16.5 -69.5
q-11 -47 -47 -87t-69 -58q-21 -12 -40 -12q-27 0 -37 25q-8 18 -8 45q0 68 47 147q41 70 81 113t61 46q12 1 18.5 -3.5t5.5 -10.5q-2 -14 -7.5 -24t-13.5 -8q-4 -1 -2 7z" />
    <glyph glyph-name="seven" unicode="7" horiz-adv-x="240" 
d="M73 474q11 -14 60 -14q29 0 49 6l20.5 7t12 4l10.5 3q11 4 20.5 -6.5t-0.5 -22.5q-1 -1 -14 -11.5t-28.5 -26t-36.5 -39.5q-31 -37 -59.5 -88.5t-40.5 -86.5t-6 -36q3 0 6.5 5.5l5.5 8.5t7 -1q6 -7 -4 -27t-27 -22q-8 3 -10.5 21t2.5 37q16 67 77 158q18 27 38 52.5
l31 38.5l12 12q-32 -8 -69 -8q-29 0 -53 7q-26 8 -23 25q2 12 13 8q4 -1 7 -4z" />
    <glyph glyph-name="eight" unicode="8" horiz-adv-x="231" 
d="M199 432q0 -8 -9 -15q-5 -3 -5 2q0 1 1 3q9 43 -37 43q-64 0 -95 -43q-10 -14 -10 -28t16 -40q11 -13 43 -47q11 9 44 41.5t52 49.5q34 33 38 56q1 6 -3 6q-35 1 -6 12q15 8 23 -3.5t1 -32.5q-7 -25 -71 -87l-64 -59l17 -19l10 -13t8.5 -11.5t7 -11t5 -11t2 -11.5
t-1.5 -13q-14 -50 -60 -80q-21 -14 -46 -14t-45 14q-19 12 -19 36q0 18 8 35q9 21 34 51t49 51q-6 7 -19 21t-20.5 23t-11.5 16q-17 18 -17 41q0 42 44 69q52 32 99 27q22 -3 33.5 -15.5t10 -24t-5.5 -18.5zM134 227q-4 15 -33 48l-13 -12.5t-14 -14l-10 -10.5
q-52 -54 -45 -88q3 -23 35 -23q21 0 43 16q63 47 37 84z" />
    <glyph glyph-name="nine" unicode="9" horiz-adv-x="268" 
d="M207 455q-28 6 -71 -22q-31 -20 -57.5 -51.5t-38 -54t-6.5 -24.5q20 -11 89 34q22 16 62.5 56t48.5 55q6 7 15.5 5t12 -9.5t-5.5 -18.5q-50 -72 -72 -120q-25 -56 -40 -102.5t-16.5 -66t1.5 -28.5q7 -7 -4 -10q-15 -5 -21 11q-1 2 -1 4q-4 25 38 144q6 17 17.5 42.5
t20.5 42.5l9 18q-39 -35 -83 -59q-75 -40 -91 -12t42 106q23 30 64 59.5t78 32.5q24 0 22 -16q-3 -13 -13 -16z" />
    <glyph glyph-name="colon" unicode=":" horiz-adv-x="111" 
d="M75 268q-4 3 -4.5 8t0.5 8l1 4l6 7q2 7 4.5 9t10.5 2q9 -2 12 -10.5t-1 -16.5q-20 -24 -29 -11zM39 147q-4 3 -4.5 8t0.5 9l1 3l3 3q5 15 18 15q6 -1 10 -10t4 -18t-5 -10q-3 -1 -7.5 -3t-7 -3t-6 0.5t-6.5 5.5z" />
    <glyph glyph-name="semicolon" unicode=";" horiz-adv-x="133" 
d="M83 147q-4 -18 -20 -35t-34 -21q-9 -2 -13.5 0.5t-2 7.5t9.5 7q27 9 42 58q4 13 13 6.5t5 -23.5zM107 268q-4 3 -4.5 8t0.5 8l1 4l3 3q5 15 18 15q9 -2 13 -19t-4 -19l-7.5 -2.5t-7 -2.5t-6 0t-6.5 5z" />
    <glyph glyph-name="less" unicode="&#x3c;" horiz-adv-x="357" 
d="M87 215l73.5 -36.5t66.5 -32.5t38 -15q20 -5 14 -17q-7 -13 -32 -8q-30 7 -130 67q-17 8 -53 16q-38 13 -21 35q5 7 12.5 8.5t10.5 3.5q151 75 198 90q20 5 19 -10q-2 -17 -16 -23q-129 -52 -180 -78z" />
    <glyph glyph-name="equal" unicode="=" horiz-adv-x="310" 
d="M237 323l-136 -8q-36 -5 -45 7q-6 7 -2 13.5t17 4.5q8 -2 44.5 1.5t55.5 3.5q74 0 90 -7q24 -8 9 -23q-7 -16 -32 -14q-3 2 -1.5 6t4.5 7.5t2.5 6t-6.5 2.5zM237 231q-13 3 -49 3q-24 0 -39 -1q-19 -1 -54 -7t-45 -4q-12 2 -14 9.5t9 13.5q21 13 114 13q60 4 105 -10
q12 -2 13.5 -9t-10.5 -13q-8 -2 -14.5 -1t-10.5 3z" />
    <glyph glyph-name="greater" unicode="&#x3e;" horiz-adv-x="304" 
d="M210 253q-125 17 -156 38q-23 14 -22 34q2 14 16 6q51 -33 101 -43q25 -5 65.5 -11t44.5 -7q13 -2 15 -11t-12 -18q-8 -6 -29.5 -15.5t-50.5 -20.5t-41 -16l-73 -35q12 -17 -12 -29q-15 -7 -26 -3.5t-14 12.5q-4 10 15 25t49 30z" />
    <glyph glyph-name="question" unicode="?" horiz-adv-x="412" 
d="M244 482q-5 -11 -17 -12q-11 -1 -15.5 6t0.5 15t38 20.5t61 16.5q73 9 67 -29q-3 -21 -50 -71t-94 -91q-33 -28 -58 -57t-36 -46.5t-11 -24.5q1 -3 3 -1.5t7 3.5t7 1q4 -2 3 -9t-6 -11q-7 -9 -21 -7t-14 24q0 24 42.5 73.5t83.5 85.5q38 33 74.5 73.5t40.5 57.5q1 4 -4 6
t-13.5 1.5t-17.5 -2t-19 -3.5q-11 -2 -24 -7t-20 -8zM66 100q-4 3 -5 8t1 8l1 4l3 3q10 29 26 29q9 -2 13 -19t-4 -19q-5 -1 -12.5 -7.5t-12 -9t-10.5 2.5z" />
    <glyph glyph-name="at" unicode="@" horiz-adv-x="443" 
d="M278 249q9 -5 0 -11q-10 -6 -24.5 -26t-6.5 -23q34 -15 89 29q30 24 45.5 37.5t33.5 39.5t17 47q0 35 -33.5 50.5t-67.5 7.5q-51 -10 -109 -45.5t-97 -78.5q-86 -94 -103 -164q-10 -24 -1 -43.5t46 -22.5q55 -4 146 28t100 45q3 7 -4 13.5t-4 9.5q8 6 35 -1t20 -22
q-2 -4 -8 -8.5t-16 -10t-18.5 -9.5t-23 -9.5t-23 -9l-24 -9.5t-21.5 -8q-2 -1 -20.5 -6.5t-24.5 -7t-23 -6.5t-27 -6t-25 -3t-28 -2t-26 2q-58 10 -58 62q0 14 6 34q11 36 42 84.5t88.5 104t123.5 87.5q55 27 103 27q37 0 62 -17t33 -45q3 -11 4 -22t-3.5 -22.5l-7.5 -19.5
t-13 -20.5l-14 -17.5t-18 -18t-17 -15.5l-18 -15.5q-56 -48 -113 -55q-13 0 -21.5 5t-10.5 10l-2 5q-69 -46 -106 -55q-16 -4 -25 4t-9 23q0 16 8 28q18 29 61.5 67.5t90.5 51.5q21 6 34 6q18 0 26 -8.5t4 -17.5q-4 -7 -10 -13.5l-10 -10.5zM221 260q-26 -11 -64.5 -42
t-49.5 -50q-18 -34 21 -17q8 3 31 17.5l42 27.5l19 13q9 18 18 30q4 5 9 9l8 6.5t3 3.5q7 11 -8 10q-11 -1 -29 -8z" />
    <glyph glyph-name="A" unicode="A" horiz-adv-x="526" 
d="M409 482q-36 4 -38 4q-31 0 -68 -15q-70 -31 -122.5 -76t-107.5 -121q-33 -48 -55.5 -96t-26 -76t7.5 -36q57 -20 240 144q55 52 91.5 99.5t59 88t24.5 43.5q12 16 26 16q7 0 11 -5t2.5 -15t-10.5 -22q-2 -2 -12.5 -17.5l-15 -22.5l-15 -23t-16.5 -28t-13.5 -28.5
t-12.5 -32.5t-8 -32q-3 -21 -3 -37q0 -56 34 -56q23 0 60 25q70 46 105 78q20 17 20.5 7t-20.5 -31q-23 -23 -92 -70q-43 -29 -77 -29q-46 0 -50 57q-2 24 0.5 47t5.5 34l3 11l-52 -49.5t-107 -89t-122 -77.5q-31 -13 -51 -13q-36 0 -36 43q0 13 5 38q11 62 62 144.5
t125 146.5q140 122 242 108q26 -2 25 -19q0 -13 -12 -17q-3 -1 -6 0z" />
    <glyph glyph-name="B" unicode="B" horiz-adv-x="519" 
d="M10 491q52 13 192 20q36 53 46 58q16 12 19 -4q3 -13 -8 -28q-17 -21 -19 -24q24 1 63 1q40 -1 76 -7t62.5 -21t23.5 -36q-2 -15 -26.5 -34t-56.5 -35l-52.5 -25.5t-29.5 -12.5l4 -1q5 -1 11 -2t14.5 -3.5l19 -5.5t21.5 -7t24 -9.5t25 -12.5q101 -54 74 -95
q-18 -32 -73 -61t-117 -46q-110 -32 -171 -38q-23 -2 -32.5 13t11.5 30q41 30 41 15q1 -3 -9.5 -12.5t-7.5 -13.5q7 -2 28.5 -0.5t66.5 11t90 24.5q63 20 103 45.5t47 44.5q10 22 -38.5 51.5t-105.5 43.5q-88 20 -188 20q-13 0 -15 13l-8.5 -14t-8.5 -13q-30 -44 -64 -99.5
l-54 -89.5l-19 -34q1 0 2.5 -1t3 -4t0.5 -7q-2 -9 -16 -37.5t-19 -34.5q-4 -10 -17 -5q-20 8 -3 45q15 36 69.5 129.5t92.5 149.5q16 22 54 79.5l50 75.5q-123 -8 -170 -28q-16 -7 -21 8q-5 16 12 23q1 1 3 1zM131 359q6 2 9 2q35 3 108 -6q30 5 83 28t86 48q17 14 17 23
q0 17 -65 29q-39 7 -100 7q-31 0 -47 -1q-80 -113 -91 -130z" />
    <glyph glyph-name="C" unicode="C" horiz-adv-x="410" 
d="M426 232q13 15 22 8.5t-4 -20.5q-12 -13 -37 -33t-72.5 -51.5t-115 -54.5t-136.5 -26q-63 -3 -98 23t-35 73q0 130 176 264q141 101 203 101q18 0 30 -10t15 -20l2 -10q6 9 15 9q3 0 7 -5t4 -10q0 -2 -9 -11.5l-20 -21t-15 -19.5q-5 -6 -7 -13.5l-3 -11.5t-4.5 -7
t-11.5 -3q-23 0 -23 13q0 10 19 44l19 35q0 10 -25 10q-71 0 -197 -104q-141 -116 -149 -220q-3 -41 24.5 -64.5t90.5 -17.5q102 9 200.5 60.5t134.5 92.5z" />
    <glyph glyph-name="D" unicode="D" horiz-adv-x="524" 
d="M-33 493q53 26 156 39q43 6 91 6q18 0 52 -2l37 46q5 4 13 4t10.5 -4.5t-2.5 -13.5q-1 -2 -5 -6.5t-10 -12l-12 -15.5q105 -11 166 -50q70 -46 70 -122q0 -71 -64 -151q-73 -89 -182 -135.5t-166 -35.5q-34 6 -34 36q0 20 13.5 41t32.5 30q26 11 29 1q2 -5 -12 -12
q-19 -11 -30.5 -27.5t-10.5 -29.5t12 -16q46 -11 131.5 23t158.5 99q98 88 98 178q0 57 -40 90q-57 48 -190 58q-104 -132 -146 -196q-24 -34 -47.5 -76.5t-36 -70t-12.5 -32.5q0 -6 10 -1q5 3 4 -2q-4 -22 -17 -35q-23 -18 -30 14q-4 38 107 212q34 55 138 189
q-6 0 -16 0.5t-15 0.5t-15 -0.5t-14 -0.5q-66 -3 -132 -19t-87 -37q-12 -12 -23 -1q-12 13 8 29q5 5 12 8z" />
    <glyph glyph-name="E" unicode="E" horiz-adv-x="520" 
d="M540 238q14 12 20 6.5t-6 -20.5q-19 -25 -105 -69.5t-164 -72.5q-134 -51 -213 -51q-65 0 -100 22.5t-35 61.5q0 56 76 107q45 33 97 60t82 37l29 10l-25 13q-25 14 -37.5 27t-12.5 29q0 10 6 21q12 14 63.5 37t98.5 33q33 7 83 7q76 0 72 -29q0 -1 -0.5 -3.5t-0.5 -4.5
q6 6 11 9q5 0 10 -4t5 -9q0 -2 -7.5 -10l-19 -20.5t-17.5 -23.5q-6 -8 -8.5 -15.5t-2 -11t-3 -6t-12.5 -2.5q-23 0 -23 11q0 8 19.5 41.5t19.5 39.5q0 14 -49 14q-55 0 -108 -15.5t-81 -33t-28 -27.5t37 -34t48 -24q1 0 20 3t33 3q34 0 34 -17q0 -11 -6 -14t-22 -3
q-74 0 -126 -20q-89 -31 -160 -81t-69 -93q3 -60 109 -60q77 0 170 35q231 88 298 147z" />
    <glyph glyph-name="F" unicode="F" horiz-adv-x="504" 
d="M595 527q8 -3 8 -7q0 -6 -15 -6q-9 0 -63 17.5t-67 17.5q-43 0 -85 -36q-32 -24 -96 -112t-104 -163q58 19 195 19q43 0 43 -8q0 -4 -4.5 -6.5t-32.5 -6t-88 -7.5q-41 0 -128 -15q-45 -89 -45 -139q0 -24 7 -24q3 0 12.5 10.5t13.5 10.5q3 0 3 -3t-2 -11.5t-9.5 -19
t-19.5 -10.5q-13 0 -24.5 10t-11.5 30q0 44 44 141q-83 -17 -95 -19q-33 -5 -57 3.5t-24 23.5q0 14 17 14q9 0 14.5 -6.5t22.5 -6.5q14 0 137 17q114 213 220 304q40 34 94 34q22 0 51 -8q13 -4 35 -13.5t38 -17.5z" />
    <glyph glyph-name="G" unicode="G" horiz-adv-x="509" 
d="M432 439q-22 -3 -23 5q0 3 6 7q26 11 5 41q-9 10 -34 10q-52 0 -122 -36q-62 -32 -137 -93t-98 -96q-31 -43 -31 -68q0 -26 34 -31q71 -10 238 56q67 29 117 60t57 47q3 10 18 7t19 -19q3 -20 -35 -130q-17 -48 -37 -89q37 -5 68 -21.5t33 -34.5q1 -12 -6.5 -14t-14.5 5
q-1 1 -8.5 13t-19.5 18q-26 13 -61 16q-65 -126 -148 -198q-104 -91 -191 -91q-17 0 -35 7q-22 9 -22 36q0 32 28 77.5t66 80.5q53 48 130 80t157 29q22 46 37.5 93t19.5 71l4 24l-27 -16.5t-67 -37t-97 -46t-108 -35t-109 -14.5q-64 1 -64 53q0 47 43 95q82 95 186.5 159.5
t179.5 72.5q26 3 49 -18.5t23 -42.5q3 -25 -23 -32zM331 19q25 37 45 75q-107 0 -214 -69q-64 -43 -109 -114q-41 -69 -13 -81q43 -15 130 35t161 154z" />
    <glyph glyph-name="H" unicode="H" horiz-adv-x="483" 
d="M519 497q-4 3 -20.5 -15.5t-46 -67t-59.5 -113.5h1q82 16 96 14q12 0 9 -12q-3 -17 -24 -17q-22 0 -95 -15q-38 -88 -60 -165t-25 -110l-3 -34h2q1 0 3.5 -0.5t4.5 -2t4 -5t2 -8.5q0 -9 -6 -13t-13.5 -1t-13.5 13q-13 23 8.5 113.5t66.5 203.5v2q1 1 1 2q-56 -12 -98 -20
l-84 -20.5t-91 -21.5l-31 -81l17 13q3 1 0 -4q-3 -8 -12 -35t-12 -35q-3 -9 -15 0q-14 11 -9 32q5 27 37 106q-26 -4 -34 -4q-80 -3 -96 18q-4 4 -3.5 9.5t3.5 7.5t9 0q14 -10 59 -10q34 0 73 7q33 83 48 118q73 163 109 195q17 14 29 -2q7 -8 1 -14q-8 -5 -21.5 -18.5
t-35 -47t-40.5 -74.5q-35 -79 -64 -153l273 61q38 89 79.5 152.5t62.5 81.5q16 13 29.5 5.5t9.5 -23.5q-3 -13 -14 -22.5t-15 -6.5q-2 2 1.5 9t2.5 8z" />
    <glyph glyph-name="I" unicode="I" horiz-adv-x="243" 
d="M138 116q8 5 9 -3q1 -6 -3 -11q-17 -17 -50 -3q-8 3 -14 12q-34 -25 -71 -39.5t-60 -10.5q-33 4 -33 38q0 27 19 37q14 10 16 -1q1 -6 -4 -10q-12 -5 -14 -19t11 -19q38 -16 111 35q1 0 6 4l9 7q-6 21 -6 52q0 48 16 108q25 88 86 192.5t91 117.5q39 18 46 -3
q9 -25 -16.5 -110t-55.5 -153q-57 -130 -119 -198l-14 -14q1 -4 5 -6q18 -14 35 -3zM103 287q-16 -58 -16 -102q0 -21 3 -34q65 63 103 155q39 96 67.5 183.5t13.5 90.5q-20 4 -84.5 -107t-86.5 -186z" />
    <glyph glyph-name="J" unicode="J" horiz-adv-x="375" 
d="M19 178q9 -6 9 4q0 4 -3 10q-8 8 -3 11t15 -8q12 -11 7 -24.5t-19 -15.5q-16 -2 -32 14.5t-16 51.5q0 25 8 52q50 185 226 285q64 38 115 38q38 0 60 -19.5t22 -50.5q0 -89 -149 -401q57 3 116 -16q24 -7 24 -17q0 -4 -4.5 -6t-13 -1t-18.5 5q-38 14 -86 14q-19 0 -29 -1
q-2 -5 -6.5 -15t-7.5 -15q-30 -62 -66.5 -111t-70.5 -78.5t-54.5 -44t-40.5 -24.5q-22 -11 -40 -11q-33 0 -38 26q-6 34 13.5 82.5t78.5 102.5q103 94 217 108q53 107 100 228.5t49 168.5q0 50 -56 50q-34 0 -80 -21q-72 -32 -136.5 -104t-93.5 -148q-17 -47 -17 -75
q0 -31 20 -44zM211 79l10 20q-51 -10 -103 -37q-103 -54 -153 -147q-31 -57 -19 -79q2 -5 7 -6q40 -8 116 58.5t142 190.5z" />
    <glyph glyph-name="K" unicode="K" horiz-adv-x="416" 
d="M253 548q-2 -3 -6.5 -11t-8 -13t-6.5 -5q-5 0 -5 6q-45 -49 -118 -192q63 -5 159 38q127 57 143 89q13 25 26 25q17 0 4 -28q-21 -44 -162 -108q-74 -33 -157 -48q68 -142 182 -205q38 -21 77 -21q63 0 97 45q19 26 20 11q0 -9 -8 -23q-12 -20 -38 -38t-66 -18
q-33 0 -69 14q-101 39 -188 172q-7 10 -38 60q-24 -45 -44.5 -89t-28.5 -65l-9 -22q20 15 23 20t4 -2q2 -9 -4 -15q-6 -7 -14.5 -24t-11.5 -22q-1 -2 -3.5 -6.5t-4 -6.5t-3.5 -5t-4 -4t-5 -2t-7 0t-8 3q-21 11 92 232q9 18 14 29q-1 1 -1 2q-10 15 10 15q99 191 129 218
q10 13 30 4q11 -5 8 -10z" />
    <glyph glyph-name="L" unicode="L" horiz-adv-x="306" 
d="M411 427q1 -5 7.5 -11t4.5 -13q-3 -9 -11 -10t-19 10q-13 11 -13 46q0 7 1.5 36.5t0.5 46.5q-14 79 -56 49q-48 -33 -139 -281q-33 -88 -66 -141q13 -8 77.5 -43.5t89.5 -47.5q79 -38 121 -38q18 0 31 8q12 7 13 -6q1 -10 -7 -16q-14 -11 -38 -11q-36 0 -103 29
q-32 14 -196 107q-43 -62 -72 -73q-41 -14 -68 41q-9 20 -9 44q0 58 37 62q7 1 14 -0.5t13 -3t16 -6.5t16 -8.5l21 -12.5l24 -14q42 69 94 213q75 213 134 234q34 11 53.5 -14t22.5 -77q1 -19 1 -43.5t1 -37.5t4 -18zM72 128q9 10 18 24q-8 4 -19.5 11l-16.5 10t-13 7
t-12.5 5.5l-10 3.5t-10.5 2q-13 1 -19 -9t-6 -26q0 -18 6.5 -36.5t16.5 -25.5q9 -6 14.5 -7.5t13.5 4t14.5 12t23.5 25.5z" />
    <glyph glyph-name="M" unicode="M" horiz-adv-x="687" 
d="M9 534q9 -3 17.5 -3t33.5 2t40 2q40 0 61.5 -13t13.5 -47q-9 -39 -42.5 -114.5t-62.5 -131.5l-30 -56q107 138 147 199q9 12 26 37.5t25.5 37l21 27.5t22 24.5t18.5 12.5q13 6 24 -2.5t19 -39.5t7 -80q-3 -51 -40 -196q-14 -54 -8 -55q1 0 2 1q38 28 119 179
q68 126 107 153q13 9 23 1.5t6 -24.5q-30 -96 -30 -187q0 -13 2 -29q6 -81 70 -61q49 11 100 62q20 23 24 15q3 -6 -8 -23q-39 -56 -122 -78q-31 -8 -57 14.5t-29 82.5q-2 31 4 79.5t13 82.5l6 33q-45 -51 -93 -142q-36 -68 -75.5 -123.5t-61.5 -63.5q-26 -9 -26 22
q0 15 7 45q0 1 15 59.5t22.5 99t7.5 72.5q0 79 -22 75q-4 -1 -9 -5q-9 -5 -43.5 -51l-84 -116.5t-66.5 -92.5l-64 -87q-20 -23 -39 -16q-16 6 -4 25q25 41 82 160.5t69 175.5q5 21 -7.5 29t-37.5 8q-13 0 -42.5 -3t-41.5 -3q-17 0 -29 5q-19 9 -10.5 23t24.5 4q3 -2 6 -5z
" />
    <glyph glyph-name="N" unicode="N" horiz-adv-x="519" 
d="M22 458q14 19 113 38q7 1 11 2q25 5 42 5q66 0 50 -66q-7 -28 -46 -99t-75 -128l-36 -57q150 137 209 198q97 101 131 122q16 11 25 0.5t1 -37.5l-15.5 -44.5l-21 -62.5t-14.5 -51q-20 -82 -20 -111q0 -27 14 -27q28 1 74 34t71 59q16 17 25 10q6 -5 -4 -17
q-23 -29 -64.5 -59.5t-74.5 -42.5q-15 -6 -28 -6q-36 0 -36 49q0 29 16.5 95.5t33.5 119.5l17 52q-80 -63 -153 -137q-21 -22 -56 -55l-63 -59l-55.5 -51t-29.5 -27q-18 -16 -42 -16q-14 0 -17.5 7t8.5 22q31 31 54.5 62t62.5 98q76 132 86 170q6 25 -5 30q-18 9 -85 -6.5
t-81 -30.5q-15 -15 -23 -6.5t1 23.5z" />
    <glyph glyph-name="O" unicode="O" horiz-adv-x="472" 
d="M197 492q25 7 43 -7q67 67 131 80q15 3 32 3q44 0 75.5 -26.5t31.5 -86.5q0 -15 -3 -35q-10 -66 -76.5 -152.5t-152.5 -150.5t-148 -72q-11 -2 -31 -2q-98 0 -98 102q0 22 4 42q12 77 74.5 185t117.5 120zM173 359q0 51 50 108q-4 1 -16 1q-46 -6 -104 -104.5t-74 -182.5
q-3 -17 -3 -31q0 -47 28.5 -68t67.5 -13q70 13 153 76.5t142.5 145t67.5 144.5q12 86 -62 103q-54 13 -123 -31q-24 -15 -47 -41q5 -24 -1 -35q-10 -15 -11 -7q-1 3 2 10q5 11 -1 21q-60 -71 -51 -102q8 -18 -3 -22q-10 -3 -14 14q-1 6 -1 14z" />
    <glyph glyph-name="P" unicode="P" horiz-adv-x="507" 
d="M323 541q-9 -5 -20 -14q66 -2 123 -12t96.5 -32t34.5 -52q-5 -36 -54.5 -75t-108 -66t-117.5 -44q-100 -30 -184 -42q-15 -29 -25.5 -53.5t-15 -39t-2.5 -14.5q4 -1 8 1t9.5 7t8.5 7q3 5 3 0q0 -12 -12 -32q-31 -56 -55 -41q-17 16 54 162q-37 -3 -51 4q-22 9 -2 22
q11 8 22 7q19 -2 19 -4q-1 -2 -4 -5q-2 -2 6 -2t22 2l33 64q75 135 137 215q-2 0 -7 -0.5t-8 -0.5q-40 -2 -76 -7.5t-54.5 -11l-37 -11.5l-21.5 -7q-8 -4 -22.5 -14.5t-23.5 -14.5q-16 -5 -26 3.5t5 25.5q14 16 88.5 36.5t175.5 24.5h27q18 22 34 31q23 13 29 0
q4 -12 -8 -17zM273 271q83 24 169.5 73t88.5 90q1 19 -38.5 35.5t-96.5 25t-115 9.5q-36 -41 -109 -154q-36 -59 -66 -120q71 15 167 41z" />
    <glyph glyph-name="Q" unicode="Q" horiz-adv-x="463" 
d="M244 178q-10 -16 -12 -82q71 47 124 104q120 127 134 255q6 52 -27 76t-81 24q-32 0 -57 -10q-41 -17 -74 -57t-37 -65q0 -19 16 -23q8 -2 0 -10q-7 -7 -14 -5q-23 7 -23 37q0 20 12 43q21 40 65.5 74t96.5 40q41 2 75 -9.5t56 -46t15 -87.5q-12 -94 -82.5 -184
t-136.5 -139q-42 -34 -63 -47q0 -2 0.5 -5.5t0.5 -4.5q15 -102 68 -105q15 0 24.5 2t12.5 4t6 6t4 5q11 6 10 -4q0 -5 -5 -14q-7 -14 -27 -21.5t-51 1.5q-25 10 -42.5 44.5t-21.5 78.5q-63 -37 -111 -28q-39 7 -52.5 38.5t-13.5 85.5q0 6 0.5 18t0.5 18q3 66 33 161.5
t72 151.5q24 32 52.5 43t36.5 -2q11 -11 8 -17t-12 -6q-10 2 -28 -4.5t-34 -29.5q-24 -31 -52.5 -95.5t-41.5 -131.5q-12 -63 -12 -106q0 -93 52 -101q36 -7 101 33q-3 73 16 99q10 13 17 7q4 -3 2 -9z" />
    <glyph glyph-name="R" unicode="R" horiz-adv-x="443" 
d="M61 456q10 9 70 27.5t121 27.5l29 38q6 4 14 4t11 -4.5t-2 -13.5q-3 -3 -15 -20q30 2 44 2q82 -2 129.5 -21t52.5 -49q3 -20 -25.5 -42.5t-64 -38t-75.5 -27.5q-98 -31 -191 -40q35 -76 73 -126.5t103 -85.5q32 -18 66 -18q65 0 104 51q19 26 20 11q0 -9 -8 -23
q-11 -20 -42 -39.5t-71 -19.5q-30 0 -65 15q-25 11 -47 24.5t-40.5 31.5l-32 32t-29 37.5l-22.5 34.5t-21.5 37t-18.5 32q-36 -55 -65 -113.5t-29 -68.5q0 -7 9 -1q6 4 6 1v-3q-13 -30 -20 -37q-8 -6 -12.5 -8t-10 2.5t-6.5 19.5q-7 35 113 232v1q-5 8 -0.5 14t14.5 6
q36 53 106 148q-56 -11 -104.5 -28.5t-53.5 -27.5q-9 -13 -17 2.5t3 23.5zM272 493q-73 -96 -123 -169q119 10 207 41l51.5 21t37.5 17t31 18.5t13 16.5q4 16 -21 31t-69 23t-89 5q-26 -2 -38 -4z" />
    <glyph glyph-name="S" unicode="S" horiz-adv-x="433" 
d="M444 232q29 19 29 11q1 -4 -2 -11q-7 -19 -73.5 -51t-110.5 -42q-4 -51 -41 -107t-107 -96q-34 -19 -56 -19q-32 0 -32 36q0 32 28 74q30 46 81.5 78.5t103.5 49.5q0 14 -3 20q-4 31 -47.5 66t-95.5 65t-59 37q-23 20 -23 46q0 27 26 50q42 38 134.5 67.5t156.5 33.5
q26 3 55 -5.5t34 -28.5q4 -28 3 -32t-10 -23q-9 -18 -9 -29q0 -5 -5 -13t-10 -13l-5 -6q-6 -5 -10 -3t-5 3t-3.5 7t-4.5 10q-1 7 3 16.5t17 29t14 21.5q11 17 -4 29t-42 12q-67 0 -148.5 -25t-134.5 -64q-27 -19 -27 -38q0 -5 2 -10t7 -10.5t9.5 -9.5t13 -9.5l14 -9l16 -10
l15.5 -9.5q30 -19 48.5 -32t46 -35.5t41.5 -45.5t13 -45q71 15 157 70zM121 -50q122 67 143 181q-38 -11 -91.5 -46t-78.5 -75q-19 -33 -19 -52q0 -32 46 -8z" />
    <glyph glyph-name="T" unicode="T" horiz-adv-x="239" 
d="M286 518q-51 -68 -113 -172q-35 -59 -74.5 -146.5t-31.5 -102.5q5 -9 14 5q4 6 4 10q0 6 5 1q7 -5 4 -16q-16 -47 -39 -36q-14 4 -14 27t13 61q32 99 107 225q87 146 106 155q-66 -12 -156.5 -40t-95.5 -29q-31 -5 -39 16q-4 11 3 11q39 0 82 15q47 19 137 40.5t158 23.5
h29q128 0 157 -27q8 -8 8 -15t-6.5 -8.5t-14.5 2.5q-31 23 -129 23q-34 0 -54 -2q-34 -2 -62 -7q10 -4 2 -14z" />
    <glyph glyph-name="U" unicode="U" horiz-adv-x="539" 
d="M219 523q-3 -65 -95 -238q-9 -18 -38 -66t-42 -75.5t-8 -36.5q26 -44 221 116q74 61 119.5 110t57.5 74q22 43 43 68q18 21 37 21q18 0 6 -22q-5 -9 -15 -20q-64 -78 -107 -188q-14 -37 -14 -68q0 -24 9 -38t28 -13q55 2 140 94q14 15 21 7q6 -6 -3 -17
q-69 -88 -137 -103q-33 -7 -55.5 7.5t-24.5 44.5q-2 22 3.5 52.5t11.5 49.5l6 20q-109 -95 -174 -145q-39 -31 -84.5 -55.5t-69.5 -25.5q-43 -2 -43 34q0 17 8 33l46.5 86.5t67.5 130.5q61 132 51 170q-5 19 10 22q15 4 22 -13q2 -7 2 -16z" />
    <glyph glyph-name="V" unicode="V" horiz-adv-x="415" 
d="M467 531q-14 30 -2 32q12 3 22 -20q2 -3 3 -6q5 -15 5 -30q0 -50 -38 -119.5t-101 -127.5q-76 -71 -168 -133t-154 -80q-15 -5 -31 -5q-40 0 -40 43q0 14 5 34q3 14 32.5 79.5l55 126t22.5 68.5q-4 13 -56 0q16 -6 -14 -15q-11 -3 -36 -8q-14 -4 -13.5 8.5t13.5 17.5
q5 2 12.5 4.5l27.5 9t36.5 9.5t32.5 2.5t22 -7.5q3 -3 4 -8t0.5 -11.5t-2 -13t-4.5 -16t-6 -17t-8 -19l-8.5 -19l-9.5 -20.5l-9 -20l-23.5 -51t-20.5 -45.5l-13.5 -33.5t-10.5 -32t-3 -25q0 -30 58 -5q49 21 132 73t158 125q75 72 111 147t19 108z" />
    <glyph glyph-name="W" unicode="W" horiz-adv-x="591" 
d="M645 533q-10 21 1 28q10 6 19 -10q6 -13 4 -34q-8 -61 -43.5 -134.5t-84 -136t-110 -104t-115.5 -40.5q-48 0 -66 29t-18 66l3 31q-90 -108 -140 -131q-19 -9 -34 -9q-26 0 -40.5 24t-14.5 65q0 71 37.5 160t65.5 125q16 21 31 10q13 -9 3 -21q-22 -24 -50.5 -72
t-46.5 -103q-20 -63 -20 -100q0 -50 29 -60q21 -7 56.5 19.5t67.5 65.5q29 31 63 84.5t47 85.5q7 19 22 12q16 -9 7 -28q-41 -79 -48 -111q-8 -36 -8 -56q0 -70 75 -59q57 9 127 72.5t123 156t58 175.5z" />
    <glyph glyph-name="X" unicode="X" horiz-adv-x="387" 
d="M393 483q19 2 28.5 -7t4.5 -24q-15 -27 -29 -35q-11 -7 -19 1q-3 3 2 5q24 18 20 26q-4 3 -14.5 3.5t-38.5 -11.5t-63 -35q-59 -38 -142 -118l22 -44.5t17.5 -27.5t27.5 -29q25 -22 55 -22q15 0 31 4q25 6 60.5 29.5t57.5 44.5q4 4 9.5 4.5t6.5 -3.5t-5 -13
q-15 -20 -55 -46t-62 -33q-26 -7 -43 -7q-45 0 -79 36q-30 32 -60 91q-68 -65 -113 -121q-95 -125 -73 -160q7 -11 -1 -14q-11 -3 -19 16q-3 9 -4 23q-1 44 53 121t144 163q-25 55 -42.5 111t-17.5 76q0 12 8 15.5t16 -1t8 -11.5q0 -24 13 -76t32 -98q91 83 159 122.5
t105 44.5z" />
    <glyph glyph-name="Y" unicode="Y" horiz-adv-x="500" 
d="M196 486q-16 21 -4 28q12 6 24 -8t1 -36q-11 -21 -58.5 -85.5t-71.5 -103.5q-15 -23 -27 -49t-16 -42.5t1 -19.5q27 -9 186 79q81 45 172.5 111t103.5 93q11 26 31 13q19 -12 14 -36l-2 -8l-26.5 -55l-59 -117.5l-65.5 -120.5q64 -3 113 -26t67 -58q7 -13 7 -30
q0 -20 -9.5 -34t-24.5 -14t-14 11q2 13 21 19q19 13 -2 44.5t-58 45.5q-51 20 -112 20q-34 -56 -57 -87q-82 -114 -163 -170t-148 -43q-38 8 -38 48q0 43 45.5 100.5t132.5 108.5q105 62 213 65q28 48 64.5 120l59.5 120l23 48q-166 -137 -280 -189l-57.5 -30.5l-56.5 -29.5
t-43 -18.5t-37 -8.5q-21 0 -29 17q-6 14 7 48t31 62zM268 86q-174 -66 -244 -180q-16 -23 -16 -46q0 -34 37 -34q19 0 49 12q69 30 138.5 104t125.5 164q-45 -3 -90 -20z" />
    <glyph glyph-name="Z" unicode="Z" horiz-adv-x="402" 
d="M203 487q16 1 74.5 15.5t86.5 18.5q50 5 59 5q23 0 33.5 -7.5t2.5 -26.5q-4 -13 -28 -36t-62 -52l-73.5 -54.5l-77 -54t-57.5 -40.5q-73 -54 -124 -102.5t-36 -64.5q14 -18 56 -18q40 0 108 14q150 29 187 66q30 30 24 8q-1 -5 -4 -11q-14 -39 -135.5 -72t-188.5 -30
q-78 3 -78 46q0 14 11 36q19 36 114.5 110t160.5 116q41 27 104 78t67 61q1 4 -3.5 5.5t-13 1.5t-18.5 -0.5t-22.5 -2.5l-22.5 -3.5t-21 -3.5q-19 -4 -51 -13.5t-54.5 -14t-39.5 -0.5q-16 4 -18 15.5t9 15.5q5 3 15 -1t16 -4z" />
    <glyph glyph-name="bracketleft" unicode="[" horiz-adv-x="226" 
d="M83 556q-49 -156 -70 -238q-65 -262 -52 -269q13 -10 139 23q20 5 28 -9q5 -8 -4 -11q-16 -6 -89.5 -23.5t-96.5 -17.5q-13 0 -18.5 6t-3.5 14.5t5.5 16t7.5 12.5q3 7 51 225t54 239q3 10 6 23t4.5 20.5t4 14.5t5.5 10t6 2q12 -6 60 -6q40 0 59 6q37 7 34 -6
q-1 -5 -11 -14t-40 -13.5t-54 -4.5h-25z" />
    <glyph glyph-name="backslash" unicode="\" horiz-adv-x="186" 
d="M41 580q23 -92 41 -200q9 -47 42 -142t51 -119q28 -35 40 -35q3 0 5.5 -2.5t1.5 -5.5t-7 -4q-11 -3 -30 8t-36 39q-23 41 -51 124t-39 137q-25 126 -47 162q-9 16 -9.5 34t9.5 21q10 4 18 -1.5t11 -15.5z" />
    <glyph glyph-name="bracketright" unicode="]" horiz-adv-x="301" 
d="M240 527q-13 4 -29.5 3t-56.5 -4t-63 -3q-28 0 -43 4q-19 4 -20 23q0 17 11 16q4 -1 9 -4q18 -15 68 -15q20 0 39 3q16 1 49.5 2.5t46.5 3.5q19 5 28 -3t1 -32q-57 -142 -87 -241q-21 -76 -30.5 -143t-10.5 -93.5t-5 -27.5q-14 -6 -74 -17t-71 -6q-9 6 -10.5 15t3.5 14.5
t15 2.5q17 -5 62 3t49 20q5 31 26.5 130t34.5 140q66 200 58 209z" />
    <glyph glyph-name="asciicircum" unicode="^" horiz-adv-x="329" 
d="M52 242q23 13 87 93q21 26 38 50.5l28 41l13 19.5q3 6 11 7t15 -4.5t6 -17.5q-5 -37 -5 -59t3 -60q6 -69 36 -93q10 -7 1 -16q-11 -10 -24 1q-12 10 -23.5 40.5t-15.5 66.5q-3 31 -3 59l1 34q-24 -38 -62 -88q-26 -38 -57 -71t-43 -35q-11 -2 -20 5t-7 18q1 8 4 9t7 -1
t10 1z" />
    <glyph glyph-name="underscore" unicode="_" horiz-adv-x="255" 
d="M-9 -20l1 12h276l-1 -12h-276z" />
    <glyph glyph-name="grave" unicode="`" horiz-adv-x="139" 
d="M113 478q5 -4 4 -9.5t-7.5 -10.5t-13.5 -4q-11 2 -32 30.5t-29 48.5q-6 11 3 14q10 2 12 -9q0 -7 26.5 -31t36.5 -29z" />
    <glyph glyph-name="a" unicode="a" 
d="M278 232q6 9 18 8q11 0 1 -13q-14 -18 -49.5 -43.5t-54.5 -29.5q-22 -6 -31 -6q-26 0 -27 29q0 11 3 24.5t6 21.5l3 8q-60 -71 -118 -91q-24 -8 -36 1.5t-6 36.5q8 34 47 78.5t65 48.5q28 5 31 -13q1 -9 -5 -10q-8 0 -43.5 -24.5t-54.5 -49.5q-34 -48 -12 -47q7 0 18 4
q33 15 75.5 57.5t63.5 69.5q9 13 19.5 5.5t4.5 -20.5q-31 -70 -35 -88q-3 -17 3.5 -20t21.5 4q48 18 92 59z" />
    <glyph glyph-name="b" unicode="b" horiz-adv-x="240" 
d="M254 236q21 18 27 10q2 -4 -4 -13q-18 -22 -67.5 -46.5t-73.5 -29.5q-10 -4 -18 -9.5t-16.5 -12t-14.5 -10.5q-14 -8 -26 5t-9 24q1 6 11.5 9t23 3.5t14.5 1.5q23 8 52 37.5t33 57.5q1 12 -5 17.5t-19 5.5q-28 0 -61 -25q-48 -38 -102 -137q-6 -14 -13 0q-4 8 -4 18
q0 5 3 14.5t9.5 25l13.5 31.5l19.5 43.5l22.5 51.5q108 248 109 249q3 8 9 13.5t10.5 0t3.5 -25.5q-4 -38 -41 -117.5t-70 -136.5q-12 -21 -19.5 -37t-9.5 -22l-2 -6q25 35 61 60q26 19 61 19q26 0 39.5 -13.5t4.5 -40.5q-6 -17 -17.5 -33.5t-20.5 -23.5l-9 -8q52 15 95 50z
" />
    <glyph glyph-name="c" unicode="c" horiz-adv-x="196" 
d="M111 315q12 1 17 -16q4 -13 -2 -13q-30 0 -60.5 -30.5t-39.5 -57.5q-6 -18 -6 -28q0 -20 30 -17q33 4 86 31.5t80 52.5q10 9 17.5 4.5t-3.5 -17.5q-16 -24 -77.5 -56t-108.5 -38q-30 -4 -43 14q-7 2 -4 31.5t24 64.5q42 70 90 75z" />
    <glyph glyph-name="d" unicode="d" horiz-adv-x="262" 
d="M133 285q-38 -13 -80 -48q-19 -16 -31.5 -36.5t-14 -33.5t3.5 -18q4 -2 17.5 4.5t34 21.5t38.5 34l48 50q11 58 33 117q12 40 40.5 97.5t49.5 77.5q14 13 27 13q11 0 18 -9.5t7 -21.5q0 -24 -19 -74.5t-51 -93.5q-36 -52 -85 -112q-10 -52 -3 -81q6 -23 61 15
q35 24 51 46q12 17 18 7q4 -8 -7 -22q-13 -17 -43.5 -41.5t-58.5 -32.5q-43 -13 -46 49q-1 11 2 30q-18 -20 -26 -27l-30 -28.5t-24.5 -19t-31.5 -17.5q-49 -20 -45 31q5 48 58 103q44 46 80 46q12 -1 16 -7t1 -11.5t-8 -7.5zM252 400q20 36 34 70t16 50t-2 19
q-19 0 -54 -66t-54 -130q-3 -8 -14 -51q42 51 74 108z" />
    <glyph glyph-name="e" unicode="e" horiz-adv-x="181" 
d="M205 242q9 10 12 -1q1 -5 -1 -10q-14 -22 -62 -53.5t-84 -39.5q-26 -8 -47 3.5t-18 39.5q9 65 62 112q36 32 68 21q20 -8 6 -40t-42 -49q-16 -9 -34.5 -12t-25.5 3q-1 -3 -3.5 -7t-5 -10.5t-3.5 -17.5q0 -5 1 -8.5t2 -6t3.5 -4t4 -2.5t5 -1.5t5 -0.5h6h5.5q27 2 78 32.5
t68 51.5zM73 268q-8 -7 -20 -26q11 -16 37 3q16 11 27 26t6 23q-3 6 -19.5 -3.5t-30.5 -22.5z" />
    <glyph glyph-name="f" unicode="f" horiz-adv-x="135" 
d="M-90 87q12 -9 60 15q29 88 123 286q41 86 85.5 150t61.5 75q10 5 18.5 0.5t9.5 -17.5q3 -24 -19 -82.5t-67 -134.5q-34 -53 -76.5 -97t-61.5 -54l-39 -90q-6 -14 -8 -21q104 63 154 118q16 16 22 8q3 -4 -2 -11q-13 -21 -49.5 -53t-84.5 -61q-22 -14 -50 -30
q-36 -105 -26 -145q7 -32 29 -23q8 3 11 -8q2 -9 -8 -15q-14 -6 -26 -0.5t-20 27.5t-6 54q3 41 20 97q-48 -23 -60 -11q-13 13 -3 23q5 5 12 0zM163 390q21 35 42 80.5t32 76.5t8 34q-2 4 -19.5 -18.5t-44.5 -65.5t-52 -90q-42 -79 -69 -142q63 60 103 125z" />
    <glyph glyph-name="g" unicode="g" horiz-adv-x="260" 
d="M279 235q6 5 14.5 7t10 -2.5t-10.5 -18.5q-7 -7 -15.5 -13.5t-21.5 -15l-23 -15l-30.5 -19l-33.5 -20.5q-15 -49 -24 -69q-18 -45 -46 -83t-54.5 -58.5t-45.5 -31.5t-28 -13q-16 -6 -29 3.5t-8 36.5q10 53 85 128q68 61 132 101q5 20 8.5 41t4.5 32l1 11q-8 -9 -22 -22.5
t-51.5 -39t-68.5 -32.5q-27 -6 -37.5 7t-2.5 36t48.5 64.5t81.5 54.5q25 9 34 -14q7 -17 -4 -22q-2 -1 -4 -1q-37 0 -80 -28.5t-56 -56.5q-11 -24 7 -22q14 1 56 22q13 7 31.5 22t33 28.5l29.5 28.5l17 17q6 8 16 -2q9 -10 1 -21q-3 -5 -4.5 -16l-4 -30.5t-8.5 -40.5
q93 56 102 67zM113 46q24 51 30 76q-41 -25 -99 -76q-19 -16 -36.5 -35.5t-28.5 -37t-18.5 -33.5t-7.5 -25.5t4 -13.5q17 -7 73.5 42.5t82.5 102.5z" />
    <glyph glyph-name="h" unicode="h" horiz-adv-x="243" 
d="M-9 148q-2 21 63.5 180.5t82.5 174.5q16 13 22.5 1.5t0.5 -27.5q-11 -28 -49.5 -112.5t-59.5 -117.5q-6 -10 -13.5 -28.5t-11.5 -32.5l-5 -14q68 82 120 119q8 6 14 0t4 -21q-6 -36 -6 -55q0 -37 19 -42q11 -3 26 4.5t26 17.5t25 24t18 17q6 6 11 4.5t5 -6t-2 -8.5
q-63 -73 -103 -75q-24 -1 -34 18t-10 48l4 42q-73 -58 -114 -116q-9 -13 -20.5 -11.5t-12.5 16.5z" />
    <glyph glyph-name="i" unicode="i" horiz-adv-x="138" 
d="M157 235q8 7 12.5 5t4 -8.5t-4.5 -10.5q-67 -67 -136 -77q-38 -8 -38 29q0 21 22.5 61.5t32.5 40.5q8 0 13 -4.5t-2 -16.5q-20 -27 -36 -58t1 -30q24 1 54.5 17t40.5 23.5t36 28.5zM90 310q-13 4 -5 26q0 7 8.5 11.5t17.5 0.5q18 -15 6 -29q-13 -13 -27 -9z" />
    <glyph glyph-name="j" unicode="j" horiz-adv-x="65" 
d="M83 351q9 -4 11 -13t-5 -13q-10 -15 -26 -12q-15 4 -6 29q0 5 9 9t17 0zM-28 73q37 -4 61.5 -28t19.5 -45q-3 -20 -17 -16q-11 2 -8 11q0 2 1 3q7 14 -10.5 30.5t-52.5 20.5q-34 -75 -69 -128q-37 -52 -79 -86t-78 -38q-34 0 -34 41q0 16 8 42t22.5 52.5t52 64.5t87.5 62
q40 17 70 17q77 171 79 173q8 12 23 1q6 -3 3 -6q-17 -25 -44 -91q-28 -62 -35 -80zM-58 49q-29 6 -81 -23q-48 -27 -86.5 -79t-43.5 -81q-7 -32 0 -41t41 6q94 50 170 218z" />
    <glyph glyph-name="k" unicode="k" horiz-adv-x="228" 
d="M203 315q-19 0 -60.5 -28t-60.5 -49q-27 -31 -36 -44t-7 -23q0 -7 7 -10t27 0.5t51 16.5q70 28 122 62q12 11 17 3q5 -6 -8 -18q-25 -23 -100 -56.5t-108 -26.5q-39 8 -30 41q-52 -99 -66 -116q-14 -18 -24 -11q-6 4 0 11q31 45 83 148q119 238 128 277q5 20 20 14
q16 -9 12 -34q-4 -19 -36 -79t-62 -110l-29 -50l-5 -10q2 2 6 8t7 9q22 28 62 56.5t63 33.5q18 2 28 -11q4 -4 -1 -4z" />
    <glyph glyph-name="l" unicode="l" horiz-adv-x="176" 
d="M164 536q29 32 48 32q28 0 25 -55q-3 -39 -27.5 -82t-75.5 -106q-54 -68 -93 -102q-4 -24 -4 -31q0 -34 35 -28q33 6 71 30.5t52 40.5q13 13 19 5q4 -7 -7 -20q-18 -21 -64 -49t-82 -32q-45 -5 -45 56q0 23 5 46q14 79 54.5 160t88.5 135zM216 513q5 30 -9 28
q-12 -2 -31 -25q-39 -50 -77 -124.5t-53 -135.5q49 52 83 98q47 64 64.5 95.5t22.5 63.5z" />
    <glyph glyph-name="m" unicode="m" horiz-adv-x="384" 
d="M58 254q-6 -6 -16 -25t-16 -35l-7 -16q1 1 28 31.5t53 57t36 30.5q9 3 17.5 -0.5t6.5 -14.5q-2 -8 -3 -23t-2 -33t-2 -25q52 50 118 86q11 6 19 -2t3 -18q-10 -22 -10 -42q0 -15 6 -28q13 -27 46 -14q22 8 36 19.5t23.5 22.5t13.5 14q11 9 11 -1q0 -6 -6 -16
q-33 -48 -79 -59q-26 -6 -43.5 5.5t-24.5 31.5q-3 10 -4 24t0 24l1 9q-13 -7 -39 -26.5t-44 -34.5t-20 -17q-25 -15 -28 5q-2 14 -1 33t2.5 35.5t2.5 16.5q-2 0 -54 -52q-9 -9 -25.5 -29l-29 -34t-17.5 -15q-9 -5 -15.5 1t-4.5 16q12 53 44 106q8 14 21 6q11 -6 3 -14z" />
    <glyph glyph-name="n" unicode="n" horiz-adv-x="280" 
d="M66 269l-53 -89q97 98 140 125q10 6 18.5 5.5t12.5 -6t1 -12.5q-7 -16 -7 -45q0 -44 21 -58q19 -12 48 2.5t51 36.5q20 20 22 9q1 -7 -7 -16q-61 -69 -112 -57q-26 6 -37 35t-9 55l2 26q-89 -65 -141 -134q-6 -6 -15.5 -6t-15.5 7t-2 15q6 18 29.5 62t32.5 55q6 7 19 1
q8 -4 2 -11z" />
    <glyph glyph-name="o" unicode="o" horiz-adv-x="225" 
d="M85 272q-19 -5 -37 -29q-10 -15 -16.5 -38t-4.5 -37q5 -30 37 -12q14 7 37 29q-8 12 -7 32q2 31 20.5 61.5t42.5 37.5q19 4 29.5 -4.5t8.5 -24.5q-3 -39 -54 -95q9 0 26 5q34 9 79 43q5 3 9 0.5t4 -7.5t-4 -10q-12 -11 -42.5 -27t-61.5 -22q-21 -4 -29 -2
q-23 -21 -46 -35q-20 -10 -35 -10q-26 0 -34 38q-5 29 10.5 69t38.5 53q26 10 31 -6q2 -6 -2 -9zM135 219q32 38 36 65q1 9 -3.5 11.5t-11.5 -2.5q-12 -8 -27.5 -34.5t-14.5 -44.5q0 -8 4 -14q5 5 17 19z" />
    <glyph glyph-name="p" unicode="p" horiz-adv-x="204" 
d="M25 182l-59 -124q-23 -54 -38 -98q-5 -15 -13 -9q-9 6 -7 29q3 10 39.5 90t44.5 102q1 2 59 128q1 5 7.5 7t11.5 -1.5t4 -11.5l-21 -42q6 7 16.5 16.5t38.5 26.5t50 18q17 1 24 -11.5t-1 -40.5q-7 -23 -20.5 -44.5t-22.5 -32.5l-10 -10q65 28 96 63q10 11 15 4
q2 -5 -4 -16q-20 -31 -92 -65q-52 -26 -76 -26q-16 0 -17.5 11t6.5 18q6 7 26 10t20 4q7 3 23.5 23t25.5 42q15 36 8 45q-13 8 -59 -22q-36 -24 -75 -83z" />
    <glyph glyph-name="q" unicode="q" horiz-adv-x="258" 
d="M138 277q-18 9 -58 -21q-30 -24 -62 -64.5t-18 -48.5q11 -5 58 30t67 55q3 3 12.5 15.5l16.5 21t15.5 16.5t13.5 10q13 6 24 -8q9 -10 -4 -18q-42 -21 -91 -123q36 -2 82 26q39 24 82 64q14 13 21 5q3 -3 -1 -9q-29 -49 -142 -105q23 -8 23 -72q-3 -60 -34.5 -125
t-81.5 -87q-29 -12 -43.5 1.5t-14.5 41.5t24.5 101.5t48.5 132.5l25 59q-49 -37 -87 -52q-18 -10 -31.5 1.5t-8.5 27.5q5 29 37.5 74t68.5 72q27 16 45.5 15t23.5 -9q4 -7 3 -13.5t-5.5 -11t-8.5 -2.5zM32 -147q23 -4 51 24t50 75q24 50 24 112q0 22 -6 33q-14 23 -50 20
q-39 -89 -64.5 -174.5t-4.5 -89.5z" />
    <glyph glyph-name="r" unicode="r" horiz-adv-x="226" 
d="M112 270q40 22 71 22q22 0 29 -10q9 -12 -2 -23q-8 -7 -15 0q-5 5 -17.5 6.5t-37.5 -7.5t-54 -30q-20 -14 -35 -27t-24 -23t-14 -16.5t-9 -13.5l-4 -8q-2 -3 -9.5 -5.5t-13.5 1t-3 14.5q2 8 9.5 22.5t18.5 33.5t14 25q6 10 13.5 26.5t13 27.5t8.5 14q2 2 8 2t10.5 -5.5
t0.5 -13.5l-41 -75q31 37 83 63z" />
    <glyph glyph-name="s" unicode="s" horiz-adv-x="175" 
d="M88 293q-10 -2 -28 -19.5t-17 -24.5q2 -14 28.5 -42t27.5 -37q51 22 98 70q14 14 17 2q0 -6 -3 -10q-10 -18 -45 -44.5t-64 -40.5q-7 -22 -43 -32q-28 -6 -46 9q-9 8 -1 14q6 3 30 10t34 15q3 11 -28.5 42.5t-28.5 48.5q2 21 22.5 42t29.5 20q8 0 13.5 -5.5t5.5 -10.5
t-2 -7z" />
    <glyph glyph-name="t" unicode="t" horiz-adv-x="141" 
d="M16 405q32 -16 75 -12l11.5 24l9 20t4.5 10q8 18 12 30.5t6 16.5q4 3 10 2t11 -8.5t4 -17.5q-1 -15 -34 -76q14 -1 31.5 5.5t26.5 14.5q10 9 20 3q8 -5 -3 -17q-10 -11 -39 -20t-48 -8l-21 -39l-15 -28l-8 -14q-4 -7 -8.5 -16.5l-11.5 -24.5t-12 -29.5t-8 -27.5t-0.5 -22
t10.5 -10q20 -4 57.5 21t63.5 53q13 13 20 9q6 -4 -5 -17q-20 -26 -61.5 -57.5t-74.5 -31.5q-32 0 -32 34q0 24 18 76q8 27 55 124q-46 0 -72 15q-9 6 -10 12t4.5 7.5t13.5 -1.5z" />
    <glyph glyph-name="u" unicode="u" horiz-adv-x="254" 
d="M271 233q13 14 20 9q5 -5 -2 -16q-15 -22 -47 -47t-57 -31q-19 -7 -27 -3.5t-14 20.5q-3 10 -1.5 22.5t5.5 23.5l4 11q-45 -50 -97 -74q-14 -8 -28.5 -2t-20.5 25q-5 22 12 62t31 56q14 14 28 6q10 -6 1 -17q-25 -26 -44 -75q-15 -39 3 -36q2 0 4 1q28 10 76 53t48 58
q0 9 13 8q16 -1 15 -15q0 -2 -1 -4q-1 -5 -5.5 -17.5l-9.5 -26t-8.5 -26.5t-3 -21.5t7.5 -8.5q18 0 46.5 19t51.5 46z" />
    <glyph glyph-name="v" unicode="v" horiz-adv-x="186" 
d="M65 258q-3 -5 -8.5 -6t-9 -6.5t-6.5 -21.5q-7 -48 4 -59q3 -3 6 -1q13 8 70.5 69t63.5 73q9 19 19 7q8 -12 2 -20q-17 -23 -72.5 -81t-76.5 -71q-24 -15 -37 23q-4 15 -4 38q0 48 21 80q14 19 25 2q7 -12 3 -26z" />
    <glyph glyph-name="w" unicode="w" horiz-adv-x="322" 
d="M89 277l-7 -5q-6 -5 -11 -10l-13 -13t-14.5 -16.5t-13 -18.5t-11 -21.5t-6.5 -23.5q-2 -9 3 -9q2 0 24 13q52 36 81 70q26 30 40 55q8 6 25 1q9 -3 6 -9q-1 -3 -26.5 -36t-28.5 -45q-5 -20 5 -30.5t31 -8.5q26 5 59 30.5t45 53.5q18 41 9 61q-2 4 -6 6.5t-7 3.5t-5 3.5
t1 6.5q1 9 9.5 10.5t17.5 -3.5t13 -15q6 -15 6 -30q0 -39 -32 -78q-24 -30 -59 -52t-57 -20q-28 0 -40.5 14.5t-10.5 28.5l2 15q-47 -47 -73 -58q-14 -8 -28 -8q-32 0 -24 37q4 27 27 66t37 50q7 5 15 3t14 -8t3 -10z" />
    <glyph glyph-name="x" unicode="x" horiz-adv-x="196" 
d="M194 326q5 -1 7 -4t0.5 -6.5t-7.5 -4.5q-8 -1 -38 -24.5t-53 -49.5q-6 -5 -16 -17.5t-13 -15.5q25 -32 72 -54q26 -11 26 -2q0 12 6 5q9 -11 0 -20q-2 -2 -5 -3q-18 -7 -51 10t-58 44q-52 -67 -60 -81q-3 -4 -8.5 -4.5t-9 4.5t-1.5 12q0 1 63 89q-34 42 -30 70
q4 25 25 19q14 -5 12 -13q-21 -21 8 -59q19 26 25 32q25 32 60 53.5t46 19.5z" />
    <glyph glyph-name="y" unicode="y" horiz-adv-x="249" 
d="M82 286q-59 -67 -59 -106q0 -29 29 -16t75 63.5t53 75.5q5 11 17 1q11 -8 9 -21q-9 -53 -32 -125l37.5 29.5l35 28t22.5 22.5q13 14 19 6q4 -5 -3 -15q-10 -14 -123 -108l-5.5 -14t-4.5 -13q-66 -168 -153 -227q-26 -17 -49 -17q-17 0 -25 10t-3 29q6 33 46 82t90 93
l87 69q12 33 19 62.5t8 42.5l2 13q-69 -90 -113 -110q-27 -12 -46.5 1.5t-14.5 38.5q4 50 49 110q7 12 26 10q18 -2 7 -15zM81 54q-42 -34 -82.5 -81t-52.5 -72q-12 -23 1 -29t35 8q25 11 65 63.5t65 109.5q3 6 18 41q-32 -27 -49 -40z" />
    <glyph glyph-name="z" unicode="z" horiz-adv-x="158" 
d="M179 231q13 15 20 8q4 -4 -4 -14l-92 -112q-20 -116 -46 -163q-29 -62 -64.5 -99t-57.5 -37q-27 3 -27 33q0 17 9 40q26 75 108 171l23.5 29.5t33.5 39.5l4 55q-81 -41 -93 -53q-6 -6 -17 1t-9 18q36 65 55 95q35 66 52 79q9 8 18 2t2 -17q-4 -9 -15.5 -26l-29 -41.5
l-27.5 -39.5l-27 -42q88 48 94 51q7 2 16.5 -3t9.5 -15q0 -3 -1 -7.5t-2.5 -13t-2.5 -17.5q34 42 70 78zM60 16q14 52 16 68q-57 -73 -69 -87q-67 -90 -75 -128q-6 -24 0 -28.5t17 2.5q64 38 111 173z" />
    <glyph glyph-name="braceleft" unicode="{" horiz-adv-x="365" 
d="M410 576q-56 14 -96 17q-25 2 -52.5 -11.5t-40.5 -34.5q-10 -23 -31 -130t-21 -108q-14 -39 -35 -58l-55 -38q67 -20 87 -49q7 -6 4.5 -24t-13.5 -37q-14 -23 -36 -72t-22 -64q-2 -22 21 -35.5t60 -11.5q38 1 74 12.5t53 22.5t16 15q-1 3 -11 3.5t-10 4.5q0 15 10.5 17.5
t18.5 -5.5q10 -5 10 -19.5t-13 -26.5q-17 -15 -62.5 -31t-85.5 -16q-52 -2 -80.5 15t-26.5 49q0 20 19.5 65.5t37.5 83t16 40.5q-5 9 -25.5 20.5t-38.5 13.5q-37 4 -52 0q-10 0 -16.5 14t7.5 21q4 2 23.5 7t43.5 19q48 31 63 110q3 12 11 59.5t13.5 72.5t18 56t27.5 44
q30 27 83 27q63 0 106 -24q19 -11 0 -14z" />
    <glyph glyph-name="bar" unicode="|" horiz-adv-x="217" 
d="M227 477q-15 -26 -85 -181q-13 -28 -36 -86.5l-40 -103.5l-17 -44l12 11q3 1 5 -1q0 -3 0.5 -4.5t-1.5 -5t-3 -5t-4.5 -6t-5.5 -7.5q-4 -6 -8 -27.5t-12 -32.5q-20 -30 -28 -11q-8 11 24 88q4 8 38.5 99t46.5 117q42 104 101 222q19 35 17 49q1 8 13 17.5t24 11.5
q6 0 9 -5t2.5 -12.5t-4.5 -14.5q-4 -8 -11.5 -18.5l-18.5 -25z" />
    <glyph glyph-name="braceright" unicode="}" horiz-adv-x="348" 
d="M84 595q0 -2 -11 -1q-3 0 -1 -2q16 -16 55 -20q27 -3 61 -3q64 0 102 8q17 5 30.5 -6.5t-1.5 -30.5q-57 -64 -93 -134q-23 -41 -37.5 -75t-4.5 -34q4 -1 22.5 2.5t30.5 3.5q15 0 30 -6q16 -8 21 -18t2.5 -17.5t-7.5 -12.5q-3 -4 -58 -21q-23 -7 -23 -11q0 -2 3 -3
q20 -8 36 -38t23 -71q5 -43 5 -59q0 -96 -60 -165q-38 -47 -114 -47q-25 0 -34 7q-18 16 -6 41.5t26 30.5q7 4 10 0t-4 -8q-1 -1 -4 -5t-5 -7.5l-5 -8.5t-4.5 -9t-2.5 -8t1 -6t6 -3q18 -6 58 3t61 32q57 62 52 174q-1 43 -13.5 77t-27.5 40q-23 9 -38 9q-5 0 -6.5 6t2 15.5
t10.5 17.5q6 6 21 11t30 8.5t26 8t10 10.5q-5 11 -37.5 7t-40.5 -10q-10 -2 -19 13t-5 34q8 41 87 165q42 62 43 65q3 7 -2 7q-3 0 -19 -1.5t-39.5 -2.5t-43.5 -1q-42 0 -70 6q-46 12 -68 24.5t-18 32.5q2 9 14 11t21 -5q4 -6 8.5 -9.5t7.5 -4.5t5 -2.5t2 -3.5z" />
    <glyph glyph-name="asciitilde" unicode="~" horiz-adv-x="455" 
d="M29 167q0 16 30.5 57t53.5 53q16 11 31 11q20 0 27 -22q10 -28 26.5 -46t37.5 -18q38 -3 74 15t54 37.5t20 28.5q2 10 1.5 12.5t-3.5 8.5t-4 11q0 11 13 9q14 -1 16 -18q9 -46 -58 -93q-60 -38 -104 -38q-33 0 -58 21q-17 14 -28.5 40t-18.5 27q-8 2 -24.5 -13t-24.5 -28
q-8 -7 -18.5 -28.5t-13.5 -32.5q0 -4 -7 -6.5t-14.5 0.5t-7.5 12z" />
    <glyph glyph-name="uni00A0" unicode="&#xa0;" horiz-adv-x="255" 
 />
    <glyph glyph-name="exclamdown" unicode="&#xa1;" horiz-adv-x="276" 
d="M-19 -24q7 4 33 29.5t48 51.5q57 67 82 127q21 52 11 67q-5 13 5 17q9 3 14 -14q1 -2 1 -3q10 -39 -41 -131q-21 -38 -65 -98t-64 -70q-7 -3 -12 -2.5t-8 4t-4.5 8t-1.5 8.5t2 6zM202 335q-1 0 -5 1.5t-5.5 2t-4 2.5t-4 5t-2.5 7q0 23 23 23q7 2 15.5 -4t8.5 -16
t-9 -15.5t-17 -5.5z" />
    <glyph glyph-name="cent" unicode="&#xa2;" horiz-adv-x="325" 
d="M255 473q-27 -27 -53 -82q16 3 26 -1q19 -7 25 -24t-2 -31q-6 -9 -13.5 -10t-12 4t-3.5 10q0 8 3 13t3 10q0 9 -38 2q0 -1 -1 -3.5t-1 -3.5q-19 -44 -53 -137q43 0 81.5 13t51.5 25q14 12 26.5 5.5t-6.5 -18.5q-25 -17 -69.5 -31t-91.5 -15q-17 -47 -25 -71.5t-6 -24.5h3
q8 0 10.5 -1t1 -9t-9.5 -25q-18 -25 -27 -11q-11 9 23 110q3 10 11 32q-21 1 -48 8q-30 9 -30 36q0 24 16 46q9 15 52 48t81 47q47 100 65 110q11 6 14.5 -2.5t-3.5 -18.5zM60 233q27 -10 55 -12q20 60 51 136q-13 -5 -21 -11q-64 -41 -82 -68q-27 -36 -3 -45z" />
    <glyph glyph-name="sterling" unicode="&#xa3;" horiz-adv-x="343" 
d="M18 258q48 12 90 14l12 50q18 65 40.5 123t33.5 69q12 9 23 6t14 -14q3 -10 4 -45t1 -66t2 -33q3 -4 10 -4q3 -1 -1 -3q-6 -7 -17.5 -9.5t-14.5 6.5q-1 11 0 24.5t2.5 40.5t1.5 43q0 37 -9 37q-11 0 -38 -76.5t-45 -140.5q0 -1 -0.5 -4t-1.5 -4h106q12 0 14 -11
q-2 -8 -9 -9h-67h-49q-8 -32 -24 -88q3 -1 9 -1q17 -3 65.5 -15.5t65.5 -13.5q11 -1 29 -1q13 0 26.5 1t15.5 1q4 1 3.5 7t5.5 7q13 0 19.5 -9.5t-14.5 -18.5q-14 -4 -37 -4q-69 0 -136 18q-37 9 -58 9q-3 -11 -7.5 -24t-7 -21.5t-3.5 -12.5q-7 -24 -18 -23q-5 1 -8 9
q-2 7 -7.5 29t-9.5 30q-14 26 5 30q39 3 45 3l23 88q-53 -4 -73 -13q-10 -5 -16 6q-5 10 5 13zM58 104q1 0 3 4.5t5 13.5l7 21q-7 -1 -20 -5q-4 -6 -1.5 -20t6.5 -14z" />
    <glyph glyph-name="currency" unicode="&#xa4;" horiz-adv-x="330" 
d="M26 327l39 2l16 25q26 38 70.5 70.5t72.5 42.5q18 9 37 9q29 0 38 -18q6 -9 11 -24t7 -24.5t2 -11.5q-5 -14 -17 -14q-11 3 -8 16q2 8 -3 24t-13 24q-33 19 -130 -54q-37 -28 -58 -64q45 4 116 14q22 3 26 -6q2 -4 -7 -7q-35 -12 -126 -19l-21 -3q-14 -29 -14 -58
q8 1 40 2t57.5 2.5t36.5 4.5q17 3 21 -7q3 -6 -9 -11q-12 -4 -144 -15q11 -70 91 -77q53 -6 132 38q10 7 15 1q2 -3 -4 -9q-12 -19 -52.5 -36t-82.5 -17q-59 0 -91 37q-25 30 -30 62h-6q-12 0 -28.5 -2t-25.5 -1.5t-13 4.5q-6 6 -0.5 15t15.5 13q4 1 10.5 4.5t9.5 4.5t7 0
q3 -3 2.5 -5.5t-2.5 -4.5l-2 -2q14 -2 31 -2q2 30 13 56q-35 -4 -62 0q-13 2 -14.5 12.5t11.5 12.5q7 1 19.5 -1.5t16.5 -2.5z" />
    <glyph glyph-name="yen" unicode="&#xa5;" horiz-adv-x="396" 
d="M356 461q-2 -2 -10.5 -9.5l-16.5 -15t-21.5 -23.5t-26.5 -35q-32 -47 -57 -95q40 12 52 16q41 14 57 9q10 -1 5 -9q-3 -5 -13 -7q-8 0 -113 -36q-1 -2 -7 -17q-11 -25 -21 -62q89 20 97 23q12 5 17 -4q5 -8 -4 -9q-53 -16 -108 -28q-6 -2 -7 -2q-12 -45 -6 -54q1 -5 7 -5
l5 1q7 -10 -4 -18q-8 -5 -18 2t-10 23q-2 19 3 46q-47 -10 -72 -10q-10 0 -16 4.5t-5.5 8.5t0.5 6q4 5 28 5q36 0 70 6q12 42 26 76q-48 -13 -90 -11q-35 3 -40 18q-2 6 3 10.5t10 2.5q7 -4 31 -7t41 0q7 1 38 9q-20 32 -32 85q-4 23 -8 49.5t-6 46.5t-3 23q-1 4 -3.5 9.5
t-2.5 7t4 4.5q26 4 29 -18q1 -7 3 -42.5t5 -57.5q10 -78 34 -99q26 56 65.5 115t67.5 78q15 11 24 0q4 -6 -1 -10z" />
    <glyph glyph-name="brokenbar" unicode="&#xa6;" horiz-adv-x="209" 
d="M138 295q1 1 2.5 3t5 4.5t6.5 1.5q1 0 -4 -14.5t-12 -30.5t-10 -19q-2 -1 -9 -1.5t-12.5 6.5t-1.5 19q8 25 49 139t49 130q9 19 21 11q15 -7 6 -28q-1 -2 -6.5 -11.5l-10.5 -19t-13.5 -29t-16.5 -42.5zM77 168q8 14 22.5 7.5t12.5 -16.5q-18 -41 -51.5 -150t-35.5 -125
q-3 -17 -15 -20q-7 -2 -9 8q-2 12 32 142t44 154z" />
    <glyph glyph-name="section" unicode="&#xa7;" horiz-adv-x="406" 
d="M290 515q20 -29 20 -54q-1 -2 -1.5 -6.5t-1 -5.5t-2 -3.5t-4 -1.5t-7.5 1q-6 1 -8.5 5.5t-2.5 8.5t0.5 11t0.5 8t-1 4.5t-1.5 5t-2 5t-2.5 4t-4 2.5t-6.5 1t-8.5 0q-36 0 -105 -55q-43 -34 -80 -79t-41 -70q-5 -23 52 -23q28 0 50 4q12 3 51.5 16t79.5 22t71 9
q17 0 27.5 -1.5t18 -8t3.5 -18.5q-9 -33 -44 -81q28 -18 18 -53q-6 -23 -21.5 -50t-29 -45.5l-41.5 -54.5q-85 -108 -130 -112q-22 -2 -30.5 23.5t4.5 36.5q14 13 20 3q3 -6 -3 -12q-5 -6 -1.5 -16.5t10.5 -11.5q13 -1 44 25.5t63 67.5q88 113 92 155q3 19 -11 25t-44 5
q-38 -1 -99.5 -27.5t-100.5 -50.5q-14 -8 -28 -8q-22 0 -33 15t0 41q20 43 61 74q-8 0 -12 1q-59 6 -59 47q0 21 16 51q26 48 85.5 98t114.5 75q50 19 64 -2zM252 289q-16 -4 -61 -18.5t-69 -19.5q-50 -41 -75 -80q-3 -6 -5 -10.5t-2.5 -8.5t1 -6.5t4.5 -3.5t8 -0.5t12 3
t16 7.5q12 5 50 24.5t73.5 33t68.5 17.5q23 2 43 -3q38 57 41 65q1 6 -6.5 9t-21.5 3q-34 0 -77 -12z" />
    <glyph glyph-name="dieresis" unicode="&#xa8;" horiz-adv-x="153" 
d="M73 531q-4 -9 -15 -13t-17 1q-9 3 -13.5 13.5t7.5 15.5q10 4 25 -3.5t13 -13.5zM84 510q-2 9 5.5 13t20.5 2q12 -5 15.5 -16.5t-6.5 -18.5q-9 -4 -21 2.5t-14 17.5z" />
    <glyph glyph-name="copyright" unicode="&#xa9;" horiz-adv-x="426" 
d="M204 474q33 12 68 12q79 0 115 -47q17 -25 17 -64q0 -41 -19.5 -87.5t-52.5 -83.5q-90 -93 -180 -93q-26 0 -55 9q-72 24 -72 106q0 36 14 68q15 33 60 88q0 25 29 49.5t76 42.5zM210 450q6 -11 -15 -23q-35 -24 -73 -61h1q12 -11 3 -15q-7 -2 -16 4q-22 -22 -34 -38
q-30 -45 -30 -92q0 -50 39 -73q28 -15 64 -15q98 0 171 87q67 78 67 151q0 37 -18 55q-33 33 -92 33q-37 0 -71 -12zM285 352q0 12 -37 0q-25 -7 -54.5 -24t-41.5 -34q-13 -16 -13 -28q0 -20 42 -21q48 -4 78 17q19 15 22 6q2 -4 -2 -12q-8 -14 -41 -27t-72 -8
q-51 10 -51 40q0 17 17 39q22 28 65.5 52t73.5 29q28 2 39 -12.5t-4 -36.5q-8 -12 -19 -13t-13 7q-2 6 4.5 15t6.5 11z" />
    <glyph glyph-name="ordfeminine" unicode="&#xaa;" horiz-adv-x="215" 
d="M122 289q-37 -9 -61 -34q-25 -25 -27 -46q0 -11 10 -7q14 5 36 30.5t40 50.5t19 26q4 4 9.5 3.5t10 -6.5t3.5 -14q-15 -45 -15 -61q0 -23 15 -31q5 -2 10.5 -2.5t10 0.5t10.5 4t10 5.5t10 7.5l8.5 7t8.5 8l5 5q14 12 16 5q1 -4 -6 -16q-10 -18 -40 -36.5t-56 -4.5
q-24 13 -24 46l5 31q-42 -60 -78 -77q-19 -8 -30 -1t-9 25q4 36 33 69t61 32q16 -1 19 -12q1 -5 -4 -7zM18 148q7 8 31.5 19.5t48.5 11.5q28 0 47 -7t20 -7q8 0 5 -11q-2 -8 -9 -7q-3 0 -15.5 4.5t-24 6.5t-29.5 0q-31 -5 -65 -26q-8 -7 -11 5q-3 8 2 11z" />
    <glyph glyph-name="guillemotleft" unicode="&#xab;" horiz-adv-x="272" 
d="M149 430q-7 -4 -32.5 -39.5l-47.5 -68.5l-22 -34q41 -131 58 -142q17 -10 15 -24q-2 -13 -21 -5q-7 2 -17 17.5t-20 37.5t-18 42l-15 38.5t-8 20.5q-11 22 12 50q4 5 26.5 35.5l43 57t28.5 31.5q13 10 21 -2q6 -9 -3 -15zM250 415q-4 -10 -14 -20q-10 -12 -28.5 -39.5
t-31.5 -49.5l-13 -21q44 -113 55 -134q14 -15 4 -28q-6 -8 -15 -1q-23 18 -73 143q-10 22 12 49q4 5 39.5 57t44.5 59q11 8 19 2t1 -17z" />
    <glyph glyph-name="logicalnot" unicode="&#xac;" horiz-adv-x="390" 
d="M46 316q10 -15 52 -12q22 3 112.5 28t110.5 25q27 0 35 -8t0 -21q-61 -102 -49 -125q14 -32 -6 -32q-11 3 -19.5 22.5t-0.5 41.5q4 12 13.5 35t14.5 37.5t4 17.5q-1 4 -42 -6l-92 -23t-64 -15q-34 -6 -62 3t-30 26q-4 17 6 18t17 -12z" />
    <glyph glyph-name="registered" unicode="&#xae;" horiz-adv-x="465" 
d="M218 464q33 13 70 13q79 0 112 -48q16 -26 16 -64q0 -90 -71 -168q-88 -96 -181 -96q-27 0 -54 9q-71 23 -71 107q0 35 13 67q14 32 59 86q0 26 29.5 52t77.5 42zM223 444q3 -12 -17 -27q-26 -18 -71 -60h1q25 -18 41 -18q8 0 8 -3q-2 -7 -17 -8q-23 0 -45 17
q-24 -26 -33 -38q-32 -47 -32 -92q0 -48 41 -73q27 -15 62 -15q97 0 173 87q67 78 67 151q0 37 -18 55q-32 33 -94 33q-32 0 -66 -9zM194 388q9 3 54 3q43 0 57 -5q21 -4 21 -21q0 -13 -16 -35q-38 -48 -92 -55q-7 -8 -2.5 -19.5t19.5 -17.5q9 -6 20 -7t18.5 0.5t17 5.5
t11.5 4q9 1 9 -8q0 -11 -12 -16q-37 -10 -55 -10q-22 0 -35 10q-13 11 -16.5 25.5t-0.5 23.5l2 9q-2 -3 -5.5 -7.5t-10.5 -15l-11.5 -17t-3.5 -6.5q2 0 5.5 2t6 2t2.5 -4q0 -7 -15 -28t-28 -21q-12 2 1 32.5t36 62.5l61 87q-23 -3 -35 -3q-7 -1 -9.5 6.5t-0.5 15t7 7.5z
M255 362l-40 -58q14 -5 35 3q23 9 40 26.5t9 25.5q-5 4 -16 4.5t-19 -0.5z" />
    <glyph glyph-name="macron" unicode="&#xaf;" horiz-adv-x="277" 
d="M211 524q-33 3 -66 3q-22 0 -31 -1q-19 -2 -33.5 -6.5t-17 -6t-15.5 0.5t-15.5 10t9.5 15q23 14 81 17q60 4 118 -13q13 -2 15 -10t-11 -15q-9 -2 -16.5 -0.5t-12.5 4.5z" />
    <glyph glyph-name="degree" unicode="&#xb0;" horiz-adv-x="174" 
d="M40 400q6 11 19.5 20.5t26.5 10.5q35 2 55 -22q13 -18 13 -32t-12 -29q-21 -27 -67 -27q-21 0 -32 7q-13 8 -13 29q0 19 8 33q-2 5 2 10zM60 384q-12 -12 -12 -27q0 -19 35 -18q16 1 33 12t19 23q2 11 -8.5 23.5t-23.5 14.5q-22 4 -41 -15q6 -5 -2 -13z" />
    <glyph glyph-name="plusminus" unicode="&#xb1;" horiz-adv-x="401" 
d="M180 226q0 -5 2 -13t2 -13t-4 -9q-7 -7 -16 -2.5t-10 17.5q-6 25 25 107q-11 0 -61 -4.5t-66 -1.5q-22 4 -13 17q7 12 25 12h125q44 92 72 110q7 6 14 4t7.5 -8.5t-7.5 -15.5q-20 -20 -56 -90q25 0 75 1.5t57 1.5q15 -2 14 -14q-2 -11 -14 -9q-4 0 -61.5 -1.5t-82.5 -1.5
q-27 -51 -27 -87zM314 131q-14 3 -54 3q-26 0 -43 -1q-18 -1 -62.5 -6.5t-80 -9.5t-44.5 -2q-13 2 -15.5 10t9.5 15q8 5 41.5 8.5t93 7.5t69.5 5q64 4 116 -11q13 -2 15 -10t-11 -15q-9 -2 -16.5 -0.5t-12.5 3.5z" />
    <glyph glyph-name="twosuperior" unicode="&#xb2;" horiz-adv-x="227" 
d="M78 396q9 12 34.5 23.5t46.5 6.5q25 -7 25 -32q0 -23 -16 -48q-4 -8 -14 -24q23 -9 36 -23.5t13 -24.5q0 -9 -8 -11t-12 5q-11 26 -43 35q-42 -51 -80 -61q-17 -4 -27.5 4t-10.5 23q0 18 14 32q34 34 88 28q2 -1 7 -1q21 25 28 59q6 19 -17 19q-28 1 -47 -22q-1 -2 -2 -3
q-5 -10 -14 -2q-7 7 -1 17zM81 306q-34 -13 -39 -31q-3 -7 4 -10q7 -2 29 13t38 30q-12 1 -32 -2z" />
    <glyph glyph-name="threesuperior" unicode="&#xb3;" horiz-adv-x="212" 
d="M75 414q20 20 58 20q23 0 37.5 -12t8.5 -31q-3 -7 -11 -15t-14 -12l-7 -5q21 -12 21 -29q2 -27 -26.5 -45t-63.5 -28q-50 -15 -55 3q0 8 10.5 15.5t18.5 7.5q3 0 3 -5q0 -2 0.5 -2.5t2 -1.5t5.5 0q23 3 48.5 14.5t30.5 28.5q8 17 -5.5 22.5t-21.5 1.5q-1 0 -6.5 -2
t-13.5 -4t-14 -2q-12 -2 -16 6t10 17q6 4 15 5.5t14 0.5h6q31 13 43 31q7 8 1.5 14.5t-18.5 6.5q-18 1 -27.5 -4.5t-14 -12t-8.5 -6.5q-9 0 -13 8t2 15z" />
    <glyph glyph-name="acute" unicode="&#xb4;" horiz-adv-x="158" 
d="M26 528q14 -4 48.5 7.5t49.5 20.5q8 7 12 3.5t-1 -12.5q-6 -10 -42 -28t-56 -20q-16 -2 -21 14q-5 14 6 15h4z" />
    <glyph glyph-name="mu" unicode="&#xb5;" horiz-adv-x="244" 
d="M-232 -31q26 16 87.5 100.5t111.5 162.5q92 149 116 194q3 6 6.5 16t7 16.5t8.5 9.5q9 7 21 0t5 -26q0 -1 -37.5 -62.5t-58 -105.5t-6.5 -47q11 -2 24 6t28 27.5t25 34t27 41.5l21 33l26.5 42.5l20.5 34t11 16.5t13.5 5.5t16.5 -7t2 -18.5q-13 -28 -33 -102t-11 -84
q14 -7 23 3q11 9 12 -3q0 -5 -3 -11q-27 -27 -49 -9q-14 11 -14 41q0 18 5 42t10 39l5 14q-79 -133 -122 -162q-21 -16 -39 -16q-12 0 -20.5 8t-11.5 16l-2 9l-92 -139q-30 -44 -50.5 -71.5t-47 -52.5t-42.5 -24q-24 0 -26 17q-2 10 6 12q3 0 6.5 -1t8 -1t11.5 2z" />
    <glyph glyph-name="paragraph" unicode="&#xb6;" horiz-adv-x="478" 
d="M327 479q-7 -4 -45.5 -53t-67.5 -90q-14 -17 -22 -29l-1 -2q-5 -7 -6 -8q-68 -93 -116 -168.5t-44 -84.5q7 -6 27 14q4 5 7 -4q3 -11 -7 -19q-20 -20 -31 -21q-6 0 -13 3q-6 5 -7 17.5t9.5 38.5t29.5 58l108 159q-31 3 -50 6q-50 6 -73 30t-20 48q5 29 36.5 62.5
t79.5 59.5q43 24 103 38.5t116 14.5q40 0 68 -7q28 -6 44 -22t14 -36q0 -6 -6.5 -9.5t-13 -1t-6.5 13.5q2 11 -13.5 20.5t-38.5 14.5q-17 4 -43 4q-56 0 -140 -24q-102 -27 -159 -99q-15 -21 -15 -35q0 -18 16 -28.5t36 -14.5q59 -13 85 -6l43 58q82 103 93 110q13 8 24 -1
q6 -4 -1 -7zM455 441q-10 -7 -54 -53.5t-77 -85.5q-32 -36 -89.5 -115.5t-64.5 -93.5q-4 -9 -1.5 -13.5t-3.5 -12.5q-22 -43 -32 -52q-5 -10 -15 3q-8 12 -3 26q8 19 49.5 84t72.5 104l119 141.5t84 84.5q14 4 19 -2.5t-4 -14.5z" />
    <glyph glyph-name="periodcentered" unicode="&#xb7;" horiz-adv-x="123" 
d="M32 208q-4 3 -5 8t1 8l1 4l3 3q5 15 18 15q9 -2 13 -19t-4 -19l-7.5 -2.5t-7 -2.5t-6 0t-6.5 5z" />
    <glyph glyph-name="cedilla" unicode="&#xb8;" horiz-adv-x="123" 
d="M78 141q0 7 6.5 10t13 -0.5t6.5 -12.5q0 -25 -25 -63t-51 -42q-17 0 -18 15q0 13 8 14q4 1 8 -3q5 -7 18 8t23.5 37.5t10.5 36.5z" />
    <glyph glyph-name="onesuperior" unicode="&#xb9;" horiz-adv-x="160" 
d="M91 427q12 14 24 7q9 -6 3 -16q-2 -4 -9.5 -11t-14.5 -18.5t-14 -31.5q-6 -20 -9.5 -39t-4.5 -28v-8q11 9 11 -3q0 -10 -6 -18.5t-12 -4.5q-13 3 -13 30q0 19 5 39q16 75 40 102z" />
    <glyph glyph-name="ordmasculine" unicode="&#xba;" horiz-adv-x="208" 
d="M224 237q16 16 21 6q3 -5 -4 -16q-12 -18 -44 -33t-60 -15q-17 0 -30 7q-28 -21 -79 -40q-17 -6 -26.5 2.5t-7.5 26.5q5 25 29.5 68t57.5 66q9 4 16 -3.5t7 -15.5q10 20 20 30q12 16 32 16q24 0 23 -36q-1 -57 -52 -98q19 -5 48.5 6t48.5 29zM102 285h-1q-39 -32 -52 -49
q-12 -14 -20 -29.5t-9.5 -25.5t3.5 -12q6 0 27.5 9.5t41.5 22.5q-17 28 10 84zM-14 101q11 9 43.5 21.5t64.5 15.5q52 5 81 -9q10 -5 1 -14q-6 -6 -15 -5l-17 4q-17 5 -23.5 5t-31.5 -2q-44 -7 -94 -32q-11 -4 -14.5 2.5t5.5 13.5zM121 225q18 17 28.5 38t10 33t-6.5 16
q-8 2 -20.5 -15.5t-20 -42t-2.5 -37.5q0 -2 1 -2l3 3t4 3.5t3 3.5z" />
    <glyph glyph-name="guillemotright" unicode="&#xbb;" horiz-adv-x="272" 
d="M119 430q-11 7 -2 16.5t20 0.5q8 -5 28.5 -31.5l43 -57t26.5 -35.5q23 -28 12 -50q-1 -2 -8 -20.5l-15 -38.5t-18 -42t-20 -37.5t-17 -17.5q-20 -9 -21 6q-1 14 15 23q8 5 22.5 40.5t24.5 68.5l11 33q-87 133 -102 142zM18 415q-7 11 1 17t19 -2q9 -7 44.5 -59t39.5 -57
q22 -27 12 -49q-50 -125 -73 -143q-11 -9 -17 5q-4 12 6 24l55 134q-50 84 -73 110q-10 10 -14 20z" />
    <glyph glyph-name="onequarter" unicode="&#xbc;" horiz-adv-x="365" 
d="M253 131q0 -4 5 0q4 4 7 3q4 -2 0 -15t-9 -15q-10 -8 -18 0t-8 20q1 16 14 53q-39 0 -54 5q-12 3 -18.5 11t-5 19t11.5 22q13 15 53.5 36.5t54.5 24.5q2 10 2 15q-2 11 7 11q10 -1 13 -14q2 -14 -2.5 -29t-23.5 -60q-1 -4 -4.5 -11t-4.5 -10h18.5h18.5h10q13 -3 12 -15
q-1 -8 -9 -6q-7 1 -58 1q-15 -37 -12 -46zM299 409q-11 -8 -53.5 -48.5t-73.5 -75.5q-19 -23 -46.5 -52.5l-45.5 -48.5t-19 -21q-6 -7 -9 -13.5t-4 -10t-2.5 -6t-4.5 -2.5q-5 0 -8.5 4t-3 12.5t8.5 18.5q34 46 136 153q21 22 47.5 52.5t39.5 43t21 15.5q14 6 19.5 -4
t-2.5 -17zM91 427q12 14 24 7q9 -6 3 -16q-2 -4 -9.5 -11t-14.5 -18.5t-14 -31.5q-6 -20 -9.5 -39t-4.5 -28v-8q11 9 11 -3q0 -10 -6 -18.5t-12 -4.5q-13 3 -13 30q0 19 5 39q16 75 40 102zM193 208q6 -11 59 -11q10 24 14 35q2 5 7 18.5t7 20.5l-23.5 -11t-30.5 -16
t-27.5 -20t-5.5 -16z" />
    <glyph glyph-name="onehalf" unicode="&#xbd;" horiz-adv-x="373" 
d="M216 266q9 12 34.5 23.5t46.5 6.5q25 -7 25 -32q0 -23 -16 -48q-4 -8 -14 -24q23 -9 36 -23.5t13 -24.5q0 -9 -8 -11t-12 5q-11 26 -43 35q-42 -51 -80 -61q-17 -4 -27.5 4t-10.5 23q0 18 14 32q34 34 88 28q2 -1 7 -1q21 25 28 59q6 19 -17 19q-28 1 -47 -22
q-1 -2 -2 -3q-5 -10 -14 -2q-7 7 -1 17zM299 409q-11 -8 -53.5 -48.5t-73.5 -75.5q-19 -23 -46.5 -52.5l-45.5 -48.5t-19 -21q-6 -7 -9 -13.5t-4 -10t-2.5 -6t-4.5 -2.5q-5 0 -8.5 4t-3 12.5t8.5 18.5q34 46 136 153q21 22 47.5 52.5t39.5 43t21 15.5q14 6 19.5 -4t-2.5 -17
zM91 427q12 14 24 7q9 -6 3 -16q-2 -4 -9.5 -11t-14.5 -18.5t-14 -31.5q-6 -20 -9.5 -39t-4.5 -28v-8q11 9 11 -3q0 -10 -6 -18.5t-12 -4.5q-13 3 -13 30q0 19 5 39q16 75 40 102zM219 176q-34 -13 -39 -31q-3 -7 4 -10q7 -2 29 13t38 30q-12 1 -32 -2z" />
    <glyph glyph-name="threequarters" unicode="&#xbe;" horiz-adv-x="380" 
d="M275 131q0 -4 5 0q4 4 7 3q4 -2 0 -15t-9 -15q-10 -8 -18 0t-8 20q1 16 14 53q-39 0 -54 5q-12 3 -18.5 11t-5 19t11.5 22q13 15 53.5 36.5t54.5 24.5q2 10 2 15q-2 11 7 11q10 -1 13 -14q2 -14 -2.5 -29t-23.5 -60q-1 -4 -4.5 -11t-4.5 -10h47q13 -3 12 -15q-1 -8 -9 -6
q-7 1 -58 1q-15 -37 -12 -46zM75 414q20 20 58 20q23 0 37.5 -12t8.5 -31q-3 -7 -11 -15t-14 -12l-7 -5q21 -12 21 -29q2 -27 -26.5 -45t-63.5 -28q-50 -15 -55 3q0 8 10.5 15.5t18.5 7.5q3 0 3 -5q0 -2 0.5 -2.5t2 -1.5t5.5 0q23 3 48.5 14.5t30.5 28.5q8 17 -5.5 22.5
t-21.5 1.5q-1 0 -6.5 -2t-13.5 -4t-14 -2q-12 -2 -16 6t10 17q6 4 15 5.5t14 0.5h6q31 13 43 31q7 8 1.5 14.5t-18.5 6.5q-18 1 -27.5 -4.5t-14 -12t-8.5 -6.5q-9 0 -13 8t2 15zM323 400q-11 -8 -53.5 -48.5t-73.5 -75.5q-19 -23 -46.5 -52.5l-45.5 -48.5t-19 -21
q-6 -7 -9 -13.5t-4 -10t-2.5 -6t-4.5 -2.5q-5 0 -8.5 4t-3 12.5t8.5 18.5q34 46 136 153q21 22 47.5 52.5t39.5 43t21 15.5q14 6 19.5 -4t-2.5 -17zM215 208q6 -11 59 -11q10 24 14 35q2 5 7 18.5t7 20.5l-23.5 -11t-30.5 -16t-27.5 -20t-5.5 -16z" />
    <glyph glyph-name="questiondown" unicode="&#xbf;" horiz-adv-x="365" 
d="M150 -48q5 11 17 12q11 1 15.5 -6t-0.5 -15t-38 -20.5t-61 -16.5q-73 -9 -67 29q3 21 50 71t94 91q33 28 58 57t36 46.5t11 24.5q-1 3 -3 1.5t-7 -3.5t-7 -1q-4 2 -3 9t6 11q7 9 21 7t14 -24q0 -24 -42.5 -73.5t-83.5 -85.5q-38 -33 -74.5 -73.5t-40.5 -57.5q-1 -4 4 -6
t13.5 -1.5t17.5 2t19 3.5q11 2 24 7t20 8zM328 334q4 -3 5 -8t-1 -8l-1 -4l-3 -3q-10 -29 -26 -29q-9 2 -13 19t4 19q5 1 12.5 7.5t12 9t10.5 -2.5z" />
    <glyph glyph-name="Agrave" unicode="&#xc0;" horiz-adv-x="545" 
d="M428 482q-36 4 -38 4q-31 0 -68 -15q-70 -31 -122.5 -76t-107.5 -121q-33 -48 -55.5 -96t-26 -76t7.5 -36q57 -20 240 144q55 52 91.5 99.5t59 88t24.5 43.5q12 16 26 16q7 0 11 -5t2.5 -15t-10.5 -22q-2 -2 -12.5 -17.5l-15 -22.5l-15 -23t-16.5 -28t-13.5 -28.5
t-12.5 -32.5t-8 -32q-3 -21 -3 -37q0 -56 34 -56q23 0 60 25q70 46 105 78q20 17 20.5 7t-20.5 -31q-23 -23 -92 -70q-43 -29 -77 -29q-46 0 -50 57q-2 24 0.5 47t5.5 34l3 11l-52 -49.5t-107 -89t-122 -77.5q-31 -13 -51 -13q-36 0 -36 43q0 13 5 38q11 62 62 144.5
t125 146.5q140 122 242 108q26 -2 25 -19q0 -13 -12 -17q-3 -1 -6 0zM531 535q5 -4 4 -9.5t-7.5 -10.5t-13.5 -4q-11 2 -32 30.5t-29 48.5q-6 11 3 14q10 2 12 -9q0 -7 26.5 -31t36.5 -29z" />
    <glyph glyph-name="Aacute" unicode="&#xc1;" horiz-adv-x="545" 
d="M428 482q-36 4 -38 4q-31 0 -68 -15q-70 -31 -122.5 -76t-107.5 -121q-33 -48 -55.5 -96t-26 -76t7.5 -36q57 -20 240 144q55 52 91.5 99.5t59 88t24.5 43.5q12 16 26 16q7 0 11 -5t2.5 -15t-10.5 -22q-2 -2 -12.5 -17.5l-15 -22.5l-15 -23t-16.5 -28t-13.5 -28.5
t-12.5 -32.5t-8 -32q-3 -21 -3 -37q0 -56 34 -56q23 0 60 25q70 46 105 78q20 17 20.5 7t-20.5 -31q-23 -23 -92 -70q-43 -29 -77 -29q-46 0 -50 57q-2 24 0.5 47t5.5 34l3 11l-52 -49.5t-107 -89t-122 -77.5q-31 -13 -51 -13q-36 0 -36 43q0 13 5 38q11 62 62 144.5
t125 146.5q140 122 242 108q26 -2 25 -19q0 -13 -12 -17q-3 -1 -6 0zM459 553q14 -4 48.5 7.5t49.5 20.5q8 7 12 3.5t-1 -12.5q-6 -10 -42 -28t-56 -20q-16 -2 -21 14q-5 14 6 15h4z" />
    <glyph glyph-name="Acircumflex" unicode="&#xc2;" horiz-adv-x="545" 
d="M428 482q-36 4 -38 4q-31 0 -68 -15q-70 -31 -122.5 -76t-107.5 -121q-33 -48 -55.5 -96t-26 -76t7.5 -36q57 -20 240 144q55 52 91.5 99.5t59 88t24.5 43.5q12 16 26 16q7 0 11 -5t2.5 -15t-10.5 -22q-2 -2 -12.5 -17.5l-15 -22.5l-15 -23t-16.5 -28t-13.5 -28.5
t-12.5 -32.5t-8 -32q-3 -21 -3 -37q0 -56 34 -56q23 0 60 25q70 46 105 78q20 17 20.5 7t-20.5 -31q-23 -23 -92 -70q-43 -29 -77 -29q-46 0 -50 57q-2 24 0.5 47t5.5 34l3 11l-52 -49.5t-107 -89t-122 -77.5q-31 -13 -51 -13q-36 0 -36 43q0 13 5 38q11 62 62 144.5
t125 146.5q140 122 242 108q26 -2 25 -19q0 -13 -12 -17q-3 -1 -6 0zM485 567q-4 -2 -10.5 -4.5t-22 -6t-26.5 -3.5q-15 1 -15 13q0 10 10 10q18 -1 43.5 6.5t26.5 7.5q6 2 10 -1.5t4 -12.5q0 -27 9 -34q5 -5 15 -7q7 -1 6.5 -8.5t-9.5 -8.5q-22 -3 -35 18t-6 31z" />
    <glyph glyph-name="Atilde" unicode="&#xc3;" horiz-adv-x="545" 
d="M428 482q-36 4 -38 4q-31 0 -68 -15q-70 -31 -122.5 -76t-107.5 -121q-33 -48 -55.5 -96t-26 -76t7.5 -36q57 -20 240 144q55 52 91.5 99.5t59 88t24.5 43.5q12 16 26 16q7 0 11 -5t2.5 -15t-10.5 -22q-2 -2 -12.5 -17.5l-15 -22.5l-15 -23t-16.5 -28t-13.5 -28.5
t-12.5 -32.5t-8 -32q-3 -21 -3 -37q0 -56 34 -56q23 0 60 25q70 46 105 78q20 17 20.5 7t-20.5 -31q-23 -23 -92 -70q-43 -29 -77 -29q-46 0 -50 57q-2 24 0.5 47t5.5 34l3 11l-52 -49.5t-107 -89t-122 -77.5q-31 -13 -51 -13q-36 0 -36 43q0 13 5 38q11 62 62 144.5
t125 146.5q140 122 242 108q26 -2 25 -19q0 -13 -12 -17q-3 -1 -6 0zM418 567q7 9 25 13t27 -2q8 -3 11 -23t7 -23q8 -4 24.5 3t21.5 14q3 5 7 -2q5 -7 -4 -15q-33 -25 -55 -15q-10 3 -15.5 21t-7.5 20q-10 10 -35 -15q-6 -5 -10 3q-5 9 4 21z" />
    <glyph glyph-name="Adieresis" unicode="&#xc4;" horiz-adv-x="545" 
d="M428 482q-36 4 -38 4q-31 0 -68 -15q-70 -31 -122.5 -76t-107.5 -121q-33 -48 -55.5 -96t-26 -76t7.5 -36q57 -20 240 144q55 52 91.5 99.5t59 88t24.5 43.5q12 16 26 16q7 0 11 -5t2.5 -15t-10.5 -22q-2 -2 -12.5 -17.5l-15 -22.5l-15 -23t-16.5 -28t-13.5 -28.5
t-12.5 -32.5t-8 -32q-3 -21 -3 -37q0 -56 34 -56q23 0 60 25q70 46 105 78q20 17 20.5 7t-20.5 -31q-23 -23 -92 -70q-43 -29 -77 -29q-46 0 -50 57q-2 24 0.5 47t5.5 34l3 11l-52 -49.5t-107 -89t-122 -77.5q-31 -13 -51 -13q-36 0 -36 43q0 13 5 38q11 62 62 144.5
t125 146.5q140 122 242 108q26 -2 25 -19q0 -13 -12 -17q-3 -1 -6 0zM463 571q-4 -9 -15 -13t-17 1q-9 3 -13.5 13.5t7.5 15.5q10 4 25 -3.5t13 -13.5zM474 550q-2 9 5.5 13t20.5 2q12 -5 15.5 -16.5t-6.5 -18.5q-9 -4 -21 2.5t-14 17.5z" />
    <glyph glyph-name="Aring" unicode="&#xc5;" horiz-adv-x="545" 
d="M428 482q-36 4 -38 4q-31 0 -68 -15q-70 -31 -122.5 -76t-107.5 -121q-33 -48 -55.5 -96t-26 -76t7.5 -36q57 -20 240 144q55 52 91.5 99.5t59 88t24.5 43.5q12 16 26 16q7 0 11 -5t2.5 -15t-10.5 -22q-2 -2 -12.5 -17.5l-15 -22.5l-15 -23t-16.5 -28t-13.5 -28.5
t-12.5 -32.5t-8 -32q-3 -21 -3 -37q0 -56 34 -56q23 0 60 25q70 46 105 78q20 17 20.5 7t-20.5 -31q-23 -23 -92 -70q-43 -29 -77 -29q-46 0 -50 57q-2 24 0.5 47t5.5 34l3 11l-52 -49.5t-107 -89t-122 -77.5q-31 -13 -51 -13q-36 0 -36 43q0 13 5 38q11 62 62 144.5
t125 146.5q140 122 242 108q26 -2 25 -19q0 -13 -12 -17q-3 -1 -6 0zM437 595q6 11 19.5 20.5t26.5 10.5q35 2 55 -22q13 -18 13 -32t-12 -29q-21 -27 -67 -27q-21 0 -32 7q-13 8 -13 29q0 19 8 33q-2 5 2 10zM457 579q-12 -12 -12 -27q0 -19 35 -18q16 1 33 12t19 23
q2 11 -8.5 23.5t-23.5 14.5q-22 4 -41 -15q5 -6 -2 -13z" />
    <glyph glyph-name="AE" unicode="&#xc6;" horiz-adv-x="546" 
d="M578 514q-1 0 -15.5 -1.5t-24 -3.5t-27.5 -7.5t-38 -17t-41 -28.5q-66 -50 -111 -116q63 17 94 18q70 2 67 -20q0 -3 -3 -7q-4 -7 -25 -12t-36 -5q-5 1 -5 5t1 7.5t-1.5 6t-11.5 1.5q-36 -4 -97 -18q-33 -57 -36 -97q-2 -30 18.5 -46t58.5 -16q21 0 41 4q35 7 67.5 20
t50.5 24.5t38 26t26 17.5q13 8 20 7.5t4.5 -8.5t-13.5 -16q-28 -25 -95 -59.5t-124 -38.5q-56 -3 -93 22t-23 77q10 39 31 76q-26 -6 -37 -9l-45 -18q-36 -83 -36 -124q0 -27 15 -38q20 -16 56 -16q52 0 80 22q17 12 19 1.5t-13 -19.5q-10 -7 -37.5 -14t-55.5 -7
q-46 0 -73 21q-16 13 -16 46q0 44 27 116q-63 -23 -107 -26q-42 -42 -96.5 -91t-65.5 -54q-19 -10 -28 2t14 25q32 15 140 119q-48 5 -59 23q-5 4 -4 10t7 8.5t16 -1.5q34 -17 63 -17l34 34q41 41 123.5 142.5t102.5 130.5q13 16 24 7.5t6 -23.5q-2 -4 -22.5 -42l-47.5 -91
t-44 -92q-2 -4 -5.5 -13.5t-5.5 -12.5q36 11 84 24q53 85 124 142q47 37 73 50.5t55 15.5q25 5 41 -13q10 -11 -3 -13zM192 346q58 124 71 146q-3 -3 -39.5 -48l-78.5 -96t-65 -75q7 1 30 7q8 2 28.5 8.5t32.5 9.5q11 27 21 48z" />
    <glyph glyph-name="Ccedilla" unicode="&#xc7;" horiz-adv-x="410" 
d="M88 66q0 7 6.5 10t13 -0.5t6.5 -12.5q0 -25 -25 -63t-51 -42q-17 0 -18 15q0 13 8 14q4 1 8 -3q5 -7 18 8t23.5 37.5t10.5 36.5zM426 232q13 15 22 8.5t-4 -20.5q-12 -13 -37 -33t-72.5 -51.5t-115 -54.5t-136.5 -26q-63 -3 -98 23t-35 73q0 130 176 264q141 101 203 101
q18 0 30 -10t15 -20l2 -10q6 9 15 9q3 0 7 -5t4 -10q0 -2 -9 -11.5l-20 -21t-15 -19.5q-5 -6 -7 -13.5l-3 -11.5t-4.5 -7t-11.5 -3q-23 0 -23 13q0 10 19 44l19 35q0 10 -25 10q-71 0 -197 -104q-141 -116 -149 -220q-3 -41 24.5 -64.5t90.5 -17.5q102 9 200.5 60.5
t134.5 92.5z" />
    <glyph glyph-name="Egrave" unicode="&#xc8;" horiz-adv-x="520" 
d="M491 538q5 -4 4 -9.5t-7.5 -10.5t-13.5 -4q-11 2 -32 30.5t-29 48.5q-6 11 3 14q10 2 12 -9q0 -7 26.5 -31t36.5 -29zM540 238q14 12 20 6.5t-6 -20.5q-19 -25 -105 -69.5t-164 -72.5q-134 -51 -213 -51q-65 0 -100 22.5t-35 61.5q0 56 76 107q45 33 97 60t82 37l29 10
l-25 13q-25 14 -37.5 27t-12.5 29q0 10 6 21q12 14 63.5 37t98.5 33q33 7 83 7q76 0 72 -29q0 -1 -0.5 -3.5t-0.5 -4.5q6 6 11 9q5 0 10 -4t5 -9q0 -2 -7.5 -10l-19 -20.5t-17.5 -23.5q-6 -8 -8.5 -15.5t-2 -11t-3 -6t-12.5 -2.5q-23 0 -23 11q0 8 19.5 41.5t19.5 39.5
q0 14 -49 14q-55 0 -108 -15.5t-81 -33t-28 -27.5t37 -34t48 -24q1 0 20 3t33 3q34 0 34 -17q0 -11 -6 -14t-22 -3q-74 0 -126 -20q-89 -31 -160 -81t-69 -93q3 -60 109 -60q77 0 170 35q231 88 298 147z" />
    <glyph glyph-name="Eacute" unicode="&#xc9;" horiz-adv-x="520" 
d="M331 553q14 -4 48.5 7.5t49.5 20.5q8 7 12 3.5t-1 -12.5q-6 -10 -42 -28t-56 -20q-16 -2 -21 14q-5 14 6 15h4zM540 238q14 12 20 6.5t-6 -20.5q-19 -25 -105 -69.5t-164 -72.5q-134 -51 -213 -51q-65 0 -100 22.5t-35 61.5q0 56 76 107q45 33 97 60t82 37l29 10l-25 13
q-25 14 -37.5 27t-12.5 29q0 10 6 21q12 14 63.5 37t98.5 33q33 7 83 7q76 0 72 -29q0 -1 -0.5 -3.5t-0.5 -4.5q6 6 11 9q5 0 10 -4t5 -9q0 -2 -7.5 -10l-19 -20.5t-17.5 -23.5q-6 -8 -8.5 -15.5t-2 -11t-3 -6t-12.5 -2.5q-23 0 -23 11q0 8 19.5 41.5t19.5 39.5q0 14 -49 14
q-55 0 -108 -15.5t-81 -33t-28 -27.5t37 -34t48 -24q1 0 20 3t33 3q34 0 34 -17q0 -11 -6 -14t-22 -3q-74 0 -126 -20q-89 -31 -160 -81t-69 -93q3 -60 109 -60q77 0 170 35q231 88 298 147z" />
    <glyph glyph-name="Ecircumflex" unicode="&#xca;" horiz-adv-x="520" 
d="M459 553q-4 -2 -10.5 -4.5t-22 -6t-26.5 -3.5q-15 1 -15 13q0 10 10 10q18 -1 43.5 6.5t26.5 7.5q6 2 10 -1.5t4 -12.5q0 -27 9 -34q5 -5 15 -7q7 -1 6.5 -8.5t-9.5 -8.5q-22 -3 -35 18t-6 31zM540 238q14 12 20 6.5t-6 -20.5q-19 -25 -105 -69.5t-164 -72.5
q-134 -51 -213 -51q-65 0 -100 22.5t-35 61.5q0 56 76 107q45 33 97 60t82 37l29 10l-25 13q-25 14 -37.5 27t-12.5 29q0 10 6 21q12 14 63.5 37t98.5 33q33 7 83 7q76 0 72 -29q0 -1 -0.5 -3.5t-0.5 -4.5q6 6 11 9q5 0 10 -4t5 -9q0 -2 -7.5 -10l-19 -20.5t-17.5 -23.5
q-6 -8 -8.5 -15.5t-2 -11t-3 -6t-12.5 -2.5q-23 0 -23 11q0 8 19.5 41.5t19.5 39.5q0 14 -49 14q-55 0 -108 -15.5t-81 -33t-28 -27.5t37 -34t48 -24q1 0 20 3t33 3q34 0 34 -17q0 -11 -6 -14t-22 -3q-74 0 -126 -20q-89 -31 -160 -81t-69 -93q3 -60 109 -60q77 0 170 35
q231 88 298 147z" />
    <glyph glyph-name="Edieresis" unicode="&#xcb;" horiz-adv-x="520" 
d="M447 559q-4 -9 -15 -13t-17 1q-9 3 -13.5 13.5t7.5 15.5q10 4 25 -3.5t13 -13.5zM458 538q-2 9 5.5 13t20.5 2q12 -5 15.5 -16.5t-6.5 -18.5q-9 -4 -21 2.5t-14 17.5zM540 238q14 12 20 6.5t-6 -20.5q-19 -25 -105 -69.5t-164 -72.5q-134 -51 -213 -51q-65 0 -100 22.5
t-35 61.5q0 56 76 107q45 33 97 60t82 37l29 10l-25 13q-25 14 -37.5 27t-12.5 29q0 10 6 21q12 14 63.5 37t98.5 33q33 7 83 7q76 0 72 -29q0 -1 -0.5 -3.5t-0.5 -4.5q6 6 11 9q5 0 10 -4t5 -9q0 -2 -7.5 -10l-19 -20.5t-17.5 -23.5q-6 -8 -8.5 -15.5t-2 -11t-3 -6
t-12.5 -2.5q-23 0 -23 11q0 8 19.5 41.5t19.5 39.5q0 14 -49 14q-55 0 -108 -15.5t-81 -33t-28 -27.5t37 -34t48 -24q1 0 20 3t33 3q34 0 34 -17q0 -11 -6 -14t-22 -3q-74 0 -126 -20q-89 -31 -160 -81t-69 -93q3 -60 109 -60q77 0 170 35q231 88 298 147z" />
    <glyph glyph-name="Igrave" unicode="&#xcc;" horiz-adv-x="192" 
d="M295 629q5 -4 4 -9.5t-7.5 -10.5t-13.5 -4q-11 2 -32 30.5t-29 48.5q-6 11 3 14q10 2 12 -9q0 -7 26.5 -31t36.5 -29zM87 116q8 5 9 -3q1 -6 -3 -11q-17 -17 -50 -3q-8 3 -14 12q-34 -25 -71 -39.5t-60 -10.5q-33 4 -33 38q0 27 19 37q14 10 16 -1q1 -6 -4 -10
q-12 -5 -14 -19t11 -19q38 -16 111 35l6 4l9 7q-6 21 -6 52q0 48 16 108q25 88 86 192.5t91 117.5q39 18 46 -3q9 -25 -16.5 -110t-55.5 -153q-57 -130 -119 -198l-14 -14q1 -4 5 -6q18 -14 35 -3zM52 287q-16 -58 -16 -102q0 -21 3 -34q65 63 103 155q39 96 67.5 183.5
t13.5 90.5q-20 4 -84.5 -107t-86.5 -186z" />
    <glyph glyph-name="Iacute" unicode="&#xcd;" horiz-adv-x="192" 
d="M185 654q14 -4 48.5 7.5t49.5 20.5q8 7 12 3.5t-1 -12.5q-6 -10 -42 -28t-56 -20q-16 -2 -21 14q-5 14 6 15h4zM87 116q8 5 9 -3q1 -6 -3 -11q-17 -17 -50 -3q-8 3 -14 12q-34 -25 -71 -39.5t-60 -10.5q-33 4 -33 38q0 27 19 37q14 10 16 -1q1 -6 -4 -10q-12 -5 -14 -19
t11 -19q38 -16 111 35l6 4l9 7q-6 21 -6 52q0 48 16 108q25 88 86 192.5t91 117.5q39 18 46 -3q9 -25 -16.5 -110t-55.5 -153q-57 -130 -119 -198l-14 -14q1 -4 5 -6q18 -14 35 -3zM52 287q-16 -58 -16 -102q0 -21 3 -34q65 63 103 155q39 96 67.5 183.5t13.5 90.5
q-20 4 -84.5 -107t-86.5 -186z" />
    <glyph glyph-name="Icircumflex" unicode="&#xce;" horiz-adv-x="192" 
d="M255 654q-4 -2 -10.5 -4.5t-22 -6t-26.5 -3.5q-15 1 -15 13q0 10 10 10q18 -1 43.5 6.5t26.5 7.5q6 2 10 -1.5t4 -12.5q0 -27 9 -34q5 -5 15 -7q7 -1 6.5 -8.5t-9.5 -8.5q-22 -3 -35 18t-6 31zM87 116q8 5 9 -3q1 -6 -3 -11q-17 -17 -50 -3q-8 3 -14 12
q-34 -25 -71 -39.5t-60 -10.5q-33 4 -33 38q0 27 19 37q14 10 16 -1q1 -6 -4 -10q-12 -5 -14 -19t11 -19q38 -16 111 35l6 4l9 7q-6 21 -6 52q0 48 16 108q25 88 86 192.5t91 117.5q39 18 46 -3q9 -25 -16.5 -110t-55.5 -153q-57 -130 -119 -198l-14 -14q1 -4 5 -6
q18 -14 35 -3zM52 287q-16 -58 -16 -102q0 -21 3 -34q65 63 103 155q39 96 67.5 183.5t13.5 90.5q-20 4 -84.5 -107t-86.5 -186z" />
    <glyph glyph-name="Idieresis" unicode="&#xcf;" horiz-adv-x="192" 
d="M255 657q-4 -9 -15 -13t-17 1q-9 3 -13.5 13.5t7.5 15.5q10 4 25 -3.5t13 -13.5zM266 636q-2 9 5.5 13t20.5 2q12 -5 15.5 -16.5t-6.5 -18.5q-9 -4 -21 2.5t-14 17.5zM87 116q8 5 9 -3q1 -6 -3 -11q-17 -17 -50 -3q-8 3 -14 12q-34 -25 -71 -39.5t-60 -10.5q-33 4 -33 38
q0 27 19 37q14 10 16 -1q1 -6 -4 -10q-12 -5 -14 -19t11 -19q38 -16 111 35l6 4l9 7q-6 21 -6 52q0 48 16 108q25 88 86 192.5t91 117.5q39 18 46 -3q9 -25 -16.5 -110t-55.5 -153q-57 -130 -119 -198l-14 -14q1 -4 5 -6q18 -14 35 -3zM52 287q-16 -58 -16 -102q0 -21 3 -34
q65 63 103 155q39 96 67.5 183.5t13.5 90.5q-20 4 -84.5 -107t-86.5 -186z" />
    <glyph glyph-name="Eth" unicode="&#xd0;" horiz-adv-x="524" 
d="M303 582q5 4 13 4t10.5 -4.5t-2.5 -13.5q-1 -2 -5 -6.5t-10 -12l-12 -15.5q105 -11 166 -50q70 -46 70 -122q0 -71 -64 -151q-73 -89 -182 -135.5t-166 -35.5q-34 6 -34 36q0 20 13.5 41t32.5 30q26 11 29 1q2 -5 -12 -12q-19 -11 -30.5 -27.5t-10.5 -29.5t12 -16
q46 -11 131.5 23t158.5 99q98 88 98 178q0 57 -40 90q-57 48 -190 58q-79 -101 -110 -145q44 -1 83 -11q13 -2 15 -9t-11 -14q-9 -2 -16.5 -0.5t-12.5 4.5l-5 2l-72 3q-3 -6 -9 -14.5l-8 -11.5q-24 -34 -47.5 -76.5t-36 -70t-12.5 -32.5q0 -6 10 -1q5 3 4 -2q-4 -22 -17 -35
q-23 -18 -30 14q-4 38 107 212q1 1 4.5 7t5.5 9q-18 -1 -42 -5.5t-40 -6.5t-24 0q-13 2 -15.5 9t9.5 14q25 15 127 15h3q49 70 110 147q-6 0 -16 0.5t-15 0.5t-15 -0.5t-14 -0.5q-66 -3 -132 -19t-87 -37q-12 -12 -23 -1q-12 13 8 29q5 5 12 8q53 26 156 39q43 6 91 6
q18 0 52 -2z" />
    <glyph glyph-name="Ntilde" unicode="&#xd1;" horiz-adv-x="519" 
d="M22 458q14 19 113 38q7 1 11 2q25 5 42 5q66 0 50 -66q-7 -28 -46 -99t-75 -128l-36 -57q150 137 209 198q97 101 131 122q16 11 25 0.5t1 -37.5l-15.5 -44.5l-21 -62.5t-14.5 -51q-20 -82 -20 -111q0 -27 14 -27q28 1 74 34t71 59q16 17 25 10q6 -5 -4 -17
q-23 -29 -64.5 -59.5t-74.5 -42.5q-15 -6 -28 -6q-36 0 -36 49q0 29 16.5 95.5t33.5 119.5l17 52q-80 -63 -153 -137q-21 -22 -56 -55l-63 -59l-55.5 -51t-29.5 -27q-18 -16 -42 -16q-14 0 -17.5 7t8.5 22q31 31 54.5 62t62.5 98q76 132 86 170q6 25 -5 30q-18 9 -85 -6.5
t-81 -30.5q-15 -15 -23 -6.5t1 23.5zM280 551q7 9 25 13t27 -2q8 -3 11 -23t7 -23q8 -4 24.5 3t21.5 14q3 5 7 -2q5 -7 -4 -15q-33 -25 -55 -15q-10 3 -15.5 21t-7.5 20q-10 10 -35 -15q-6 -5 -10 3q-5 9 4 21z" />
    <glyph glyph-name="Ograve" unicode="&#xd2;" horiz-adv-x="472" 
d="M522 579q5 -4 4 -9.5t-7.5 -10.5t-13.5 -4q-11 2 -32 30.5t-29 48.5q-6 11 3 14q10 2 12 -9q0 -7 26.5 -31t36.5 -29zM197 492q25 7 43 -7q67 67 131 80q15 3 32 3q44 0 75.5 -26.5t31.5 -86.5q0 -15 -3 -35q-10 -66 -76.5 -152.5t-152.5 -150.5t-148 -72q-11 -2 -31 -2
q-98 0 -98 102q0 22 4 42q12 77 74.5 185t117.5 120zM173 359q0 51 50 108q-4 1 -16 1q-46 -6 -104 -104.5t-74 -182.5q-3 -17 -3 -31q0 -47 28.5 -68t67.5 -13q70 13 153 76.5t142.5 145t67.5 144.5q12 86 -62 103q-54 13 -123 -31q-24 -15 -47 -41q5 -24 -1 -35
q-10 -15 -11 -7q-1 3 2 10q5 11 -1 21q-60 -71 -51 -102q8 -18 -3 -22q-10 -3 -14 14q-1 6 -1 14z" />
    <glyph glyph-name="Oacute" unicode="&#xd3;" horiz-adv-x="472" 
d="M370 616q14 -4 48.5 7.5t49.5 20.5q8 7 12 3.5t-1 -12.5q-6 -10 -42 -28t-56 -20q-16 -2 -21 14q-5 14 6 15h4zM197 492q25 7 43 -7q67 67 131 80q15 3 32 3q44 0 75.5 -26.5t31.5 -86.5q0 -15 -3 -35q-10 -66 -76.5 -152.5t-152.5 -150.5t-148 -72q-11 -2 -31 -2
q-98 0 -98 102q0 22 4 42q12 77 74.5 185t117.5 120zM173 359q0 51 50 108q-4 1 -16 1q-46 -6 -104 -104.5t-74 -182.5q-3 -17 -3 -31q0 -47 28.5 -68t67.5 -13q70 13 153 76.5t142.5 145t67.5 144.5q12 86 -62 103q-54 13 -123 -31q-24 -15 -47 -41q5 -24 -1 -35
q-10 -15 -11 -7q-1 3 2 10q5 11 -1 21q-60 -71 -51 -102q8 -18 -3 -22q-10 -3 -14 14q-1 6 -1 14z" />
    <glyph glyph-name="Ocircumflex" unicode="&#xd4;" horiz-adv-x="472" 
d="M466 615q-4 -2 -10.5 -4.5t-22 -6t-26.5 -3.5q-15 1 -15 13q0 10 10 10q18 -1 43.5 6.5t26.5 7.5q6 2 10 -1.5t4 -12.5q0 -27 9 -34q5 -5 15 -7q7 -1 6.5 -8.5t-9.5 -8.5q-22 -3 -35 18t-6 31zM197 492q25 7 43 -7q67 67 131 80q15 3 32 3q44 0 75.5 -26.5t31.5 -86.5
q0 -15 -3 -35q-10 -66 -76.5 -152.5t-152.5 -150.5t-148 -72q-11 -2 -31 -2q-98 0 -98 102q0 22 4 42q12 77 74.5 185t117.5 120zM173 359q0 51 50 108q-4 1 -16 1q-46 -6 -104 -104.5t-74 -182.5q-3 -17 -3 -31q0 -47 28.5 -68t67.5 -13q70 13 153 76.5t142.5 145
t67.5 144.5q12 86 -62 103q-54 13 -123 -31q-24 -15 -47 -41q5 -24 -1 -35q-10 -15 -11 -7q-1 3 2 10q5 11 -1 21q-60 -71 -51 -102q8 -18 -3 -22q-10 -3 -14 14q-1 6 -1 14z" />
    <glyph glyph-name="Otilde" unicode="&#xd5;" horiz-adv-x="472" 
d="M407 613q7 9 25 13t27 -2q8 -3 11 -23t7 -23q8 -4 24.5 3t21.5 14q3 5 7 -2q5 -7 -4 -15q-33 -25 -55 -15q-10 3 -15.5 21t-7.5 20q-10 10 -35 -15q-6 -5 -11 3q-4 9 5 21zM197 492q25 7 43 -7q67 67 131 80q15 3 32 3q44 0 75.5 -26.5t31.5 -86.5q0 -15 -3 -35
q-10 -66 -76.5 -152.5t-152.5 -150.5t-148 -72q-11 -2 -31 -2q-98 0 -98 102q0 22 4 42q12 77 74.5 185t117.5 120zM173 359q0 51 50 108q-4 1 -16 1q-46 -6 -104 -104.5t-74 -182.5q-3 -17 -3 -31q0 -47 28.5 -68t67.5 -13q70 13 153 76.5t142.5 145t67.5 144.5
q12 86 -62 103q-54 13 -123 -31q-24 -15 -47 -41q5 -24 -1 -35q-10 -15 -11 -7q-1 3 2 10q5 11 -1 21q-60 -71 -51 -102q8 -18 -3 -22q-10 -3 -14 14q-1 6 -1 14z" />
    <glyph glyph-name="Odieresis" unicode="&#xd6;" horiz-adv-x="472" 
d="M471 625q-4 -9 -15 -13t-17 1q-9 3 -13.5 13.5t7.5 15.5q10 4 25 -3.5t13 -13.5zM482 604q-2 9 5.5 13t20.5 2q12 -5 15.5 -16.5t-6.5 -18.5q-9 -4 -21 2.5t-14 17.5zM197 492q25 7 43 -7q67 67 131 80q15 3 32 3q44 0 75.5 -26.5t31.5 -86.5q0 -15 -3 -35
q-10 -66 -76.5 -152.5t-152.5 -150.5t-148 -72q-11 -2 -31 -2q-98 0 -98 102q0 22 4 42q12 77 74.5 185t117.5 120zM173 359q0 51 50 108q-4 1 -16 1q-46 -6 -104 -104.5t-74 -182.5q-3 -17 -3 -31q0 -47 28.5 -68t67.5 -13q70 13 153 76.5t142.5 145t67.5 144.5
q12 86 -62 103q-54 13 -123 -31q-24 -15 -47 -41q5 -24 -1 -35q-10 -15 -11 -7q-1 3 2 10q5 11 -1 21q-60 -71 -51 -102q8 -18 -3 -22q-10 -3 -14 14q-1 6 -1 14z" />
    <glyph glyph-name="multiply" unicode="&#xd7;" horiz-adv-x="265" 
d="M228 384q12 2 15 -7q3 -8 -5 -8q-19 -3 -94 -62l-2 -2q49 -57 54 -73q2 -11 -8 -14.5t-14 7.5q-11 24 -49 67q-22 -18 -39 -35.5t-27.5 -30t-11.5 -13.5q-9 -8 -18 -4t-4 16q5 16 86 82q-45 47 -62 58q-6 4 -4.5 10t8 10.5t11.5 1.5q13 -9 64 -66q80 62 100 63z" />
    <glyph glyph-name="Oslash" unicode="&#xd8;" horiz-adv-x="472" 
d="M483 570q9 7 16 4t7.5 -10.5t-3.5 -12.5q-12 -9 -19 -16q26 -29 26 -80q0 -15 -3 -35q-10 -66 -76.5 -152.5t-152.5 -150.5t-148 -72q-18 -3 -33 -3q-39 0 -63 19q-4 -4 -8 -8.5t-6 -6.5l-2 -3q-12 -16 -23 -10q-6 3 -3 13q1 1 27 31q-18 25 -18 67q0 22 4 43
q12 77 74.5 185t117.5 120q25 7 43 -7q67 67 131 80q15 3 32 3q35 0 60 -15q16 14 20 17zM485 435q7 55 -21 81q-118 -114 -411 -434q29 -23 69 -13q70 13 153 76.5t142.5 145t67.5 144.5zM173 359q0 51 50 108q-4 1 -16 1q-46 -6 -104 -104.5t-74 -182.5q-3 -18 -3 -33
q0 -30 12 -50q264 291 404 433q-4 2 -19 7q-54 13 -123 -31q-24 -15 -47 -41q5 -24 -1 -35q-10 -15 -11 -7q-1 3 2 10q5 11 -1 21q-60 -71 -51 -102q8 -18 -3 -22q-10 -3 -14 14q-1 6 -1 14z" />
    <glyph glyph-name="Ugrave" unicode="&#xd9;" horiz-adv-x="539" 
d="M395 569q5 -4 4 -9.5t-7.5 -10.5t-13.5 -4q-11 2 -32 30.5t-29 48.5q-6 11 3 14q10 2 12 -9q0 -7 26.5 -31t36.5 -29zM219 523q-3 -65 -95 -238q-9 -18 -38 -66t-42 -75.5t-8 -36.5q26 -44 221 116q74 61 119.5 110t57.5 74q22 43 43 68q18 21 37 21q18 0 6 -22
q-5 -9 -15 -20q-64 -78 -107 -188q-14 -37 -14 -68q0 -24 9 -38t28 -13q55 2 140 94q14 15 21 7q6 -6 -3 -17q-69 -88 -137 -103q-33 -7 -55.5 7.5t-24.5 44.5q-2 22 3.5 52.5t11.5 49.5l6 20q-109 -95 -174 -145q-39 -31 -84.5 -55.5t-69.5 -25.5q-43 -2 -43 34q0 17 8 33
l46.5 86.5t67.5 130.5q61 132 51 170q-5 19 10 22q15 4 22 -13q2 -7 2 -16z" />
    <glyph glyph-name="Uacute" unicode="&#xda;" horiz-adv-x="539" 
d="M322 566q14 -4 48.5 7.5t49.5 20.5q8 7 12 3.5t-1 -12.5q-6 -10 -42 -28t-56 -20q-16 -2 -21 14q-5 14 6 15h4zM219 523q-3 -65 -95 -238q-9 -18 -38 -66t-42 -75.5t-8 -36.5q26 -44 221 116q74 61 119.5 110t57.5 74q22 43 43 68q18 21 37 21q18 0 6 -22q-5 -9 -15 -20
q-64 -78 -107 -188q-14 -37 -14 -68q0 -24 9 -38t28 -13q55 2 140 94q14 15 21 7q6 -6 -3 -17q-69 -88 -137 -103q-33 -7 -55.5 7.5t-24.5 44.5q-2 22 3.5 52.5t11.5 49.5l6 20q-109 -95 -174 -145q-39 -31 -84.5 -55.5t-69.5 -25.5q-43 -2 -43 34q0 17 8 33l46.5 86.5
t67.5 130.5q61 132 51 170q-5 19 10 22q15 4 22 -13q2 -7 2 -16z" />
    <glyph glyph-name="Ucircumflex" unicode="&#xdb;" horiz-adv-x="539" 
d="M371 580q-4 -2 -10.5 -4.5t-22 -6t-26.5 -3.5q-15 1 -15 13q0 10 10 10q18 -1 43.5 6.5t26.5 7.5q6 2 10 -1.5t4 -12.5q0 -27 9 -34q5 -5 15 -7q7 -1 6.5 -8.5t-9.5 -8.5q-22 -3 -35 18t-6 31zM219 523q-3 -65 -95 -238q-9 -18 -38 -66t-42 -75.5t-8 -36.5
q26 -44 221 116q74 61 119.5 110t57.5 74q22 43 43 68q18 21 37 21q18 0 6 -22q-5 -9 -15 -20q-64 -78 -107 -188q-14 -37 -14 -68q0 -24 9 -38t28 -13q55 2 140 94q14 15 21 7q6 -6 -3 -17q-69 -88 -137 -103q-33 -7 -55.5 7.5t-24.5 44.5q-2 22 3.5 52.5t11.5 49.5l6 20
q-109 -95 -174 -145q-39 -31 -84.5 -55.5t-69.5 -25.5q-43 -2 -43 34q0 17 8 33l46.5 86.5t67.5 130.5q61 132 51 170q-5 19 10 22q15 4 22 -13q2 -7 2 -16z" />
    <glyph glyph-name="Udieresis" unicode="&#xdc;" horiz-adv-x="539" 
d="M364 589q-4 -9 -15 -13t-17 1q-9 3 -13.5 13.5t7.5 15.5q10 4 25 -3.5t13 -13.5zM375 568q-2 9 5.5 13t20.5 2q12 -5 15.5 -16.5t-6.5 -18.5q-9 -4 -21 2.5t-14 17.5zM219 523q-3 -65 -95 -238q-9 -18 -38 -66t-42 -75.5t-8 -36.5q26 -44 221 116q74 61 119.5 110
t57.5 74q22 43 43 68q18 21 37 21q18 0 6 -22q-5 -9 -15 -20q-64 -78 -107 -188q-14 -37 -14 -68q0 -24 9 -38t28 -13q55 2 140 94q14 15 21 7q6 -6 -3 -17q-69 -88 -137 -103q-33 -7 -55.5 7.5t-24.5 44.5q-2 22 3.5 52.5t11.5 49.5l6 20q-109 -95 -174 -145
q-39 -31 -84.5 -55.5t-69.5 -25.5q-43 -2 -43 34q0 17 8 33l46.5 86.5t67.5 130.5q61 132 51 170q-5 19 10 22q15 4 22 -13q2 -7 2 -16z" />
    <glyph glyph-name="Yacute" unicode="&#xdd;" horiz-adv-x="500" 
d="M320 540q14 -4 48.5 7.5t49.5 20.5q8 7 12 3.5t-1 -12.5q-6 -10 -42 -28t-56 -20q-16 -2 -21 14q-5 14 6 15h4zM196 486q-16 21 -4 28q12 6 24 -8t1 -36q-11 -21 -58.5 -85.5t-71.5 -103.5q-15 -23 -27 -49t-16 -42.5t1 -19.5q27 -9 186 79q81 45 172.5 111t103.5 93
q11 26 31 13q19 -12 14 -36l-2 -8l-26.5 -55l-59 -117.5l-65.5 -120.5q64 -3 113 -26t67 -58q7 -13 7 -30q0 -20 -9.5 -34t-24.5 -14t-14 11q2 13 21 19q19 13 -2 44.5t-58 45.5q-51 20 -112 20q-34 -56 -57 -87q-82 -114 -163 -170t-148 -43q-38 8 -38 48q0 43 45.5 100.5
t132.5 108.5q105 62 213 65q28 48 64.5 120l59.5 120l23 48q-166 -137 -280 -189l-57.5 -30.5l-56.5 -29.5t-43 -18.5t-37 -8.5q-21 0 -29 17q-6 14 7 48t31 62zM268 86q-174 -66 -244 -180q-16 -23 -16 -46q0 -34 37 -34q19 0 49 12q69 30 138.5 104t125.5 164
q-45 -3 -90 -20z" />
    <glyph glyph-name="Thorn" unicode="&#xde;" horiz-adv-x="520" 
d="M296 530q7 7 17 3t4 -15l-57 -76q135 -5 202 -47q44 -28 44 -83q0 -33 -21 -64q-29 -41 -78 -75.5t-108 -52.5q-89 -28 -186 -28q-35 0 -65 3q-22 -44 -22 -52q0 -6 9 1q4 4 3 -1q-5 -27 -18 -35q-22 -18 -29 12q-2 18 29 79q-78 14 -95 33q-17 18 -4 32q11 11 19 -2
q1 -1 2 -3q12 -26 89 -37q52 105 112 196q36 56 71 103q-123 0 -216 -25q-52 -14 -85.5 -36t-42 -34t-17.5 -31q-6 -12 -15 -4q-7 6 -6 17q3 24 46.5 60t121.5 54q107 22 230 21zM195 122q78 8 152 44.5t108 83.5q25 32 25 67q0 40 -39 62q-69 39 -197 42q-37 -48 -81 -114
q-46 -69 -104 -188q28 -2 49 -2q46 0 87 5z" />
    <glyph glyph-name="germandbls" unicode="&#xdf;" horiz-adv-x="305" 
d="M139 271q28 17 59 17q26 0 39.5 -14t3.5 -41q-7 -18 -18.5 -35t-20.5 -26l-8 -8q79 29 99 43q23 17 28 9q2 -3 -5 -12q-26 -33 -145 -69q-10 -3 -18 -7t-17 -11.5t-14 -10.5q-14 -10 -26 3t-9 26q3 14 49 14q10 0 43.5 32t40.5 61q4 12 -4.5 18.5t-23.5 6.5
q-32 0 -56 -25q-4 -4 -11 -6t-13 2t-5 16q3 16 52.5 89.5t60.5 97.5q15 31 6 31q-8 0 -19 -15q-16 -15 -85.5 -114.5t-90.5 -117.5q-15 -12 -21 -7t12 21q21 19 88.5 121t89.5 128q10 14 28.5 10t18.5 -27q0 -12 -9 -35q-12 -28 -36.5 -69.5t-43.5 -68.5z" />
    <glyph glyph-name="agrave" unicode="&#xe0;" 
d="M278 232q6 9 18 8q11 0 1 -13q-14 -18 -49.5 -43.5t-54.5 -29.5q-22 -6 -31 -6q-26 0 -27 29q0 11 3 24.5t6 21.5l3 8q-60 -71 -118 -91q-24 -8 -36 1.5t-6 36.5q8 34 47 78.5t65 48.5q28 5 31 -13q1 -9 -5 -10q-8 0 -43.5 -24.5t-54.5 -49.5q-34 -48 -12 -47q7 0 18 4
q33 15 75.5 57.5t63.5 69.5q9 13 19.5 5.5t4.5 -20.5q-31 -70 -35 -88q-3 -17 3.5 -20t21.5 4q48 18 92 59zM157 356q5 -4 4 -9.5t-7.5 -10.5t-13.5 -4q-11 2 -32 30.5t-29 48.5q-6 11 3 14q10 2 12 -9q0 -7 26.5 -31t36.5 -29z" />
    <glyph glyph-name="aacute" unicode="&#xe1;" 
d="M278 232q6 9 18 8q11 0 1 -13q-14 -18 -49.5 -43.5t-54.5 -29.5q-22 -6 -31 -6q-26 0 -27 29q0 11 3 24.5t6 21.5l3 8q-60 -71 -118 -91q-24 -8 -36 1.5t-6 36.5q8 34 47 78.5t65 48.5q28 5 31 -13q1 -9 -5 -10q-8 0 -43.5 -24.5t-54.5 -49.5q-34 -48 -12 -47q7 0 18 4
q33 15 75.5 57.5t63.5 69.5q9 13 19.5 5.5t4.5 -20.5q-31 -70 -35 -88q-3 -17 3.5 -20t21.5 4q48 18 92 59zM84 368q14 -4 48.5 7.5t49.5 20.5q8 7 12 3.5t-1 -12.5q-6 -10 -42 -28t-56 -20q-16 -2 -21 14q-5 14 6 15h4z" />
    <glyph glyph-name="acircumflex" unicode="&#xe2;" 
d="M278 232q6 9 18 8q11 0 1 -13q-14 -18 -49.5 -43.5t-54.5 -29.5q-22 -6 -31 -6q-26 0 -27 29q0 11 3 24.5t6 21.5l3 8q-60 -71 -118 -91q-24 -8 -36 1.5t-6 36.5q8 34 47 78.5t65 48.5q28 5 31 -13q1 -9 -5 -10q-8 0 -43.5 -24.5t-54.5 -49.5q-34 -48 -12 -47q7 0 18 4
q33 15 75.5 57.5t63.5 69.5q9 13 19.5 5.5t4.5 -20.5q-31 -70 -35 -88q-3 -17 3.5 -20t21.5 4q48 18 92 59zM172 379q-4 -2 -10.5 -4.5t-22 -6t-26.5 -3.5q-15 1 -15 13q0 10 10 10q18 -1 43.5 6.5t26.5 7.5q6 2 10 -1.5t4 -12.5q0 -27 9 -34q5 -5 15 -7q7 -1 6.5 -8.5
t-9.5 -8.5q-22 -3 -35 18t-6 31z" />
    <glyph glyph-name="atilde" unicode="&#xe3;" 
d="M278 232q6 9 18 8q11 0 1 -13q-14 -18 -49.5 -43.5t-54.5 -29.5q-22 -6 -31 -6q-26 0 -27 29q0 11 3 24.5t6 21.5l3 8q-60 -71 -118 -91q-24 -8 -36 1.5t-6 36.5q8 34 47 78.5t65 48.5q28 5 31 -13q1 -9 -5 -10q-8 0 -43.5 -24.5t-54.5 -49.5q-34 -48 -12 -47q7 0 18 4
q33 15 75.5 57.5t63.5 69.5q9 13 19.5 5.5t4.5 -20.5q-31 -70 -35 -88q-3 -17 3.5 -20t21.5 4q48 18 92 59zM111 374q7 9 25 13t27 -2q8 -3 11 -23t7 -23q8 -4 24.5 3t21.5 14q3 5 7 -2q5 -7 -4 -15q-33 -25 -55 -15q-10 3 -15.5 21t-7.5 20q-10 10 -35 -15q-6 -5 -11 3
q-4 9 5 21z" />
    <glyph glyph-name="adieresis" unicode="&#xe4;" 
d="M278 232q6 9 18 8q11 0 1 -13q-14 -18 -49.5 -43.5t-54.5 -29.5q-22 -6 -31 -6q-26 0 -27 29q0 11 3 24.5t6 21.5l3 8q-60 -71 -118 -91q-24 -8 -36 1.5t-6 36.5q8 34 47 78.5t65 48.5q28 5 31 -13q1 -9 -5 -10q-8 0 -43.5 -24.5t-54.5 -49.5q-34 -48 -12 -47q7 0 18 4
q33 15 75.5 57.5t63.5 69.5q9 13 19.5 5.5t4.5 -20.5q-31 -70 -35 -88q-3 -17 3.5 -20t21.5 4q48 18 92 59zM163 368q-4 -9 -15 -13t-17 1q-9 3 -13.5 13.5t7.5 15.5q10 4 25 -3.5t13 -13.5zM174 347q-2 9 5.5 13t20.5 2q12 -5 15.5 -16.5t-6.5 -18.5q-9 -4 -21 2.5
t-14 17.5z" />
    <glyph glyph-name="aring" unicode="&#xe5;" 
d="M278 232q6 9 18 8q11 0 1 -13q-14 -18 -49.5 -43.5t-54.5 -29.5q-22 -6 -31 -6q-26 0 -27 29q0 11 3 24.5t6 21.5l3 8q-60 -71 -118 -91q-24 -8 -36 1.5t-6 36.5q8 34 47 78.5t65 48.5q28 5 31 -13q1 -9 -5 -10q-8 0 -43.5 -24.5t-54.5 -49.5q-34 -48 -12 -47q7 0 18 4
q33 15 75.5 57.5t63.5 69.5q9 13 19.5 5.5t4.5 -20.5q-31 -70 -35 -88q-3 -17 3.5 -20t21.5 4q48 18 92 59zM134 393q6 11 19.5 20.5t26.5 10.5q35 2 55 -22q13 -18 13 -32t-12 -29q-21 -27 -67 -27q-21 0 -32 7q-13 8 -13 29q0 19 8 33q-2 5 2 10zM154 377q-12 -12 -12 -27
q0 -19 35 -18q16 1 33 12t19 23q2 11 -8.5 23.5t-23.5 14.5q-22 4 -41 -15q6 -6 -2 -13z" />
    <glyph glyph-name="ae" unicode="&#xe6;" horiz-adv-x="378" 
d="M406 243q9 10 12 -1q1 -5 -1 -10q-14 -22 -66 -58.5t-87 -44.5q-26 -8 -47 3.5t-18 39.5q0 5 1 7q-21 -7 -32 -7q-28 0 -29 27q-1 15 4 28q-15 -19 -48 -47.5t-66 -39.5q-24 -8 -36 1.5t-6 36.5q8 34 47 78.5t65 48.5q28 5 31 -13q1 -9 -5 -10q-8 0 -43.5 -24.5
t-54.5 -49.5q-34 -48 -12 -47q7 0 18 4q33 15 75.5 57.5t63.5 69.5q9 13 19.5 5.5t4.5 -20.5q-2 -4 -15.5 -27t-18.5 -41q-6 -22 31 -10q6 1 13 4q15 45 55 81q36 32 68 21q26 -9 -7 -50q-16 -19 -37 -34q-32 -23 -61 -30q-1 -3 -3 -19q0 -5 1 -8.5t2 -6t3.5 -4t4 -2.5
t5 -1.5t5 -0.5h6h5.5q26 2 80.5 37t72.5 57zM267 259q-4 -4 -11.5 -14.5t-12.5 -18.5l-5 -9q30 12 45 26q36 34 32 43q-3 6 -18 -3.5t-30 -23.5z" />
    <glyph glyph-name="ccedilla" unicode="&#xe7;" horiz-adv-x="196" 
d="M111 315q12 1 17 -16q4 -13 -2 -13q-30 0 -60.5 -30.5t-39.5 -57.5q-6 -18 -6 -28q0 -20 30 -17q33 4 86 31.5t80 52.5q10 9 17.5 4.5t-3.5 -17.5q-16 -24 -77.5 -56t-108.5 -38q-30 -4 -43 14q-7 2 -4 31.5t24 64.5q42 70 90 75zM78 141q0 7 6.5 10t13 -0.5t6.5 -12.5
q0 -25 -25 -63t-51 -42q-17 0 -18 15q0 13 8 14q4 1 8 -3q5 -7 18 8t23.5 37.5t10.5 36.5z" />
    <glyph glyph-name="egrave" unicode="&#xe8;" horiz-adv-x="181" 
d="M205 242q9 10 12 -1q1 -5 -1 -10q-14 -22 -62 -53.5t-84 -39.5q-26 -8 -47 3.5t-18 39.5q9 65 62 112q36 32 68 21q20 -8 6 -40t-42 -49q-16 -9 -34.5 -12t-25.5 3q-1 -3 -3.5 -7t-5 -10.5t-3.5 -17.5q0 -5 1 -8.5t2 -6t3.5 -4t4 -2.5t5 -1.5t5 -0.5h6h5.5q27 2 78 32.5
t68 51.5zM73 268q-8 -7 -20 -26q11 -16 37 3q16 11 27 26t6 23q-3 6 -19.5 -3.5t-30.5 -22.5zM187 340q5 -4 4 -9.5t-7.5 -10.5t-13.5 -4q-11 2 -32 30.5t-29 48.5q-6 11 3 14q10 2 12 -9q0 -7 26.5 -31t36.5 -29z" />
    <glyph glyph-name="eacute" unicode="&#xe9;" horiz-adv-x="181" 
d="M205 242q9 10 12 -1q1 -5 -1 -10q-14 -22 -62 -53.5t-84 -39.5q-26 -8 -47 3.5t-18 39.5q9 65 62 112q36 32 68 21q20 -8 6 -40t-42 -49q-16 -9 -34.5 -12t-25.5 3q-1 -3 -3.5 -7t-5 -10.5t-3.5 -17.5q0 -5 1 -8.5t2 -6t3.5 -4t4 -2.5t5 -1.5t5 -0.5h6h5.5q27 2 78 32.5
t68 51.5zM73 268q-8 -7 -20 -26q11 -16 37 3q16 11 27 26t6 23q-3 6 -19.5 -3.5t-30.5 -22.5zM92 367q14 -4 48.5 7.5t49.5 20.5q8 7 12 3.5t-1 -12.5q-6 -10 -42 -28t-56 -20q-16 -2 -21 14q-5 14 6 15h4z" />
    <glyph glyph-name="ecircumflex" unicode="&#xea;" horiz-adv-x="181" 
d="M205 242q9 10 12 -1q1 -5 -1 -10q-14 -22 -62 -53.5t-84 -39.5q-26 -8 -47 3.5t-18 39.5q9 65 62 112q36 32 68 21q20 -8 6 -40t-42 -49q-16 -9 -34.5 -12t-25.5 3q-1 -3 -3.5 -7t-5 -10.5t-3.5 -17.5q0 -5 1 -8.5t2 -6t3.5 -4t4 -2.5t5 -1.5t5 -0.5h6h5.5q27 2 78 32.5
t68 51.5zM73 268q-8 -7 -20 -26q11 -16 37 3q16 11 27 26t6 23q-3 6 -19.5 -3.5t-30.5 -22.5zM154 359q-4 -2 -10.5 -4.5t-22 -6t-26.5 -3.5q-15 1 -15 13q0 10 10 10q18 -1 43.5 6.5t26.5 7.5q6 2 10 -1.5t4 -12.5q0 -27 9 -34q5 -5 15 -7q7 -1 6.5 -8.5t-9.5 -8.5
q-22 -3 -35 18t-6 31z" />
    <glyph glyph-name="edieresis" unicode="&#xeb;" horiz-adv-x="181" 
d="M205 242q9 10 12 -1q1 -5 -1 -10q-14 -22 -62 -53.5t-84 -39.5q-26 -8 -47 3.5t-18 39.5q9 65 62 112q36 32 68 21q20 -8 6 -40t-42 -49q-16 -9 -34.5 -12t-25.5 3q-1 -3 -3.5 -7t-5 -10.5t-3.5 -17.5q0 -5 1 -8.5t2 -6t3.5 -4t4 -2.5t5 -1.5t5 -0.5h6h5.5q27 2 78 32.5
t68 51.5zM73 268q-8 -7 -20 -26q11 -16 37 3q16 11 27 26t6 23q-3 6 -19.5 -3.5t-30.5 -22.5zM148 361q-4 -9 -15 -13t-17 1q-9 3 -13.5 13.5t7.5 15.5q10 4 25 -3.5t13 -13.5zM159 340q-2 9 5.5 13t20.5 2q12 -5 15.5 -16.5t-6.5 -18.5q-9 -4 -21 2.5t-14 17.5z" />
    <glyph glyph-name="igrave" unicode="&#xec;" horiz-adv-x="138" 
d="M157 235q15 14 23 5q3 -4 -2 -9q-77 -77 -145 -87q-38 -8 -38 29q0 21 22.5 61.5t32.5 40.5q8 0 13 -4.5t-2 -16.5q-20 -27 -36 -58t1 -30q24 1 54.5 17t40.5 23.5t36 28.5zM94 324q5 -4 4 -9.5t-7.5 -10.5t-13.5 -4q-11 2 -32 30.5t-29 48.5q-6 11 3 14q10 2 12 -9
q0 -7 26.5 -31t36.5 -29z" />
    <glyph glyph-name="iacute" unicode="&#xed;" horiz-adv-x="138" 
d="M157 235q15 14 23 5q3 -4 -2 -9q-77 -77 -145 -87q-38 -8 -38 29q0 21 22.5 61.5t32.5 40.5q8 0 13 -4.5t-2 -16.5q-20 -27 -36 -58t1 -30q24 1 54.5 17t40.5 23.5t36 28.5zM70 333q14 -4 48.5 7.5t49.5 20.5q8 7 12 3.5t-1 -12.5q-6 -10 -42 -28t-56 -20q-16 -2 -21 14
q-5 14 6 15h4z" />
    <glyph glyph-name="icircumflex" unicode="&#xee;" horiz-adv-x="138" 
d="M157 235q15 14 23 5q3 -4 -2 -9q-77 -77 -145 -87q-38 -8 -38 29q0 21 22.5 61.5t32.5 40.5q8 0 13 -4.5t-2 -16.5q-20 -27 -36 -58t1 -30q24 1 54.5 17t40.5 23.5t36 28.5zM81 336q-4 -2 -10.5 -4.5t-22 -6t-26.5 -3.5q-15 1 -15 13q0 10 10 10q18 -1 43.5 6.5t26.5 7.5
q6 2 10 -1.5t4 -12.5q0 -27 9 -34q5 -5 15 -7q7 -1 6.5 -8.5t-9.5 -8.5q-22 -3 -35 18t-6 31z" />
    <glyph glyph-name="idieresis" unicode="&#xef;" horiz-adv-x="138" 
d="M157 235q15 14 23 5q3 -4 -2 -9q-77 -77 -145 -87q-38 -8 -38 29q0 21 22.5 61.5t32.5 40.5q8 0 13 -4.5t-2 -16.5q-20 -27 -36 -58t1 -30q24 1 54.5 17t40.5 23.5t36 28.5zM80 331q-4 -9 -15 -13t-17 1q-9 3 -13.5 13.5t7.5 15.5q10 4 25 -3.5t13 -13.5zM91 310
q-2 9 5.5 13t20.5 2q12 -5 15.5 -16.5t-6.5 -18.5q-9 -4 -21 2.5t-14 17.5z" />
    <glyph glyph-name="eth" unicode="&#xf0;" horiz-adv-x="209" 
d="M166 490q9 9 48.5 32t69.5 35q0 33 -7.5 55t-14.5 26q-11 7 -22 -5t-13 -12q-4 -1 -8 3t-3.5 10.5t5.5 12.5q30 30 52 15q12 -8 23.5 -33.5t13.5 -62.5q48 17 62 17q9 0 10 -4q0 -8 -16 -13l-56 -21q0 -18 -5 -46q-14 -79 -58 -156t-97 -128q-34 -34 -66.5 -55.5
t-44.5 -21.5q-11 -3 -20.5 4.5t-12.5 31.5q-5 38 28.5 84t76.5 61q14 5 23 -12q9 -15 -6 -17q-40 -10 -77 -60t-20 -67q8 -8 41 14t77 72t76 108q52 93 59 177q-5 -2 -13 -6q-41 -19 -93 -58q-8 -3 -13.5 4.5t1.5 15.5z" />
    <glyph glyph-name="ntilde" unicode="&#xf1;" horiz-adv-x="280" 
d="M66 269l-53 -89q97 98 140 125q10 6 18.5 5.5t12.5 -6t1 -12.5q-7 -16 -7 -45q0 -44 21 -58q19 -12 48 2.5t51 36.5q20 20 22 9q1 -7 -7 -16q-61 -69 -112 -57q-26 6 -37 35t-9 55l2 26q-89 -65 -141 -134q-6 -6 -15.5 -6t-15.5 7t-2 15q6 18 29.5 62t32.5 55q6 7 19 1
q8 -4 2 -11zM89 385q7 9 25 13t27 -2q8 -3 11 -23t7 -23q8 -4 24.5 3t21.5 14q3 5 7 -2q5 -7 -4 -15q-33 -25 -55 -15q-10 3 -15.5 21t-7.5 20q-10 10 -35 -15q-6 -5 -11 3q-4 9 5 21z" />
    <glyph glyph-name="ograve" unicode="&#xf2;" horiz-adv-x="225" 
d="M85 272q-19 -5 -37 -29q-10 -15 -16.5 -38t-4.5 -37q5 -30 37 -12q14 7 37 29q-8 12 -7 32q2 31 20.5 61.5t42.5 37.5q19 4 29.5 -4.5t8.5 -24.5q-3 -39 -54 -95q9 0 26 5q34 9 79 43q5 3 9 0.5t4 -7.5t-4 -10q-12 -11 -42.5 -27t-61.5 -22q-21 -4 -29 -2
q-23 -21 -46 -35q-20 -10 -35 -10q-26 0 -34 38q-5 29 10.5 69t38.5 53q26 10 31 -6q2 -6 -2 -9zM135 219q32 38 36 65q1 9 -3.5 11.5t-11.5 -2.5q-12 -8 -27.5 -34.5t-14.5 -44.5q0 -8 4 -14q5 5 17 19zM205 354q5 -4 4 -9.5t-7.5 -10.5t-13.5 -4q-11 2 -32 30.5t-29 48.5
q-6 11 3 14q10 2 12 -9q0 -7 26.5 -31t36.5 -29z" />
    <glyph glyph-name="oacute" unicode="&#xf3;" horiz-adv-x="225" 
d="M85 272q-19 -5 -37 -29q-10 -15 -16.5 -38t-4.5 -37q5 -30 37 -12q14 7 37 29q-8 12 -7 32q2 31 20.5 61.5t42.5 37.5q19 4 29.5 -4.5t8.5 -24.5q-3 -39 -54 -95q9 0 26 5q34 9 79 43q5 3 9 0.5t4 -7.5t-4 -10q-12 -11 -42.5 -27t-61.5 -22q-21 -4 -29 -2
q-23 -21 -46 -35q-20 -10 -35 -10q-26 0 -34 38q-5 29 10.5 69t38.5 53q26 10 31 -6q2 -6 -2 -9zM135 219q32 38 36 65q1 9 -3.5 11.5t-11.5 -2.5q-12 -8 -27.5 -34.5t-14.5 -44.5q0 -8 4 -14q5 5 17 19zM95 371q14 -4 48.5 7.5t49.5 20.5q8 7 12 3.5t-1 -12.5
q-6 -10 -42 -28t-56 -20q-16 -2 -21 14q-5 14 6 15h4z" />
    <glyph glyph-name="ocircumflex" unicode="&#xf4;" horiz-adv-x="225" 
d="M85 272q-19 -5 -37 -29q-10 -15 -16.5 -38t-4.5 -37q5 -30 37 -12q14 7 37 29q-8 12 -7 32q2 31 20.5 61.5t42.5 37.5q19 4 29.5 -4.5t8.5 -24.5q-3 -39 -54 -95q9 0 26 5q34 9 79 43q5 3 9 0.5t4 -7.5t-4 -10q-12 -11 -42.5 -27t-61.5 -22q-21 -4 -29 -2
q-23 -21 -46 -35q-20 -10 -35 -10q-26 0 -34 38q-5 29 10.5 69t38.5 53q26 10 31 -6q2 -6 -2 -9zM135 219q32 38 36 65q1 9 -3.5 11.5t-11.5 -2.5q-12 -8 -27.5 -34.5t-14.5 -44.5q0 -8 4 -14q5 5 17 19zM160 375q-4 -2 -10.5 -4.5t-22 -6t-26.5 -3.5q-15 1 -15 13
q0 10 10 10q18 -1 43.5 6.5t26.5 7.5q6 2 10 -1.5t4 -12.5q0 -27 9 -34q5 -5 15 -7q7 -1 6.5 -8.5t-9.5 -8.5q-22 -3 -35 18t-6 31z" />
    <glyph glyph-name="otilde" unicode="&#xf5;" horiz-adv-x="225" 
d="M85 272q-19 -5 -37 -29q-10 -15 -16.5 -38t-4.5 -37q5 -30 37 -12q14 7 37 29q-8 12 -7 32q2 31 20.5 61.5t42.5 37.5q19 4 29.5 -4.5t8.5 -24.5q-3 -39 -54 -95q9 0 26 5q34 9 79 43q5 3 9 0.5t4 -7.5t-4 -10q-12 -11 -42.5 -27t-61.5 -22q-21 -4 -29 -2
q-23 -21 -46 -35q-20 -10 -35 -10q-26 0 -34 38q-5 29 10.5 69t38.5 53q26 10 31 -6q2 -6 -2 -9zM135 219q32 38 36 65q1 9 -3.5 11.5t-11.5 -2.5q-12 -8 -27.5 -34.5t-14.5 -44.5q0 -8 4 -14q5 5 17 19zM103 385q7 9 25 13t27 -2q8 -3 11 -23t7 -23q8 -4 24.5 3t21.5 14
q3 5 7 -2q5 -7 -4 -15q-33 -25 -55 -15q-10 3 -15.5 21t-7.5 20q-10 10 -35 -15q-6 -5 -11 3q-4 9 5 21z" />
    <glyph glyph-name="odieresis" unicode="&#xf6;" horiz-adv-x="225" 
d="M85 272q-19 -5 -37 -29q-10 -15 -16.5 -38t-4.5 -37q5 -30 37 -12q14 7 37 29q-8 12 -7 32q2 31 20.5 61.5t42.5 37.5q19 4 29.5 -4.5t8.5 -24.5q-3 -39 -54 -95q9 0 26 5q34 9 79 43q5 3 9 0.5t4 -7.5t-4 -10q-12 -11 -42.5 -27t-61.5 -22q-21 -4 -29 -2
q-23 -21 -46 -35q-20 -10 -35 -10q-26 0 -34 38q-5 29 10.5 69t38.5 53q26 10 31 -6q2 -6 -2 -9zM135 219q32 38 36 65q1 9 -3.5 11.5t-11.5 -2.5q-12 -8 -27.5 -34.5t-14.5 -44.5q0 -8 4 -14q5 5 17 19zM162 379q-4 -9 -15 -13t-17 1q-9 3 -13.5 13.5t7.5 15.5
q10 4 25 -3.5t13 -13.5zM173 358q-2 9 5.5 13t20.5 2q12 -5 15.5 -16.5t-6.5 -18.5q-9 -4 -21 2.5t-14 17.5z" />
    <glyph glyph-name="divide" unicode="&#xf7;" horiz-adv-x="310" 
d="M237 271q-13 3 -49 3q-24 0 -39 -1q-19 -1 -54 -7t-45 -4q-12 2 -14 9.5t9 13.5q21 13 114 13q60 4 105 -10q12 -2 13.5 -9t-10.5 -13q-8 -2 -14.5 -1t-10.5 3zM157 322q-4 3 -4.5 7.5t1.5 7.5l1 3l5 7q2 5 2.5 6.5t3.5 2.5t8 1q7 -2 10 -10t0 -15q-19 -19 -27 -10z
M125 214q-4 2 -4.5 6.5t0.5 7.5l1 4l3 2q5 14 16 14q5 -1 9 -9.5t4 -16.5t-5 -8l-8 -4t-9 -2t-7 6z" />
    <glyph glyph-name="oslash" unicode="&#xf8;" horiz-adv-x="188" 
d="M181 294q5 0 8 -5t1 -11t-9 -7q-1 0 -2 -1q6 -15 5 -28q-6 -32 -37.5 -58t-70.5 -38q-20 -6 -33 -6q-17 0 -28 8l-2 -2q-8 -7 -15 1q-4 4 0 8q1 1 3 3.5t4 4.5q-2 9 -1 15q4 37 33.5 71t50.5 42q18 7 24 -6q5 -9 -4 -11l-8 -6l-13.5 -9.5t-16.5 -13.5t-18 -18t-16 -21.5
t-12 -24.5q0 -1 -0.5 -1t-0.5 -1q64 55 129 98q-11 11 -18 8q-5 -2 -9 -6t-5 -6.5t0 -4.5q3 -2 1 -2q-6 2 -7 11q0 8 9 18t20 8q12 0 25 -16q10 7 13 7zM160 236q4 10 2 23q-74 -51 -128 -95q15 -6 37 3q26 7 52.5 26t36.5 43z" />
    <glyph glyph-name="ugrave" unicode="&#xf9;" horiz-adv-x="254" 
d="M271 233q13 14 20 9q5 -5 -2 -16q-15 -22 -47 -47t-57 -31q-19 -7 -27 -3.5t-14 20.5q-3 10 -1.5 22.5t5.5 23.5l4 11q-45 -50 -97 -74q-14 -8 -28.5 -2t-20.5 25q-5 22 12 62t31 56q14 14 28 6q10 -6 1 -17q-25 -26 -44 -75q-15 -39 3 -36q2 0 4 1q28 10 76 53t48 58
q0 9 13 8q16 -1 15 -15q0 -2 -1 -4q-1 -5 -5.5 -17.5l-9.5 -26t-8.5 -26.5t-3 -21.5t7.5 -8.5q18 0 46.5 19t51.5 46zM168 334q5 -4 4 -9.5t-7.5 -10.5t-13.5 -4q-11 2 -32 30.5t-29 48.5q-6 11 3 14q10 2 12 -9q0 -7 26.5 -31t36.5 -29z" />
    <glyph glyph-name="uacute" unicode="&#xfa;" horiz-adv-x="254" 
d="M271 233q13 14 20 9q5 -5 -2 -16q-15 -22 -47 -47t-57 -31q-19 -7 -27 -3.5t-14 20.5q-3 10 -1.5 22.5t5.5 23.5l4 11q-45 -50 -97 -74q-14 -8 -28.5 -2t-20.5 25q-5 22 12 62t31 56q14 14 28 6q10 -6 1 -17q-25 -26 -44 -75q-15 -39 3 -36q2 0 4 1q28 10 76 53t48 58
q0 9 13 8q16 -1 15 -15q0 -2 -1 -4q-1 -5 -5.5 -17.5l-9.5 -26t-8.5 -26.5t-3 -21.5t7.5 -8.5q18 0 46.5 19t51.5 46zM104 353q14 -4 48.5 7.5t49.5 20.5q8 7 12 3.5t-1 -12.5q-6 -10 -42 -28t-56 -20q-16 -2 -21 14q-5 14 6 15h4z" />
    <glyph glyph-name="ucircumflex" unicode="&#xfb;" horiz-adv-x="254" 
d="M271 233q13 14 20 9q5 -5 -2 -16q-15 -22 -47 -47t-57 -31q-19 -7 -27 -3.5t-14 20.5q-3 10 -1.5 22.5t5.5 23.5l4 11q-45 -50 -97 -74q-14 -8 -28.5 -2t-20.5 25q-5 22 12 62t31 56q14 14 28 6q10 -6 1 -17q-25 -26 -44 -75q-15 -39 3 -36q2 0 4 1q28 10 76 53t48 58
q0 9 13 8q16 -1 15 -15q0 -2 -1 -4q-1 -5 -5.5 -17.5l-9.5 -26t-8.5 -26.5t-3 -21.5t7.5 -8.5q18 0 46.5 19t51.5 46zM147 366q-4 -2 -10.5 -4.5t-22 -6t-26.5 -3.5q-15 1 -15 13q0 10 10 10q18 -1 43.5 6.5t26.5 7.5q6 2 10 -1.5t4 -12.5q0 -27 9 -34q5 -5 15 -7
q7 -1 6.5 -8.5t-9.5 -8.5q-22 -3 -35 18t-6 31z" />
    <glyph glyph-name="udieresis" unicode="&#xfc;" horiz-adv-x="254" 
d="M271 233q13 14 20 9q5 -5 -2 -16q-15 -22 -47 -47t-57 -31q-19 -7 -27 -3.5t-14 20.5q-3 10 -1.5 22.5t5.5 23.5l4 11q-45 -50 -97 -74q-14 -8 -28.5 -2t-20.5 25q-5 22 12 62t31 56q14 14 28 6q10 -6 1 -17q-25 -26 -44 -75q-15 -39 3 -36q2 0 4 1q28 10 76 53t48 58
q0 9 13 8q16 -1 15 -15q0 -2 -1 -4q-1 -5 -5.5 -17.5l-9.5 -26t-8.5 -26.5t-3 -21.5t7.5 -8.5q18 0 46.5 19t51.5 46zM135 363q-4 -9 -15 -13t-17 1q-9 3 -13.5 13.5t7.5 15.5q10 4 25 -3.5t13 -13.5zM146 342q-2 9 5.5 13t20.5 2q12 -5 15.5 -16.5t-6.5 -18.5
q-9 -4 -21 2.5t-14 17.5z" />
    <glyph glyph-name="yacute" unicode="&#xfd;" horiz-adv-x="249" 
d="M82 286q-59 -67 -59 -106q0 -29 29 -16t75 63.5t53 75.5q5 11 17 1q11 -8 9 -21q-9 -53 -32 -125l37.5 29.5l35 28t22.5 22.5q13 14 19 6q4 -5 -3 -15q-10 -14 -123 -108l-5.5 -14t-4.5 -13q-66 -168 -153 -227q-26 -17 -49 -17q-17 0 -25 10t-3 29q6 33 46 82t90 93
l87 69q12 33 19 62.5t8 42.5l2 13q-69 -90 -113 -110q-27 -12 -46.5 1.5t-14.5 38.5q4 50 49 110q7 12 26 10q18 -2 7 -15zM81 54q-42 -34 -82.5 -81t-52.5 -72q-12 -23 1 -29t35 8q25 11 65 63.5t65 109.5q3 6 18 41q-32 -27 -49 -40zM112 371q14 -4 48.5 7.5t49.5 20.5
q8 7 12 3.5t-1 -12.5q-6 -10 -42 -28t-56 -20q-16 -2 -21 14q-5 14 6 15h4z" />
    <glyph glyph-name="thorn" unicode="&#xfe;" horiz-adv-x="252" 
d="M264 236q34 19 26 3q-1 -3 -3 -6q-28 -34 -140 -56q-10 -4 -18 -9.5t-16.5 -12t-14.5 -10.5q-14 -8 -26 5t-9 24q1 6 11.5 9t23 3.5t14.5 1.5q21 7 50.5 38.5t33.5 54.5q2 12 -5 18t-20 6q-29 0 -59 -24q-43 -36 -71.5 -85t-81.5 -174q-23 -54 -38 -98q-5 -15 -13 -9
q-9 6 -7 29q3 9 19.5 49.5l36.5 89l27 65.5q3 6 13.5 31l29 68.5l34.5 80.5q46 104 108 229q3 8 9 13.5t10.5 0t3.5 -25.5q-6 -55 -110 -234q-24 -44 -31 -65q1 2 8 10.5t22 23.5t31 26q26 19 61 19q26 0 39.5 -13.5t4.5 -40.5q-6 -17 -17.5 -33.5t-20.5 -23.5l-9 -8
q45 2 94 30z" />
    <glyph glyph-name="ydieresis" unicode="&#xff;" horiz-adv-x="249" 
d="M82 286q-59 -67 -59 -106q0 -29 29 -16t75 63.5t53 75.5q5 11 17 1q11 -8 9 -21q-9 -53 -32 -125l37.5 29.5l35 28t22.5 22.5q13 14 19 6q4 -5 -3 -15q-10 -14 -123 -108l-5.5 -14t-4.5 -13q-66 -168 -153 -227q-26 -17 -49 -17q-17 0 -25 10t-3 29q6 33 46 82t90 93
l87 69q12 33 19 62.5t8 42.5l2 13q-69 -90 -113 -110q-27 -12 -46.5 1.5t-14.5 38.5q4 50 49 110q7 12 26 10q18 -2 7 -15zM81 54q-42 -34 -82.5 -81t-52.5 -72q-12 -23 1 -29t35 8q25 11 65 63.5t65 109.5q3 6 18 41q-32 -27 -49 -40zM121 370q-4 -9 -15 -13t-17 1
q-9 3 -13.5 13.5t7.5 15.5q10 4 25 -3.5t13 -13.5zM132 349q-2 9 5.5 13t20.5 2q12 -5 15.5 -16.5t-6.5 -18.5q-9 -4 -21 2.5t-14 17.5z" />
    <glyph glyph-name="dotlessi" unicode="&#x131;" horiz-adv-x="138" 
d="M157 235q15 14 23 5q3 -4 -2 -9q-77 -77 -145 -87q-38 -8 -38 29q0 21 22.5 61.5t32.5 40.5q8 0 13 -4.5t-2 -16.5q-20 -27 -36 -58t1 -30q24 1 54.5 17t40.5 23.5t36 28.5z" />
    <glyph glyph-name="Lslash" unicode="&#x141;" horiz-adv-x="356" 
d="M298 455q-29 -7 -84 -70q-28 -31 -103 -135q-35 -100 -56 -178q-5 -30 21 -30q12 0 55 16l60.5 25.5l88.5 38t45 23.5q13 8 16.5 5.5t2 -8t-6.5 -11.5q-11 -11 -195 -91q-58 -25 -86 -25q-26 0 -30 22q-3 25 32 141l-50 -71q6 -9 -3 -21l-8.5 -12.5t-11.5 -14.5t-9 -5
q-10 -2 -16 7t1 22q3 5 23.5 31t40.5 56l55 77q32 98 72.5 195.5t50.5 108.5q11 10 28 -2q10 -6 4 -10q-4 -4 -7 -12l-9 -24t-13 -31q-6 -15 -11 -35.5t-8 -34t-4 -14.5q-6 -3 -6 29l-38 -93l27 35.5l24.5 32t11.5 16.5q7 9 18.5 22.5l20 23.5t10.5 15q8 8 19 12t19 -3
q20 -20 9 -23z" />
    <glyph glyph-name="lslash" unicode="&#x142;" horiz-adv-x="178" 
d="M324 520q-26 2 -86 -26q-26 -72 -104 -169q-54 -68 -93 -102q-4 -24 -4 -31q0 -34 35 -28q33 6 72 30.5t52 40.5q13 13 17 5q3 -7 -8 -20q-18 -22 -63.5 -49.5t-80.5 -31.5q-45 -5 -45 56q0 23 5 46q12 67 47 146q-10 -8 -20 -13.5t-14 -7.5l-5 -2q2 -10 -11 -18
l-9.5 -6.5t-11 -7t-10 -4.5t-8.5 -1q-10 2 -12 10t9 16q6 4 34 20.5t57 37.5q1 1 8 6t11 7q44 90 91 144q29 32 48 32q28 0 25 -55q0 -3 -1 -8.5t-1 -8.5q7 4 20.5 8t16.5 7q9 5 22.5 4t16.5 -10q8 -17 2 -17h-2zM129 354q47 63 77 123q-35 -19 -97 -62q-47 -93 -63 -159
q49 52 83 98zM229 545q2 18 -2.5 24.5t-14 1t-23.5 -22.5q-34 -45 -60 -95q79 51 88 58q1 0 3 2q7 18 9 32z" />
    <glyph glyph-name="OE" unicode="&#x152;" horiz-adv-x="817" 
d="M827 169q13 15 20 9t-6 -20q-149 -158 -353 -164q-63 -1 -98 24t-35 71q0 8 2 26q-14 3 -25 9q-98 -91 -224 -119q-17 -4 -37 -4q-40 0 -66.5 21t-30.5 58q-4 50 31 134t81 146q99 135 155 144q24 6 32.5 -8t-0.5 -30q-11 -25 -38 -32q-19 -10 -19 -5q0 1 2 5q0 4 7 10.5
t15 11.5l7 4q-15 8 -76 -47q-53 -48 -98.5 -129.5t-66.5 -156.5q-5 -17 -5 -37q0 -33 20 -48.5t50 -15.5q17 0 37 5q62 18 117.5 48.5t83.5 61.5q-9 9 -12 15q-21 28 -21 81q0 65 30 138.5t71 108.5q53 45 89 45q37 0 48 -48q4 -17 4 -40q0 -43 -19 -95q26 25 56 47
q141 101 203 101q18 0 30 -10t14 -20l3 -10q6 9 15 9q3 0 7 -5t4 -10q0 -2 -9 -11.5l-20 -21t-15 -19.5q-5 -6 -7 -13.5l-3 -11.5t-4.5 -7t-11.5 -3q-23 0 -23 13q0 10 19 44t19 35q0 10 -25 10q-71 0 -197 -104q-128 -106 -165 -224q13 0 21 1q47 4 94.5 32.5t75.5 59.5
q16 16 27 13q7 -2 -3 -16q-30 -41 -94.5 -79.5t-127.5 -34.5q-1 -4 -1 -12q-3 -40 24 -62.5t91 -19.5q60 3 118 21t100 44t69.5 47.5t43.5 39.5zM329 159q2 1 5 3.5t4 4.5q146 136 150 273q0 58 -27 58q-13 0 -34 -12q-84 -47 -125 -214q-4 -16 -4 -33q0 -49 31 -80z
M353 144l10 -5l3.5 10t3.5 11q-3 -3 -9 -8.5t-8 -7.5z" />
    <glyph glyph-name="oe" unicode="&#x153;" horiz-adv-x="339" 
d="M361 239q9 10 12 -1q1 -5 -1 -10q-14 -22 -63.5 -56.5t-84.5 -42.5q-26 -8 -47 3.5t-18 39.5q2 16 5 23q-15 -3 -26 0l-18 -18l-25.5 -25t-18.5 -15q-20 -10 -35 -10q-26 0 -34 38q-5 29 10.5 69t38.5 53q26 10 31 -6q2 -6 -2 -9q-23 -6 -35 -29q-11 -13 -17.5 -34.5
t-4.5 -36.5q5 -30 37 -12q5 3 14.5 11.5t21.5 20.5l16 16q-8 12 -7 32q3 64 47 76q19 4 28.5 -4.5t9.5 -24.5q0 -30 -38 -72q3 0 15 2q17 37 49 67q19 18 41 23.5t27 -2.5q14 -13 0 -41t-41 -45q-32 -18 -56 -20q-1 -3 -4 -8t-4.5 -10.5t-1.5 -13.5q0 -18 31 -18
q26 2 78 35.5t70 54.5zM161 256q15 20 12 34q-2 10 -17 3q-12 -5 -19.5 -21t-6.5 -35q0 -8 4 -14q3 3 14 17t13 16zM229 261q-2 -2 -25 -38q20 3 46 26.5t24 34.5t-31 -10q-8 -6 -14 -13z" />
    <glyph glyph-name="Scaron" unicode="&#x160;" horiz-adv-x="433" 
d="M238 637q-5 -11 -6 -30t3 -22q4 -4 37.5 4t46.5 16q4 4 4 0q-1 -13 -14 -22q-1 0 -2 -1q-9 -7 -75 -23q-16 -5 -20 17q-7 35 3 58q2 14 14 14q11 0 9 -11zM444 232q29 19 29 11q1 -4 -2 -11q-7 -19 -73.5 -51t-110.5 -42q-4 -51 -41 -107t-107 -96q-34 -19 -56 -19
q-32 0 -32 36q0 32 28 74q30 46 81.5 78.5t103.5 49.5q0 14 -3 20q-4 31 -47.5 66t-95.5 65t-59 37q-23 20 -23 46q0 27 26 50q42 38 134.5 67.5t156.5 33.5q26 3 55 -5.5t34 -28.5q4 -28 3 -32t-10 -23q-9 -18 -9 -29q0 -5 -5 -13t-10 -13l-5 -6q-6 -5 -10 -3t-5 3t-3.5 7
t-4.5 10q-1 7 3 16.5t17 29t14 21.5q11 17 -4 29t-42 12q-67 0 -148.5 -25t-134.5 -64q-27 -19 -27 -38q0 -5 2 -10t7 -10.5t9.5 -9.5t13 -9.5l14 -9l16 -10l15.5 -9.5q30 -19 48.5 -32t46 -35.5t41.5 -45.5t13 -45q71 15 157 70zM121 -50q122 67 143 181q-38 -11 -91.5 -46
t-78.5 -75q-19 -33 -19 -52q0 -32 46 -8z" />
    <glyph glyph-name="scaron" unicode="&#x161;" horiz-adv-x="175" 
d="M75 414q-5 -11 -6 -30t3 -22q4 -4 37.5 4t46.5 16q4 4 4 0q-1 -13 -14 -22q-1 0 -2 -1q-9 -7 -75 -23q-16 -5 -20 17q-7 35 3 58q2 14 14 14q11 0 9 -11zM88 293q-10 -2 -28 -19.5t-17 -24.5q2 -14 28.5 -42t27.5 -37q51 22 98 70q14 14 17 2q0 -6 -3 -10
q-10 -18 -45 -44.5t-64 -40.5q-7 -22 -43 -32q-28 -6 -46 9q-9 8 -1 14q6 3 30 10t34 15q3 11 -28.5 42.5t-28.5 48.5q2 21 22.5 42t29.5 20q8 0 13.5 -5.5t5.5 -10.5t-2 -7z" />
    <glyph glyph-name="Ydieresis" unicode="&#x178;" horiz-adv-x="500" 
d="M355 533q-4 -9 -15 -13t-17 1q-9 3 -13.5 13.5t7.5 15.5q10 4 25 -3.5t13 -13.5zM366 512q-2 9 5.5 13t20.5 2q12 -5 15.5 -16.5t-6.5 -18.5q-9 -4 -21 2.5t-14 17.5zM196 486q-16 21 -4 28q12 6 24 -8t1 -36q-11 -21 -58.5 -85.5t-71.5 -103.5q-15 -23 -27 -49
t-16 -42.5t1 -19.5q27 -9 186 79q81 45 172.5 111t103.5 93q11 26 31 13q19 -12 14 -36l-2 -8l-26.5 -55l-59 -117.5l-65.5 -120.5q64 -3 113 -26t67 -58q7 -13 7 -30q0 -20 -9.5 -34t-24.5 -14t-14 11q2 13 21 19q19 13 -2 44.5t-58 45.5q-51 20 -112 20q-34 -56 -57 -87
q-82 -114 -163 -170t-148 -43q-38 8 -38 48q0 43 45.5 100.5t132.5 108.5q105 62 213 65q28 48 64.5 120l59.5 120l23 48q-166 -137 -280 -189l-57.5 -30.5l-56.5 -29.5t-43 -18.5t-37 -8.5q-21 0 -29 17q-6 14 7 48t31 62zM268 86q-174 -66 -244 -180q-16 -23 -16 -46
q0 -34 37 -34q19 0 49 12q69 30 138.5 104t125.5 164q-45 -3 -90 -20z" />
    <glyph glyph-name="Zcaron" unicode="&#x17d;" horiz-adv-x="402" 
d="M291 623q-5 -11 -6 -30t3 -22q4 -4 37.5 4t46.5 16q4 4 4 0q-1 -13 -14 -22q-1 0 -2 -1q-9 -7 -75 -23q-16 -5 -20 17q-7 35 3 58q2 14 14 14q11 0 9 -11zM203 487q16 1 74.5 15.5t86.5 18.5q50 5 59 5q23 0 33.5 -7.5t2.5 -26.5q-4 -13 -28 -36t-62 -52l-73.5 -54.5
l-77 -54t-57.5 -40.5q-73 -54 -124 -102.5t-36 -64.5q14 -18 56 -18q40 0 108 14q150 29 187 66q30 30 24 8q-1 -5 -4 -11q-14 -39 -135.5 -72t-188.5 -30q-78 3 -78 46q0 14 11 36q19 36 114.5 110t160.5 116q41 27 104 78t67 61q1 4 -3.5 5.5t-13 1.5t-18.5 -0.5
t-22.5 -2.5l-22.5 -3.5t-21 -3.5q-19 -4 -51 -13.5t-54.5 -14t-39.5 -0.5q-16 4 -18 15.5t9 15.5q5 3 15 -1t16 -4z" />
    <glyph glyph-name="zcaron" unicode="&#x17e;" horiz-adv-x="158" 
d="M179 231q13 15 20 8q4 -4 -4 -14l-92 -112q-20 -116 -46 -163q-29 -62 -64.5 -99t-57.5 -37q-27 3 -27 33q0 17 9 40q26 75 108 171l23.5 29.5t33.5 39.5l4 55q-81 -41 -93 -53q-6 -6 -17 1t-9 18q36 65 55 95q35 66 52 79q9 8 18 2t2 -17q-4 -9 -15.5 -26l-29 -41.5
l-27.5 -39.5l-27 -42q88 48 94 51q7 2 16.5 -3t9.5 -15q0 -3 -1 -7.5t-2.5 -13t-2.5 -17.5q34 42 70 78zM60 16q14 52 16 68q-57 -73 -69 -87q-67 -90 -75 -128q-6 -24 0 -28.5t17 2.5q64 38 111 173zM106 445q-5 -11 -6 -30t3 -22q4 -4 37.5 4t46.5 16q4 4 4 0
q-1 -13 -14 -22q-1 0 -2 -1q-9 -7 -75 -23q-16 -5 -20 17q-7 35 3 58q2 14 14 14q11 0 9 -11z" />
    <glyph glyph-name="florin" unicode="&#x192;" horiz-adv-x="352" 
d="M-28 199q22 -5 133 14h2q101 229 123 261q16 23 38 23q28 0 43 -26q9 -14 18 -52q3 -17 -8 -24q-7 -5 -10 4q-12 68 -39 68q-13 0 -27 -16q-23 -32 -109 -232q65 16 91 35q11 6 17 -9q7 -19 -11 -26q-91 -32 -113 -36q-16 -33 -50 -111.5l-62 -142t-39 -81.5
q-14 -25 -30 -25q-14 0 -25 19q-10 15 -7 28t13 13q5 -1 9 -15t11 -14q13 0 128 269q11 27 24 56q-86 -13 -108 -9q-17 2 -20 19q0 10 8 10z" />
    <glyph glyph-name="circumflex" unicode="&#x2c6;" horiz-adv-x="172" 
d="M92 540q-4 -2 -10.5 -4.5t-22 -6t-26.5 -3.5q-15 1 -15 13q0 10 10 10q18 -1 43.5 6.5t26.5 7.5q6 2 10 -1.5t4 -12.5q0 -27 9 -34q5 -5 15 -7q7 -1 6.5 -8.5t-9.5 -8.5q-22 -3 -35 18t-6 31z" />
    <glyph glyph-name="caron" unicode="&#x2c7;" horiz-adv-x="156" 
d="M52 553q-5 -11 -6 -30t3 -22q4 -4 37.5 4t46.5 16q4 4 4 0q-1 -13 -14 -22q-1 0 -2 -1q-9 -7 -75 -23q-16 -5 -20 17q-7 35 3 58q2 14 14 14q11 0 9 -11z" />
    <glyph glyph-name="breve" unicode="&#x2d8;" horiz-adv-x="140" 
d="M39 546q-16 -41 11 -47q9 -2 20 1.5t18.5 8.5t18.5 14t13 11q7 7 8 -4q1 -8 -4 -14q-14 -17 -42 -29.5t-45 -6.5q-8 3 -15.5 21t-2.5 42q3 13 14 12q8 0 6 -9z" />
    <glyph glyph-name="dotaccent" unicode="&#x2d9;" horiz-adv-x="123" 
d="M46 515q-4 3 -5 8t1 9l1 3l3 3q5 15 18 15q9 -2 13 -19t-4 -19l-7.5 -2.5t-7 -2.5t-6 0t-6.5 5z" />
    <glyph glyph-name="ring" unicode="&#x2da;" horiz-adv-x="174" 
d="M37 518q6 11 19.5 20.5t26.5 10.5q35 2 55 -22q13 -18 13 -32t-12 -29q-21 -27 -67 -27q-21 0 -32 7q-13 8 -13 29q0 19 8 33q-2 5 2 10zM57 502q-12 -12 -12 -27q0 -19 35 -18q16 1 33 12t19 23q2 11 -8.5 23.5t-23.5 14.5q-22 4 -41 -15q5 -5 -2 -13z" />
    <glyph glyph-name="ogonek" unicode="&#x2db;" horiz-adv-x="174" 
d="M90 137q-21 -21 -32 -46q-7 -9 -5.5 -20.5t22.5 -14.5q33 -5 67 12q7 3 7 -1q0 -3 -5 -8q-24 -20 -70 -17q-23 2 -34 14t-3 35q8 24 18.5 38.5t16.5 16.5q13 3 19 -4q1 -3 -1 -5z" />
    <glyph glyph-name="tilde" unicode="&#x2dc;" horiz-adv-x="170" 
d="M23 541q7 9 25 13t27 -2q8 -3 11 -23t7 -23q8 -4 24.5 3t21.5 14q3 5 7 -2q5 -7 -4 -15q-33 -25 -55 -15q-10 3 -15.5 21t-7.5 20q-10 10 -35 -15q-6 -5 -10 3q-5 9 4 21z" />
    <glyph glyph-name="hungarumlaut" unicode="&#x2dd;" horiz-adv-x="241" 
d="M221 516q-15 -1 -61.5 -37.5t-57.5 -50.5q-4 -9 -9 -7.5t-4 11.5q1 12 45 57t62 55q14 9 27 -8q11 -15 -2 -20zM146 530q-15 -1 -61.5 -37.5t-57.5 -50.5q-4 -9 -9 -7.5t-4 11.5q1 12 45 57t62 55q14 9 27 -8q11 -15 -2 -20z" />
    <glyph glyph-name="pi" unicode="&#x3c0;" horiz-adv-x="500" 
d="M72 329q-1 -4 1.5 -19t-4.5 -19q-9 -11 -15 -8t-8 14q-5 19 14 55q4 9 11.5 20t24.5 27t48 28t70 15q22 1 54 -4.5t68 -14.5t43 -10q58 -8 75 -3q21 8 23 -3q2 -6 -5 -11q-15 -11 -43 -11q-27 0 -85 13v-2q0 -8 -16 -42t-19 -54q0 -1 -3.5 -21.5t-3.5 -31.5q0 -39 31 -43
q48 -8 87 12q7 1 12.5 -3t4 -10t-11.5 -10q-53 -16 -95 -9q-31 5 -44 23t-11 55q3 32 20 83.5t17 55.5q0 3 1 4q-47 10 -79 13q-26 -83 -61 -144l-36 -57.5l-27 -40.5l-9 -12q3 1 5 1.5t0 -4.5q-7 -11 -34 -23q-11 -8 -16 5q-5 11 4 21l12 12.5l19.5 21t26.5 35t35 55.5
q17 30 30 71.5t13 58.5q-35 -4 -63.5 -23t-41 -35t-19.5 -31z" />
    <glyph glyph-name="endash" unicode="&#x2013;" horiz-adv-x="344" 
d="M263 238q-14 3 -54 3q-26 0 -43 -1q-21 -1 -60 -8t-50 -4q-13 2 -15.5 10t9.5 15q25 15 127 15q64 4 116 -11q13 -2 15 -10t-11 -15q-9 -2 -16.5 -0.5t-12.5 4.5z" />
    <glyph glyph-name="emdash" unicode="&#x2014;" horiz-adv-x="426" 
d="M340 244q-14 3 -54 3q-26 0 -43 -1q-18 -1 -62.5 -6.5t-80 -9.5t-44.5 -2q-13 2 -15.5 10t9.5 15q8 5 41.5 8.5t93 7.5t69.5 5q64 4 116 -11q13 -2 15 -10t-11 -15q-9 -2 -16.5 -0.5t-12.5 4.5z" />
    <glyph glyph-name="quoteleft" unicode="&#x2018;" horiz-adv-x="112" 
d="M64 409q6 -6 -5 -12q-11 -5 -18 2q-7 8 -10 28.5t2 35.5q6 36 31 41q11 3 13 -6q2 -5 -4 -8q-13 -9 -17 -27q-4 -10 -0.5 -29t8.5 -25z" />
    <glyph glyph-name="quoteright" unicode="&#x2019;" horiz-adv-x="137" 
d="M126 513q-4 9 1 16t13 6t12 -11q8 -11 -1 -45.5t-19 -52.5q-4 -15 -13 -14q-6 1 -4 8q6 11 11 41.5t0 51.5z" />
    <glyph glyph-name="quotesinglbase" unicode="&#x201a;" horiz-adv-x="94" 
d="M34 158q-4 9 1 16t13 6t12 -11q8 -11 -1 -45.5t-19 -52.5q-4 -15 -13 -14q-6 1 -4 8q6 11 11 41.5t0 51.5z" />
    <glyph glyph-name="quotedblleft" unicode="&#x201c;" horiz-adv-x="165" 
d="M60 432q0 -10 -6.5 -14.5t-13.5 -0.5t-8 14q-4 16 0.5 49.5t20.5 44.5q18 9 22 -3q2 -5 -3 -7q-14 -7 -14 -37q0 -9 1 -25t1 -21zM117 409q6 -6 -5 -12q-11 -5 -18 2q-7 8 -10 28.5t2 35.5q6 36 31 41q11 3 13 -6q2 -5 -4 -8q-13 -9 -17 -27q-4 -10 -0.5 -29t8.5 -25z
" />
    <glyph glyph-name="quotedblright" unicode="&#x201d;" horiz-adv-x="199" 
d="M119 496q-7 17 -7 24t10 11q7 3 14 -5t9 -24q2 -17 -9 -41t-26 -37q-14 -13 -20 -5q-3 5 3 11q9 5 20 28t6 38zM185 517q-4 9 1 16t13 6t12 -11q8 -11 -1 -45.5t-19 -52.5q-4 -15 -13 -14q-6 1 -4 8q6 11 11 41.5t0 51.5z" />
    <glyph glyph-name="quotedblbase" unicode="&#x201e;" horiz-adv-x="162" 
d="M34 151q-8 17 -8 24t11 11q7 3 14 -5t9 -24q2 -17 -9 -41t-26 -37q-14 -13 -20 -5q-3 5 3 11q9 5 20 28t6 38zM100 172q-4 9 1 16t13 6t12 -11q8 -11 -1 -45.5t-19 -52.5q-4 -15 -13 -14q-6 1 -4 8q6 11 11 41.5t0 51.5z" />
    <glyph glyph-name="dagger" unicode="&#x2020;" horiz-adv-x="362" 
d="M45 394q2 0 16 -4t29.5 -5t38.5 0q13 0 43 2q11 64 12 74q2 9 3.5 40t8.5 41q4 8 12.5 9.5t15 -3.5t5.5 -12q0 -6 -10.5 -36t-13.5 -51q-1 -3 -2.5 -11.5t-4.5 -23t-5 -26.5q42 4 64 9q60 13 66 12q14 -6 12 -20q-1 -7 -6 -7q-15 7 -46 0q-29 -5 -93 -12
q-54 -319 -54 -327t4 -15.5t2 -13.5q-2 -8 -12.5 -8t-14.5 8q-3 7 0.5 32.5t12 71t10.5 61.5q9 66 31 188q-36 -4 -46 -5q-12 -1 -31 -1q-26 0 -44 7q-14 6 -14 19q1 9 11 7z" />
    <glyph glyph-name="daggerdbl" unicode="&#x2021;" horiz-adv-x="346" 
d="M64 176q20 -6 64 -4q1 4 2.5 13t2.5 13l31 188q-19 -3 -34 -3q-12 -2 -32 -2q-16 0 -55 7q-13 6 -12 19q0 9 9 7q2 0 17 -4t30.5 -5t36.5 0q28 0 43 1l16 84q0 7 1 26t2 29t5 17q7 12 21 9t14 -15l-11.5 -34t-14.5 -53q-3 -13 -11 -60q26 3 63 8q13 1 36 7t31 5
q6 -1 9.5 -8t3 -13t-3.5 -6q-20 7 -50 0q-35 -6 -93 -14l-37 -215q30 2 64 13t37 11q22 6 22 -3q0 -2 -4 -6q-29 -22 -96 -32q-11 -2 -27 -4q-14 -88 -14 -89q0 -8 4.5 -15.5t1.5 -13.5q-2 -9 -12 -9t-14 9q-6 16 14 116q-43 -3 -78 6q-26 7 -22 25q3 10 11 10q5 0 13 -6.5
t16 -8.5z" />
    <glyph glyph-name="bullet" unicode="&#x2022;" horiz-adv-x="181" 
d="M88 279q44 7 55 -17q9 -17 1.5 -38.5t-27.5 -37.5q-37 -29 -72 -23q-33 10 -21 47q6 25 23.5 45t40.5 24z" />
    <glyph glyph-name="ellipsis" unicode="&#x2026;" horiz-adv-x="345" 
d="M157 159q-4 3 -4.5 8t0.5 9l1 3l3 3q5 15 18 15q9 -2 13 -19t-4 -19q-4 -1 -8 -2.5l-6.5 -2.5t-6 0t-6.5 5zM42 151q-4 3 -5 8t1 9l1 3l6 7q2 7 4.5 9t10.5 2q9 -2 12 -10.5t-1 -16.5q-20 -24 -29 -11zM283 156q-4 3 -4.5 8t0.5 8l1 4l3 3q5 15 18 15q6 -1 10 -10t4 -18
t-5 -10q-3 -1 -7.5 -3t-7 -3t-6 0.5t-6.5 5.5z" />
    <glyph glyph-name="perthousand" unicode="&#x2030;" horiz-adv-x="478" 
d="M463 270q4 -45 -45 -94q-16 -16 -38 -22.5t-44 2.5q-17 9 -17 28q0 22 21 51q32 46 51 50q-2 6 3.5 8.5t11.5 2.5q6 6 30.5 1.5t26.5 -27.5zM412 199q32 36 28 68q-1 6 -3.5 8.5t-5.5 3t-9.5 -0.5t-9.5 -1q1 -1 -1 -3t-7.5 -5.5l-8.5 -5.5q-18 -12 -28 -24
q-17 -19 -24 -37.5t2 -27.5q12 -5 32.5 1t34.5 24zM54 366q-9 -17 -9.5 -34.5t6.5 -20.5q7 -4 24 1t34 16q31 23 41 46q4 12 4.5 23.5t-0.5 17.5l-2 6q-37 3 -52 14q-30 21 9 26q10 3 23 -1.5t21 -9.5l8 -6q41 -3 76 3q39 10 69 35q8 7 22 -5.5t1 -20.5q-3 -2 -26 -19
t-49 -38.5t-44 -41.5q-43 -47 -83 -102t-59.5 -89.5t-13.5 -34.5q9 0 20 16t15 27q0 8 8 8q6 1 6 -5q5 -9 -11.5 -36t-31.5 -33q-14 -7 -23.5 0t-5.5 20q2 15 35 70t60 89q28 37 59.5 72t48.5 51l17 17q-29 -6 -49 -6l-32 -6q9 -23 -6 -55q-11 -23 -39 -46t-62 -27
q-23 -4 -31.5 11.5t-6.5 41.5q0 20 17.5 50.5t34.5 38.5q15 7 20 -7q4 -11 -3 -13q-28 -12 -40 -43zM329 279q8 -19 -7 -48t-34 -48q-16 -16 -38 -22.5t-44 2.5q-18 10 -18 36q0 22 9 38q24 44 51 50q-2 6 1 10.5t8 4.5q7 2 19.5 3t29.5 -5t23 -21zM282 206q17 20 24.5 41
t-0.5 29q-5 5 -12.5 6.5t-19.5 0.5t-14 -1q9 -9 0 -15q-2 -2 -8.5 -4t-13 -6.5t-14.5 -15.5q-13 -18 -16 -35t7 -25q12 -5 32.5 1t34.5 24z" />
    <glyph glyph-name="guilsinglleft" unicode="&#x2039;" horiz-adv-x="168" 
d="M149 430q-7 -4 -32.5 -39.5l-47.5 -68.5l-22 -34q41 -131 58 -142q17 -10 15 -24q-2 -13 -21 -5q-7 2 -17 17.5t-20 37.5t-18 42l-15 38.5t-8 20.5q-11 22 12 50q4 5 26.5 35.5l43 57t28.5 31.5q13 10 21 -2q6 -9 -3 -15z" />
    <glyph glyph-name="guilsinglright" unicode="&#x203a;" horiz-adv-x="161" 
d="M18 415q-7 11 1 17t19 -2q9 -7 44.5 -59t39.5 -57q22 -27 12 -49q-50 -125 -73 -143q-11 -9 -17 5q-4 12 6 24l55 134q-50 84 -73 110q-10 10 -14 20z" />
    <glyph glyph-name="fraction" unicode="&#x2044;" horiz-adv-x="355" 
d="M299 409q-11 -8 -53.5 -48.5t-73.5 -75.5q-19 -23 -46.5 -52.5l-45.5 -48.5t-19 -21q-6 -7 -9 -13.5t-4 -10t-2.5 -6t-4.5 -2.5q-5 0 -8.5 4t-3 12.5t8.5 18.5q34 46 136 153q21 22 47.5 52.5t39.5 43t21 15.5q14 6 19.5 -4t-2.5 -17z" />
    <glyph glyph-name="Euro" unicode="&#x20ac;" horiz-adv-x="330" 
d="M26 327l39 2l16 25q26 38 70.5 70.5t72.5 42.5q18 9 37 9q29 0 38 -18q6 -9 11 -24t7 -24.5t2 -11.5q-5 -14 -17 -14q-11 3 -8 16q2 8 -3 24t-13 24q-33 19 -130 -54q-37 -28 -58 -64q45 4 116 14q22 3 26 -6q2 -4 -7 -7q-35 -12 -126 -19l-21 -3q-14 -29 -14 -58
q8 1 40 2t57.5 2.5t36.5 4.5q17 3 21 -7q3 -6 -9 -11q-12 -4 -144 -15q11 -70 91 -77q53 -6 132 38q10 7 15 1q2 -3 -4 -9q-12 -19 -52.5 -36t-82.5 -17q-59 0 -91 37q-25 30 -30 62h-6q-12 0 -28.5 -2t-25.5 -1.5t-13 4.5q-6 6 -0.5 15t15.5 13q4 1 10.5 4.5t9.5 4.5t7 0
q3 -3 2.5 -5.5t-2.5 -4.5l-2 -2q14 -2 31 -2q2 30 13 56q-35 -4 -62 0q-13 2 -14.5 12.5t11.5 12.5q7 1 19.5 -1.5t16.5 -2.5z" />
    <glyph glyph-name="trademark" unicode="&#x2122;" horiz-adv-x="237" 
d="M89 327q7 5 23.5 26.5t17.5 22.5q2 4 7 3t5 -6q-2 -7 -2 -18t2 -11t11.5 11t14.5 18q3 6 5.5 7t4 -1.5t1.5 -5.5q0 -23 6 -32t12 -9q4 0 6 -3t0 -5q-21 0 -27 11q-2 5 -3.5 11t-2.5 9t-2 3t-11.5 -12t-14.5 -14q-12 -4 -12 9v20q-12 -14 -17 -26q-3 -4 -6.5 -9.5
t-5.5 -7.5q-3 -4 -7 -3t-5.5 5t0.5 7zM34 379q3 0 14 -0.5t24 1.5q4 0 14 2t18 3t12 0q4 -2 4 -7t-4 -5q-8 4 -29 0q-2 -1 -6 -1q-8 -13 -12 -31q-3 -7 -2.5 -12t2 -8t3.5 -3q2 -2 0.5 -4.5t-4 -3.5t-5.5 2q-9 5 -5 29q1 7 10 29q-29 -2 -37 0q-6 2 -5 5t8 4z" />
    <glyph glyph-name="Omega" unicode="&#x2126;" horiz-adv-x="581" 
d="M193 173q-7 4 -16.5 12t-26 41.5t-16.5 77.5q0 29 7 63q15 61 43 97t88 57q21 8 51 8q48 0 91 -21.5t52 -50.5q8 -25 8 -56q0 -50 -25 -98q-13 -27 -29 -51.5t-26 -35.5l-9 -11q17 6 61 6q64 -3 113 -29q16 -7 8 -21q-7 -9 -17 -6q-37 23 -101 27q-26 1 -45 -2t-28 -5.5
t-14 -1.5q-14 2 -19.5 7.5t-1.5 12.5q8 5 34 38.5t42 63.5q30 57 30 110q0 25 -7 46q-9 24 -42 38t-71 14q-20 0 -38 -5q-46 -13 -76 -42t-46 -92q-6 -30 -6 -58q0 -69 32 -104q9 -10 17.5 -14.5t19 -6t13.5 -2.5q8 -1 9 -9.5t-4.5 -16.5t-13.5 -9q-7 0 -14 2t-11 4l-4 3
q-32 -21 -78 -21q-72 4 -105 44q-12 16 -1.5 23.5t22.5 -0.5q38 -31 84 -41q14 -2 30.5 1.5t26.5 8.5z" />
    <glyph glyph-name="partialdiff" unicode="&#x2202;" horiz-adv-x="402" 
d="M208 592q18 -11 47 -67.5t31 -121.5v-44q53 -3 73 -8q14 -2 14 -11q0 -13 -23 -13q-5 0 -11 1q-15 3 -55 6q-8 -77 -39 -131.5t-69 -71.5q-40 -16 -94 15.5t-62 79.5q-6 50 23 85.5t75 45.5q33 6 83 6q22 0 62 -2q2 61 -17.5 119t-57.5 83q-10 8 -8.5 16t11 12.5
t17.5 0.5zM121 334q-77 -22 -77 -85q0 -19 5 -34q5 -21 36.5 -43t63.5 -22q20 0 36 10q29 21 50 71t26 105q-37 3 -77 3q-44 0 -63 -5z" />
    <glyph glyph-name="Delta" unicode="&#x2206;" horiz-adv-x="336" 
d="M52 136q-3 -10 -15 -1q-8 7 -8 16q1 6 16 30l37.5 58.5t33.5 53.5l39.5 58l46.5 67.5t24 36.5q7 10 19 3.5t10 -20.5q-2 -17 7.5 -114t15.5 -121q3 -11 6.5 -19.5t5 -11t6 -8.5t5.5 -7q4 -6 1.5 -11t-7.5 -5.5t-8 1.5q-9 9 -26 18q-13 1 -78.5 -5.5t-84.5 -9.5
q-6 0 -12 -4.5t-19 -4.5q-9 0 -14 3q-1 -1 -1 -3zM145 293q-51 -77 -79 -128q11 2 52 5.5t56 6.5l87 12l-18 113q-6 116 -11 116q-10 0 -87 -125z" />
    <glyph glyph-name="product" unicode="&#x220f;" horiz-adv-x="542" 
d="M141 267q-8 -19 -21 -47t-18 -40t-2 -15l6 -1q5 -1 7.5 -4.5t1.5 -11.5q-2 -12 -16 -17t-25 0q-15 8 35 113q1 2 70 178q-29 -3 -61 -7t-51 -7l-19 -2q8 -4 -3 -6q-11 -3 -22 10q-9 10 2 14q20 6 149.5 19t207.5 12q144 -3 147 -23q2 -8 -6.5 -15.5t-16.5 -7.5
q-5 0 -6 2.5t0 6.5t-2 8q-10 6 -116 6q-85 0 -157 -6q-4 0 -11 -1t-10 -1q-36 -95 -63 -157zM361 415q4 8 9.5 7.5t9.5 -6.5t2 -10q-1 -4 -5.5 -14l-12 -28t-14.5 -39l-47 -110q9 -3 9 -12q0 -18 -29 -72q-13 -31 -38 -18q-2 2 5 22.5t18 49t21 47.5q62 161 72 183z" />
    <glyph glyph-name="summation" unicode="&#x2211;" horiz-adv-x="415" 
d="M389 402q-9 6 -50.5 12.5t-86.5 5.5l-142 -12q12 -29 67 -75q17 -14 32.5 -22t26.5 -11l11 -2q6 -4 10.5 -11t-2.5 -12q-2 -1 -19 -7t-42 -19t-52 -32l-90 -70l26 2.5t52 3t56 0.5q15 -1 44 -3.5t50 -4t33 -1.5q23 -3 8 -19q-6 -7 -14 -10q-3 -3 -5 -2t-2.5 2t-4.5 4
t-11 5q-70 10 -108 10q-67 0 -132 -16q-13 -3 -22.5 0.5t-10.5 9.5t1 10q8 12 55.5 49t91.5 68l44 31q-26 15 -61 47q-19 17 -37.5 39t-20.5 24q-8 8 -11 17.5t2 14.5q4 1 16.5 2l38.5 3t47 4q56 4 81 4q106 0 139 -19q19 -10 7 -19q-9 -6 -15 -1z" />
    <glyph glyph-name="minus" unicode="&#x2212;" horiz-adv-x="291" 
d="M110 267q-8 -3 -35 -3q-31 -4 -43 12q-5 8 -1 14t18 4q8 -1 17.5 -1t28.5 0.5t36 0.5t44.5 1t42 1t21.5 -3q13 -5 17 -12t-3 -14q-10 -19 -35 -15q-3 2 -2.5 5t2.5 6l4 6t1 5t-7 2q-9 1 -35.5 -1t-48.5 -5z" />
    <glyph glyph-name="radical" unicode="&#x221a;" horiz-adv-x="417" 
d="M39 320q18 -12 61 -12q49 0 49 -29l-3 -92q47 92 87 147q38 52 80 89t62 48q8 3 14.5 0t7.5 -7.5t-1 -7.5q-12 -23 -24 -23q-8 -2 -27.5 -15t-49 -43t-50.5 -64q-25 -39 -46 -78.5l-31.5 -60.5t-15.5 -26q-28 -18 -32 14q-1 11 -0.5 21.5l1.5 30.5t1 32q0 29 -5 35
q-7 6 -39 7.5t-42 7.5q-17 9 -9 22q4 8 12 4z" />
    <glyph glyph-name="infinity" unicode="&#x221e;" horiz-adv-x="734" 
d="M326 300q-21 -23 -77.5 -58.5t-93.5 -45.5q-45 -16 -76 -16q-24 0 -34 10q-17 12 -5.5 42t42.5 51q84 54 193 54q14 0 42 -2q1 0 3 -0.5t3 -0.5q1 2 4 6.5t5 6.5q11 15 23.5 38t22 37.5t18.5 20.5q5 10 17 14q25 9 60 9q27 0 68 -6q93 -18 130 -64q29 -29 15 -58
q-6 -13 -27 -22.5t-40 -12.5q-28 -8 -78 -8q-37 0 -104.5 5.5t-87.5 5.5q-11 0 -17 1q-2 -3 -6 -7zM451 431q-2 -1 -10 -2.5t-14.5 -3t-15.5 -7t-15 -13.5q-7 -8 -23 -35.5t-23 -37.5q141 -13 186 -13q37 0 60 4q68 11 68 42q0 20 -39 43q-62 35 -133 35q-24 0 -41 -4
q3 -5 0 -8zM120 277q-27 -13 -43 -29.5t-17 -26t2 -14.5q2 -8 41 -3t84 27q70 31 114 78q-12 1 -38 1q-81 0 -143 -33z" />
    <glyph glyph-name="integral" unicode="&#x222b;" horiz-adv-x="386" 
d="M357 615l-9 -11q-10 -12 -17 -23t-15 -27l-21.5 -54l-39.5 -96t-54 -111.5t-68 -112.5q-121 -171 -214 -186q-27 -4 -37 16.5t2 44.5q6 17 13.5 12.5t0.5 -17.5q-5 -12 2.5 -24.5t26.5 -4.5q1 0 9.5 3t13.5 5t17 8.5t22 14.5t25.5 22t31 31t35.5 42.5t41 55.5
q63 92 120.5 230t64.5 176q13 39 38 35q12 -2 15.5 -12t-3.5 -17z" />
    <glyph glyph-name="approxequal" unicode="&#x2248;" horiz-adv-x="429" 
d="M64 346q-1 -3 -2 -10.5t-4 -12.5q-2 -7 -12 -5t-14 11q-3 9 5 28.5t27 35.5q20 16 46 16q10 0 20.5 -2t22 -5l15.5 -4q1 0 21.5 -8.5t33 -13t32 -9t32.5 -3.5q42 3 64 32q12 12 19.5 2t0.5 -20q-22 -38 -84 -40q-38 0 -96 21.5t-72 24.5q-27 4 -41 -11t-14 -27zM113 245
q-20 0 -55 -55q-5 -7 -10 -5t-8.5 8t-1.5 11q0 8 12 26t28 32q15 12 30 12q17 0 31 -12q55 -41 105 -46q75 -7 139 32q8 7 17 -1.5t-5 -22.5q-12 -12 -53 -23t-82 -11q-19 0 -37 3q-34 6 -70 29t-40 23z" />
    <glyph glyph-name="notequal" unicode="&#x2260;" horiz-adv-x="344" 
d="M275 381l-23 -18q26 -2 38 -6t14.5 -11.5t-4.5 -14.5q-10 -19 -35 -15q-3 2 -2.5 5t2.5 6l4 6t1 5t-7 2l-40 -3q-20 -17 -51 -52l-17 -17h22q64 4 116 -11q13 -2 15 -10t-11 -15q-9 -2 -16.5 -0.5t-12.5 4.5l-5 2q-14 3 -54 3q-26 0 -43 -1t-42 -5q-24 -23 -25 -28
q-6 -7 -9 -13.5t-4 -10t-2.5 -6t-4.5 -2.5q-5 0 -8.5 4t-3 12.5t8.5 18.5q1 1 4 5t6 7.5t6 7.5q-24 -5 -36 -2q-13 2 -15.5 10t9.5 15q16 9 75 13l49 53q5 6 15 16l-77 -4q-40 -5 -50 8q-7 8 -2 15t19 5q9 -2 48.5 2t62.5 4h25q31 33 43 37q14 6 19.5 -4t-2.5 -17z" />
    <glyph glyph-name="lessequal" unicode="&#x2264;" horiz-adv-x="397" 
d="M115 293l73.5 -36.5t66.5 -32.5t38 -15q20 -5 14 -17q-7 -13 -32 -8q-30 7 -130 67q-17 8 -53 16q-38 13 -21 35q5 7 12.5 8.5t10.5 3.5q151 75 198 90q20 5 19 -10q-2 -17 -16 -23q-129 -52 -180 -78zM326 137q-14 3 -54 3q-26 0 -43 -1q-18 -1 -62.5 -6.5t-80 -9.5
t-44.5 -2q-13 2 -15.5 10t9.5 15q8 5 41.5 8.5t93 7.5t69.5 5q64 4 116 -11q13 -2 15 -10t-11 -15q-9 -2 -16.5 -0.5t-12.5 3.5z" />
    <glyph glyph-name="greaterequal" unicode="&#x2265;" horiz-adv-x="363" 
d="M253 322q-115 17 -154 44q-23 15 -21 34q1 14 15 6q46 -30 101 -43q34 -8 72 -13l38 -5q13 -2 15 -11t-12 -18q-8 -6 -29.5 -15.5t-50.5 -20.5t-41 -16l-73 -35q12 -17 -12 -29q-15 -7 -26 -3.5t-14 12.5q-4 10 15 25t49 30q14 8 46 22.5l57 25.5zM308 150q-14 3 -54 3
q-26 0 -43 -1q-18 -1 -62.5 -6.5t-80 -9.5t-44.5 -2q-13 2 -15.5 10t9.5 15q8 5 41.5 8.5t93 7.5t69.5 5q64 4 116 -11q13 -2 15 -10t-11 -15q-9 -2 -16.5 -0.5t-12.5 4.5z" />
    <glyph glyph-name="lozenge" unicode="&#x25ca;" horiz-adv-x="248" 
d="M144 388q27 -34 73 -112q17 -29 5 -54q-7 -18 -40.5 -75t-48.5 -69q-7 -5 -11 -2q-4 -3 -15 2q-12 4 -33 37.5t-34 60t-19 41.5q-11 22 12 50q5 6 37 58t45 69l2 2l9 9q13 10 21 -2q6 -9 -3 -15zM47 232q49 -114 66 -125q1 0 3 -1.5t3 -2.5q2 2 3 4l76 130
q-44 97 -67 123l-5 5q-13 -19 -32.5 -52.5l-33.5 -56.5z" />
    <glyph glyph-name="apple" unicode="&#xf8ff;" horiz-adv-x="551" 
d="M308 485q19 -42 19 -88q21 35 39 53q72 61 102 52q21 -3 28 -18q4 -9 -5 -11q-64 0 -98 -35q-30 -29 -64 -90q20 20 52 29q35 11 76.5 -10.5t62.5 -64.5q12 -23 12 -52q0 -38 -19.5 -76t-53.5 -61q-48 -32 -119.5 -57t-97.5 -18q-13 3 -16 13q-35 -2 -80 10
q-105 28 -128 108q-10 31 8 64t59 81q38 40 76.5 61t64.5 17q-5 3 -13.5 9l-11.5 8q-45 31 -45 90q0 24 7 47q19 46 44 46q8 0 14 -3q19 0 44.5 -33t42.5 -71zM245 102q6 6 14.5 -0.5t5.5 -11.5q-9 -9 -10 -18q3 0 7 0.5t6 0.5q18 2 19 -7q0 -2 -2 -4q83 11 154 63
q70 50 70 119q0 22 -6 43q-10 35 -48 55t-65 15q-22 -4 -50 -32q-20 -20 -28 -8q-6 -12 -6 -15q-3 -9 -15 5q-8 8 -6 15l2 4q-29 39 -57 46q-25 4 -51.5 -10.5t-67.5 -50.5q-37 -33 -57 -70.5t-15 -63.5q10 -61 107 -93q45 -16 80 -14q7 25 19 32zM288 482q-12 29 -29 53
t-29 31q-6 3 -10 7q-1 0 -6 -1.5t-10 -5.5t-12 -12q-16 -21 -16 -55q0 -42 31 -69q47 -41 96 -41q3 12 -1 39.5t-14 53.5zM271 370q11 -9 26 -24q2 4 8 14h-2q-15 3 -32 10z" />
    <glyph glyph-name="fi" unicode="&#xfb01;" horiz-adv-x="265" 
d="M284 235q15 14 23 5q3 -4 -2 -9q-77 -77 -145 -87q-38 -8 -38 29q0 9 2 14q-40 -35 -105 -82q-7 -6 -21 -16q-1 -6 -5 -16q-27 -92 -27 -160q0 -19 4 -37q8 -18 16 -22t18 1q8 3 11 -6q2 -9 -8 -17q-12 -7 -26 -3.5t-24.5 25t-10.5 54.5q-1 48 26 166
q-33 -18 -60.5 -25.5t-35.5 -0.5q-13 13 -4 22q5 5 12 1q23 -15 94 30q36 150 85 288q29 87 65 156.5t50 81.5q9 8 18 4t11 -16q0 -15 -3.5 -43.5t-18 -86t-37.5 -108.5q-41 -91 -115 -159l-27 -99q84 57 135 110q24 46 36 46q9 0 13 -4.5t-2 -16.5q-20 -27 -36 -58t1 -30
q24 1 54.5 17t40.5 23.5t36 28.5zM94 409q-22 -54 -49 -149q51 59 87 132q17 37 31.5 86.5t20.5 83t3 36.5q-2 2 -8 -7t-15.5 -26.5t-20.5 -41l-24 -53.5t-25 -61zM217 310q-13 4 -5 26q0 7 8.5 11.5t17.5 0.5q18 -15 6 -29q-13 -13 -27 -9z" />
    <glyph glyph-name="fl" unicode="&#xfb02;" horiz-adv-x="305" 
d="M304 568q29 32 48 32q28 0 25 -55q-4 -80 -116 -220q-54 -68 -93 -102q-4 -24 -4 -31q0 -34 35 -28q33 6 72 30.5t52 40.5q13 13 17 5q3 -7 -8 -20q-18 -22 -63.5 -49.5t-80.5 -31.5q-27 -3 -37 16t-8 50q-31 -33 -124 -100q-7 -6 -21 -16q-1 -6 -5 -16q-27 -92 -27 -160
q0 -19 4 -37q8 -18 16 -22t18 1q8 3 11 -6q2 -9 -8 -17q-12 -7 -26 -3.5t-24.5 25t-10.5 54.5q-1 48 26 166q-33 -18 -60.5 -25.5t-35.5 -0.5q-13 13 -4 22q5 5 12 1q23 -15 94 30q36 150 85 288q29 87 65 156.5t50 81.5q9 8 18 4t11 -16q0 -15 -3.5 -43.5t-18 -86
t-37.5 -108.5q-41 -91 -115 -159l-27 -99q89 60 138 113l3 3q0 4 1 6q15 80 62 177t94 150zM356 545q2 18 -2.5 24.5t-14 1t-23.5 -22.5q-38 -49 -83 -139.5t-60 -152.5q49 52 83 98q90 121 100 191zM94 409q-22 -54 -49 -149q51 59 87 132q17 37 31.5 86.5t20.5 83t3 36.5
q-2 2 -8 -7t-15.5 -26.5t-20.5 -41l-24 -53.5t-25 -61z" />
    <glyph glyph-name="a.start" horiz-adv-x="349" 
d="M368 235q11 13 17.5 8.5t-5.5 -20.5q-17 -22 -56 -49t-60 -31q-24 -6 -40 -1t-21 18q-4 14 -2 26.5t6 21.5l4 9q-99 -77 -150 -92q-50 -15 -54 20q-5 27 58 98q22 25 71.5 60t70.5 42q18 6 27.5 -3.5t6.5 -21.5q-4 -18 -32 -24q-7 -1 -6 4q1 1 1 4q3 7 -1 7h-3
q-77 -33 -143 -112q-24 -28 -24 -43q0 -21 42 -1q13 6 28 16q44 28 91.5 66.5t57.5 55.5q6 12 17 1q14 -15 2 -30q-20 -22 -39 -58.5t0 -42.5q25 -8 67.5 18t68.5 54z" />
    <glyph glyph-name="b.start" horiz-adv-x="264" 
d="M165 302q79 -2 79 -41q0 -13 -12 -34q-27 -47 -102 -74t-107 -25h-3q-11 -32 -11 -46q2 -5 5 -6t5.5 0t3.5 -0.5t0 -7.5q0 -11 -10 -18.5t-17 -2.5q-27 10 1 80l54 126q-21 -9 -32 -9q-16 0 -22 12q-3 8 5 12q22 7 67 20q9 15 25 49t23 46l30.5 51l25.5 40.5t28.5 38
t21.5 13.5q13 3 18 -1t3 -9.5t-6 -7.5q-50 -43 -125 -182l-17 -32q31 8 69 8zM189 216q26 20 26 39q0 20 -33 21q-42 4 -101 -14l-49 -105q2 3 3 0q1 -6 4 -6.5t16 1.5q18 4 63.5 23t70.5 41z" />
    <glyph glyph-name="c.start" horiz-adv-x="299" 
d="M319 238q12 9 20 2q5 -4 -4 -14q-37 -38 -127 -81.5t-142 -50.5q-46 -6 -55 24q-10 40 26 101q25 43 74 89t74 56q16 8 29 1t15 -21q4 -21 -18 -52q-6 -11 -14.5 -8.5t-8.5 13.5q0 6 5.5 16t9 17.5t0.5 10.5q-4 7 -31 -13.5t-62 -56.5q-60 -61 -73 -113q-7 -27 0.5 -34
t26.5 -6q40 1 133 46.5t122 73.5z" />
    <glyph glyph-name="d.start" horiz-adv-x="301" 
d="M347 592q12 6 20.5 -1t10.5 -19q3 -18 -3.5 -72.5t-25.5 -113.5q-23 -62 -66 -117.5t-84 -85.5q0 -3 -1.5 -6.5t-1.5 -4.5q-5 -40 -5 -74q0 -47 11 -51q9 -2 26 6q3 2 6 -0.5t4 -6t-2 -8.5q-4 -9 -16.5 -12.5t-28.5 5.5q-21 13 -21 74q0 27 3 59q-66 -46 -105 -53
q-22 -5 -40 8.5t-18 43.5q0 25 15 58.5t49 67.5t78 45q16 5 33 0t25 -17q23 72 29 87q17 46 50 109.5t58 78.5zM62 238q-30 -45 -30 -74q0 -36 36 -28q17 4 34 12t25.5 13.5t26 19.5t21.5 17q1 1 2.5 3.5t3 5.5l2.5 5q-6 0 -3 13q6 25 9 48q7 18 0.5 32.5t-28.5 8.5
q-24 -7 -52.5 -28.5t-46.5 -47.5zM326 392q30 74 30 139q0 27 -4 29q-5 2 -17.5 -15.5t-29.5 -50t-34 -73.5q-55 -132 -64 -203q78 71 119 174z" />
    <glyph glyph-name="e.start" horiz-adv-x="265" 
d="M283 234q10 12 18 6q5 -5 -2 -14q-26 -33 -91 -69t-124 -27q-25 4 -35 24q-39 -31 -61 -35q-27 -6 -30 5q-2 5 8 8q1 1 2 1q34 8 75 44q-4 19 12 55q18 40 49.5 67.5t58.5 35.5q17 7 28.5 0.5t6.5 -29.5q-4 -18 -23.5 -42t-31.5 -34l-45 -39q-16 -10 -29 -23
q3 -10 15 -14q49 -12 112.5 20t86.5 60zM82 236q-13 -21 -17 -43q31 22 73 63.5t39 56.5q-2 7 -19 -2.5t-40 -31t-36 -43.5z" />
    <glyph glyph-name="f.start" horiz-adv-x="289" 
d="M282 581q16 8 28 8q30 0 33 -34q4 -4 1.5 -23t-3.5 -25t-6.5 -27t-7.5 -28q-11 -44 -9 -54q1 -5 -3 -5q-10 0 -15 13q-4 13 10 72q1 5 3.5 19.5t3.5 22t1.5 17.5t-2 15.5t-7.5 7.5q-13 5 -39.5 -24.5t-52.5 -81.5q-42 -82 -94 -288q34 6 95.5 29t95.5 49q12 14 12 2
q1 -15 -15 -26q-6 -8 -22 -17t-40.5 -18.5l-45.5 -17l-49 -17l-40 -13.5q-54 -220 -57 -235q-4 -14 -18 -20t-23 3q-4 4 -4 7t2 4t7 3t7 3q7 15 15.5 45t14.5 55l16 68t14 59q-42 -11 -84 -11q-43 0 -71 10q-17 6 -20 20.5t11 25.5q14 14 35 14q3 0 5 -4t1 -8t-5 -4
q-24 -10 -23 -17q3 -8 28.5 -13.5t61.5 -1.5q50 9 68 15q7 24 18.5 67.5t21 75.5t17.5 54q31 95 67.5 154.5t62.5 74.5z" />
    <glyph glyph-name="g.start" 
d="M199 88l-9 -27h1q36 -9 69 -26t43 -32q4 -7 2 -14.5t-8 -10.5q-25 -7 -25 4q0 5 5.5 2.5t7.5 1.5q3 5 -7 14.5t-35.5 21.5t-59.5 20q-42 -98 -127 -169q-50 -38 -90 -38q-33 0 -43 33q-6 45 13.5 92.5t66.5 80.5q45 30 109 30q25 0 55 -5q17 44 23.5 86.5t1.5 56.5
q-4 8 -41 -10.5t-84 -47t-60 -33.5q-21 -11 -40 -4.5t-16 29.5q5 37 69 98t120 86q14 7 29 7q27 0 37 -17q7 -11 -1.5 -27t-17.5 -25q-10 0 -11 1q0 2 2 4q0 2 4.5 11.5t4.5 17.5q0 24 -80 -23q-42 -27 -82.5 -67.5t-44.5 -53.5q-4 -14 0.5 -16t19.5 4q11 4 74.5 40.5
t78.5 40.5q26 12 42 12q21 0 25 -17q8 -32 -21 -131zM-25 -18q-34 -46 -34 -87q0 -36 25 -36q33 0 80.5 37t88.5 101q16 29 25 50q-18 3 -37 3q-46 0 -86.5 -19.5t-61.5 -48.5z" />
    <glyph glyph-name="h.start" horiz-adv-x="358" 
d="M373 232q23 17 26 7q2 -5 -7 -15q-13 -16 -52.5 -40t-62.5 -31q-52 -17 -52 46q-1 24 10 72q1 13 -4 13q-18 0 -87 -60t-90 -91q-8 -9 -20 -9.5t-19.5 11t-0.5 27.5q9 29 68 130.5t92 142.5q43 54 91.5 91.5t70.5 35.5q13 -2 14 -19q1 -12 -7 -11q-2 0 -4 1
q-18 6 -68.5 -35.5t-100.5 -111.5q-32 -44 -62.5 -98.5t-45.5 -87.5l-14 -32q15 16 38.5 39t72.5 63.5t69 44.5q22 6 32.5 -8.5t2.5 -31.5q-3 -9 -6.5 -24.5t-7 -34t-1.5 -32t10 -12.5q20 1 54.5 20t60.5 40z" />
    <glyph glyph-name="i.start" horiz-adv-x="190" 
d="M-41 109q6 2 25 16t30 25q16 14 30.5 32t21.5 29l6 11q24 64 44 84q14 17 22 -3q5 -13 1 -23q-22 -38 -35 -58q-4 -5 -10 -21.5t-8 -32.5t9 -18q14 -2 60.5 34t58.5 54q5 7 10 7.5t5.5 -4t-3.5 -12.5q-19 -30 -69.5 -69t-75.5 -33q-16 4 -16 30l4 28q-21 -28 -46 -53
q-50 -48 -76 -43q-21 6 -18 19q2 8 12 7q4 0 8.5 -3t9.5 -3zM144 364q-18 4 -9 29q2 7 11.5 11.5t17.5 0.5q10 -6 12 -15.5t-3 -13.5q-3 -3 -4 -6.5t-2 -5t-6.5 -2.5t-16.5 2z" />
    <glyph glyph-name="j.start" horiz-adv-x="284" 
d="M304 240q11 9 17.5 4t-9.5 -20q-25 -24 -139 -77q-81 -202 -199 -249q-26 -11 -52 -11q-44 0 -68.5 31.5t-16.5 71.5q2 11 9 22.5t20 22l24.5 19t31 18.5l31.5 16t34 14.5l30.5 12t29.5 11t22 7.5q9 2 22.5 7.5l33.5 13.5t34 13q73 192 61 221q-7 16 8 17q17 1 25 -13
q2 -4 2 -7q5 -31 -68 -206q59 22 117 61zM139 121q1 1 4 8t4 8q-13 -5 -62 -21.5t-91 -35.5q-32 -14 -51 -24t-42.5 -24.5t-35 -29.5t-11.5 -31q-2 -22 16.5 -42.5t49.5 -20.5q18 0 36 7q66 24 104.5 71.5t78.5 134.5zM261 466q-9 0 -16 9.5t-5 19.5q3 17 35 26q10 3 19 -7
q6 -6 1 -10q-2 -3 -11 -21q0 -6 -7.5 -11.5t-15.5 -5.5z" />
    <glyph glyph-name="k.start" horiz-adv-x="287" 
d="M-6 78l13 8q6 2 7 -2q0 -4 -4.5 -13l-11.5 -22t-10 -20q-16 -26 -29 -26q-19 0 -3 43q75 193 156 349q45 87 73.5 130t52.5 49q11 3 15 -2.5t1 -13t-10 -10.5q-20 -10 -73 -96q-34 -55 -78 -148.5t-71 -159.5zM263 312q-19 0 -71 -31t-79 -55q-46 -42 -41 -68q0 -7 7 -10
t27 0.5t51 16.5q100 41 149 72q12 11 17 3q5 -6 -8 -18q-26 -24 -110.5 -63t-125.5 -34q-34 4 -34 31q0 30 39 76q23 26 75 57.5t77 37.5q18 2 28 -11q4 -4 -1 -4z" />
    <glyph glyph-name="l.start" horiz-adv-x="258" 
d="M91 208q-1 -3 -2.5 -8.5t-3.5 -8.5q-8 -47 19 -47q12 0 30 9q24 8 67.5 33.5t71.5 46.5q22 17 26 7q1 -5 -8 -13q-62 -54 -128 -86q-42 -20 -62 -20t-31 14q-9 11 -6 50l-43 -38q-40 -38 -60.5 -51t-36.5 -12q-12 0 -19 5t-6.5 10.5t6.5 9.5q4 3 17 2t24 4q21 9 124 102
q5 29 35 110q78 175 133 223q24 18 46 18q30 0 30 -32q-7 -65 -93 -186q-55 -77 -130 -142zM241 524q-35 -37 -73.5 -117t-65.5 -156l38 38q116 130 148 232q6 20 -12 21t-35 -18z" />
    <glyph glyph-name="m.start" horiz-adv-x="445" 
d="M462 234q16 14 24 8q4 -4 -7 -15q-21 -21 -57 -46t-55 -32q-47 -16 -47 29q0 16 4 35t8 30l3 11q-116 -113 -140 -131q-17 -11 -29 -2t-5 28q1 12 18 48l30 64.5t7 27.5q-28 -7 -109 -81t-86 -77q-21 -13 -30 -6t0 27q3 4 14 21l21.5 33.5l21 34.5t16 31t2.5 17
q-3 5 -45 -7t-49 -6q-11 7 -6 19q5 11 12 2q9 -4 21.5 -0.5t34.5 9t35 5.5q12 0 19.5 -9.5t2.5 -21.5q-4 -11 -23 -43l-36 -59l-16 -26q156 148 191 160q21 7 31.5 -1.5t0.5 -33.5q-4 -10 -22 -46.5t-27 -59t-4 -22.5q12 0 157 145q15 15 24 5.5t2 -25.5q-1 -3 -7 -18.5
t-10 -27.5t-8 -26t-3.5 -23t6.5 -10q21 -8 115 65z" />
    <glyph glyph-name="n.start" horiz-adv-x="369" 
d="M386 235q18 17 22 7q2 -8 -9 -18q-25 -25 -64.5 -47.5t-76.5 -31.5q-27 -7 -41 3t-5 40q3 11 10 27.5l12 28.5t10 25.5t5 18.5t-5 7q-11 0 -93.5 -74t-96.5 -91q-12 -13 -22 0t-1 29q1 2 10 15l16.5 24.5l19.5 29.5t19.5 30.5l16 27.5t9.5 20t0 8q-7 1 -56.5 -20
t-61.5 -19q-16 4 -16 17q3 10 16 5q5 -2 27 6.5t48 20t36 13.5q16 4 25.5 -3t3.5 -27q-5 -19 -24.5 -52t-36.5 -56l-17 -23q133 125 173 140q22 8 31 -1t-2 -43q-5 -15 -18 -45q-25 -57 -15 -61q1 -1 3 -1q27 -2 76.5 24t71.5 46z" />
    <glyph glyph-name="o.start" horiz-adv-x="284" 
d="M303 238q13 13 20 8q4 -3 -2 -14q-11 -20 -42 -35t-63 -15q-17 0 -34 6q-57 -64 -107 -75q-49 -11 -58 36q-6 31 15 85t55 80q15 12 32 0q12 -9 -1 -14q-26 -10 -53.5 -58.5t-27.5 -80.5q0 -22 15 -25q27 -5 59.5 17t48.5 46q-14 14 -17.5 38t2.5 38q10 30 39 45t46 6
q30 -15 -32 -117q26 -9 58.5 2.5t46.5 26.5zM165 260q-5 -26 11 -41q20 24 32 49t9 30q-2 10 -22 1q-25 -11 -30 -39z" />
    <glyph glyph-name="p.start" horiz-adv-x="366" 
d="M322 293q29 -23 29 -47t-29 -49q-61 -55 -212 -99q-23 -54 -57.5 -122.5l-37.5 -74.5t2 -3q7 4 7 3q-4 -9 -29 -40q-5 -5 -10.5 -5t-8.5 5.5t1 16.5q3 7 40.5 79t57.5 118q6 12 9 20q-12 0 -19.5 7.5t-7.5 17.5q0 16 18 27q26 16 30 7q1 -4 -4 -7q-36 -20 -17 -23h14
l76 181q-6 -1 -21 -2.5t-31.5 -3.5t-35.5 -6q-38 -8 -104 -38q-10 -9 -14 3q-4 15 11 27q57 27 168 40q23 3 41 3q9 27 9 32q2 13 11 2q10 -12 3 -25q0 -6 -3 -12q72 -5 114 -32zM281 195q45 33 45 54q0 15 -20 28q-34 22 -109 25q-8 -17 -24 -58l-23 -59q-1 -1 -4.5 -10
t-9 -21t-12.5 -24q38 10 85 29t72 36z" />
    <glyph glyph-name="q.start" horiz-adv-x="286" 
d="M222 46q7 4 21.5 5.5t30.5 -12.5t17 -40q1 -29 -21 -63.5t-39 -50.5l-44 -40q-37 -34 -71 -34q-19 0 -31 11q-14 11 -14 38q0 32 24 99q13 36 37.5 91t42.5 92l18 37q-43 -43 -101 -58q-21 -6 -36 -6q-20 0 -29.5 10.5t-6.5 26.5q7 42 47 93t80 73q21 11 40 11
q26 0 38 -17q8 -6 11 -20t2 -24l-1 -11q11 21 26 29q10 6 25 -9q10 -9 1 -11q-30 -12 -109 -168q-83 -166 -88 -236q-3 -31 25 -31q21 0 45 18q40 29 73 68t36 76q2 29 -15 37t-30 2q-10 -5 -11 3q0 5 7 11zM152 174q20 14 38 32t26 29l9 11l-13 -1q-4 1 -2 7q10 26 -5 46
q-3 5 -11 7t-24 -3t-35 -19q-29 -21 -65 -74t-26 -66q10 -12 43.5 -1.5t64.5 32.5z" />
    <glyph glyph-name="r.start" horiz-adv-x="226" 
d="M211 354q27 2 37 -11.5t4 -25.5q-4 -9 -13 -9t-13 9q-2 11 -6 13.5t-12 -0.5q-53 -5 -119 -91q-19 -25 -40 -67.5t-26 -49.5q-8 -10 -21.5 -6t-7.5 19l7 16q7 16 9 23t6.5 27t6.5 44q2 19 -4.5 34.5t-16.5 21t-18 -0.5q-3 -2 -4 3q-2 14 10 21q2 1 4 1q13 2 29.5 -9.5
t22.5 -38.5q2 -13 1.5 -28t-1.5 -28l-2 -13q3 6 8.5 15t23 33.5t36 43.5t45.5 35.5t54 18.5z" />
    <glyph glyph-name="s.start" horiz-adv-x="241" 
d="M231 345q-5 -11 -16.5 -13.5t-20.5 1t-10 8.5q0 2 7 5t9.5 5t-2.5 8q-14 11 -45 11q-47 0 -79 -21q-30 -17 -30 -48q0 -24 18 -47q36 -42 57 -84l53.5 24.5t55.5 26t33 19.5q11 8 18 -1q4 -5 0 -8q-20 -18 -127 -72l-24 -12l1 -1q5 -18 5 -35q0 -47 -52 -71
q-23 -11 -50 -11q-21 0 -35 8.5t-15 21.5q-1 20 18 40t35.5 29.5t44.5 23.5l18 9q-18 39 -57 84q-21 27 -21 56q0 24 16 46q39 52 118 46q30 -1 49.5 -10.5t25.5 -19.5t2 -18zM105 87q10 18 2 50q-25 -12 -41 -20.5t-32.5 -19t-23.5 -20t-3 -17.5q2 -7 22.5 -8t44 8t31.5 27
z" />
    <glyph glyph-name="t.start" horiz-adv-x="327" 
d="M107 332q18 3 41.5 8t70.5 13q11 22 23.5 44.5t23.5 40l20 31t15 23.5l6 9q4 4 12.5 6.5t15 -1t2.5 -16.5q-5 -12 -74 -128q26 6 46.5 11.5l28.5 7.5t14 2q15 0 21 -13q1 -6 -4 -7q-5 0 -21 -3.5t-44.5 -10.5t-53.5 -12l-37 -56q-24 -40 -30 -84q-7 -41 17 -41q9 0 28 8
q68 30 120 74q14 12 14 2q1 -9 -10 -19q-53 -48 -119 -78q-19 -8 -35 -8q-22 0 -31 17q-7 16 -7 30q0 24 14 66q-45 -62 -110 -130q-19 -19 -32.5 -23.5t-18.5 -1.5t-13 11q-6 8 7.5 12.5t24.5 4.5q3 0 13 8t26 25t33 38q9 12 30.5 38.5l39 48t25.5 32.5l9 18
q-61 -12 -75 -14q-5 -1 -20 -3.5t-29.5 -4t-26.5 -1.5q-33 0 -43 15q-6 13 10.5 16t32.5 -2q12 -3 24.5 -3.5t18.5 0.5h7z" />
    <glyph glyph-name="u.start" horiz-adv-x="319" 
d="M335 235q11 11 20 5q7 -5 -3 -17q-13 -14 -47.5 -38.5t-58.5 -34.5q-19 -7 -29 -7q-20 0 -23 23q-2 12 3 34t11 38l6 16q-64 -77 -115 -118q-30 -23 -54 -23q-31 0 -24 41q5 28 23 64.5t31.5 61.5t11.5 32q-7 7 -19.5 3t-33 -13t-27.5 -9q-17 0 -19 11q3 7 11 9
q8 0 41.5 14.5t42.5 14.5q14 0 22.5 -11t0.5 -35q-5 -15 -28 -58t-30 -65q-8 -23 -3.5 -30.5t31.5 5.5q31 18 72.5 63.5t67.5 87.5q16 24 33 13q11 -7 7 -19q-1 -2 -7.5 -18l-13 -31.5t-13 -34.5t-7.5 -29t4 -14q13 -4 55 23t61 46z" />
    <glyph glyph-name="v.start" horiz-adv-x="244" 
d="M231 359q-5 11 0.5 17t20.5 -5q15 -15 1 -52.5t-51 -80.5q-33 -42 -71 -72.5t-59 -38.5q-18 -6 -29 3t-7 32q1 14 12.5 51.5l20 66.5t4.5 31q-10 4 -29 -5t-27 -16q-7 -6 -11 5q-3 10 5 18q27 20 73 26q15 2 18 -10t-1 -28q-51 -143 -41 -150q14 -6 59 34t66 70
q3 5 10.5 14.5t12 16l11 15.5t9.5 16.5t5.5 15t2 14.5t-4.5 12z" />
    <glyph glyph-name="w.start" horiz-adv-x="351" 
d="M350 339q-2 19 10 20t15 -15q1 -2 1 -5q-2 -36 -46.5 -98t-95.5 -93q-30 -18 -50 -18t-35 24q-5 6 -7 17t-2 19l1 7q-38 -55 -87 -81q-25 -13 -42.5 3t-9.5 49q5 24 22.5 58.5l29.5 57.5t8 26q-7 6 -26.5 1.5t-25.5 -9.5q-8 -6 -13.5 1.5t7.5 18.5q9 9 46 13t41 -10
q2 -14 -30 -76.5t-37 -80.5q-7 -27 6 -32t34 12q25 19 66 70t43 66q4 13 21 5q16 -7 10 -17l-2 -2q-34 -51 -34 -86q-3 -28 20 -28q18 0 43 19q41 31 81.5 83.5t37.5 80.5z" />
    <glyph glyph-name="x.start" horiz-adv-x="314" 
d="M338 238q15 11 19 3q2 -5 -7 -14q-64 -64 -146 -74q-20 -2 -29 -2q-50 0 -93 23q-29 -38 -90 -130q-2 -4 -1 -4l4 1q1 -1 0 -3q-6 -17 -32 -38q-10 -6 -17 -2.5t-5 12.5q0 3 19 31t49.5 69l57.5 75q-53 41 -66 102q-4 15 -4 33q0 48 21 63q15 10 28 -3q7 -7 1 -8
q-8 -3 -18 -22.5t-8 -44.5q0 -25 13.5 -55t42.5 -50q3 5 11.5 16l11.5 15q36 48 101.5 116t89.5 74q15 5 20 -9q6 -15 -15 -24q-57 -23 -150 -135l-30.5 -36.5l-22.5 -26.5q36 -20 78 -20q17 0 36 3q28 4 53 14t36.5 17.5t26.5 20.5z" />
    <glyph glyph-name="y.start" horiz-adv-x="292" 
d="M277 274q-24 -102 -50 -164q2 -1 6 -1q41 -5 72 -33.5t24 -51.5q-4 -11 -11.5 -15t-15.5 3q-4 3 -2.5 6.5t4.5 5.5l4 3q1 5 0 12.5t-16.5 23.5t-45.5 24q-9 2 -27 4q-17 -42 -45 -81q-13 -19 -26.5 -35l-23.5 -27.5t-22.5 -22l-19 -16t-18 -12l-15 -8.5t-14 -7t-11.5 -5
q-19 -7 -28 -7q-22 0 -21 24q-3 20 21 66t63 82q83 69 147 69q15 34 23.5 64.5t10.5 44.5l1 13q-48 -36 -91 -61q-84 -48 -119 -54q-25 -5 -25 20q0 13 7 28q4 9 43 68t45 75l11 34q-15 -10 -19 0q-4 16 16 24q7 -1 9 -1t8.5 -2.5t8.5 -8t2 -13.5q0 -17 -20.5 -54.5
t-41.5 -65.5q-6 -8 -15 -22t-13.5 -20t-10.5 -16.5t-5 -12t2 -6.5q37 0 124 60q63 39 91 79q2 9 9.5 10t13.5 -5t6 -15zM165 33q15 25 31 57q-45 -7 -108 -54q-22 -16 -46 -47t-36.5 -58.5t-1.5 -32.5q16 -9 72.5 36t88.5 99z" />
    <glyph glyph-name="z.start" horiz-adv-x="278" 
d="M296 235q11 11 15 3t-11 -23q-26 -26 -108 -72q-24 -58 -69 -112t-102 -82q-39 -19 -65 -19q-37 0 -37 31q0 18 15 40q22 34 84.5 75.5t118.5 66.5q7 3 20 10t21 10q1 3 5.5 13.5t5.5 15.5q8 22 -8 25t-41 -7q-17 -7 -40.5 -20t-28.5 -15q-12 -2 -12.5 11.5t12.5 20.5
q14 8 40.5 34t46.5 48l20 22q-55 -35 -105 -38q-44 0 -58 21q-5 10 7 15q5 2 5 -1q7 -13 40 -13q20 0 44 7q67 24 131 67q4 3 11 -1.5t9 -10.5t-6 -11q-17 -10 -48.5 -40l-55.5 -54l-23 -25q34 17 58 17q25 0 25 -26q0 -13 -8 -40v-3q73 41 92 60zM0 -36q109 51 164 167
q-68 -26 -133.5 -72t-84.5 -78q-13 -22 3 -28q15 -6 51 11z" />
    <glyph glyph-name="a.end" horiz-adv-x="281" 
d="M127 305q13 -2 14.5 -15t-8.5 -17q-13 -2 -57.5 -29.5t-62.5 -49.5q-13 -16 -13 -26q0 -5 4 -7t12 0t21 8q40 19 84.5 61.5t58.5 66.5q4 8 16 5q17 -5 4 -26q-14 -24 -14 -47q0 -47 54 -54t100 14.5t44 45.5q-2 21 6 24q4 2 7 -6q2 -8 2 -21q0 -34 -43 -57.5t-93 -23.5
q-19 0 -39 5q-33 9 -48.5 30t-15.5 37l1 16q-8 -9 -21.5 -23t-50 -41.5t-66.5 -35.5q-24 -7 -36 1.5t-10 22.5q3 31 45 77q28 31 58.5 48t46.5 17z" />
    <glyph glyph-name="b.end" horiz-adv-x="252" 
d="M41 226q82 61 137 76q20 4 37 4q31 0 34 -22q1 -10 -3 -21t-9 -17l-5 -5q13 -6 88 29q16 8 17 0q2 -6 -13 -18q-11 -9 -37 -19t-46 -15l-20 -6q-71 -58 -97 -73q-11 -7 -20 -7.5t-13.5 2.5t-3.5 8t3 9.5t6.5 9.5t8 8l12 10t13.5 12q13 10 28.5 19t25.5 13l9 4l2.5 2.5
t5.5 6.5l7.5 9t8 10.5t6 11t3.5 9t-1 6.5q-7 5 -23 3.5t-46.5 -15t-63.5 -34.5q-34 -22 -59.5 -51.5t-36.5 -51.5q-9 -18 -23 -13q-12 4 -3 15q3 5 12.5 24l24 49t27.5 53q26 47 71 146.5t49 117.5q4 14 18 10q17 -6 11 -30q-5 -14 -40.5 -84l-68.5 -133z" />
    <glyph glyph-name="c.end" horiz-adv-x="219" 
d="M51 238q-3 -4 -6.5 -10t-8.5 -22t-2 -29q6 -29 53 -29q15 0 47 5q60 10 112.5 39.5t68.5 57.5q12 18 6.5 29t-20.5 14q-14 2 -14 9q0 6 11 6q13 0 29 -9.5t16 -29.5q0 -13 -7 -28q-19 -39 -96 -77.5t-147 -38.5q-17 0 -32 3q-54 9 -54 59q0 30 18 57q17 28 43.5 48
t46.5 22q15 3 25 -8q7 -8 -5 -13q-28 -12 -49 -25.5t-28 -21.5z" />
    <glyph glyph-name="d.end" horiz-adv-x="236" 
d="M107 305q14 2 17 -14.5t-10 -20.5q-30 -4 -63.5 -34t-47.5 -61q-21 -46 32 -22q37 16 85 63q22 129 59 222q28 74 62 105t60 22q21 -5 21 -47q0 -24 -8 -53q-21 -75 -97 -171q-43 -56 -78 -89q-26 -132 -18 -161q5 -15 10.5 -6t7.5 6q6 -6 -1.5 -20.5t-16.5 -11.5
q-18 8 -18 52q0 21 5 68q2 22 6 50q-44 -38 -84 -54q-15 -7 -29 -7q-23 0 -24 27q-2 39 45 95.5t85 61.5zM156 276q-3 -10 -7 -30l53 64q80 100 97 194q3 23 -2.5 33.5t-21.5 2.5q-37 -18 -69.5 -97.5t-49.5 -166.5z" />
    <glyph glyph-name="e.end" horiz-adv-x="161" 
d="M29 215l-1 -1q-16 -56 36 -59q45 -2 118 34t80 55q9 23 15 14q3 -4 2 -14q-2 -26 -82.5 -70.5t-136.5 -40.5t-56 58q0 55 44 109q21 25 45 25q14 0 23 -9t6 -21q-6 -25 -37 -47.5t-56 -32.5zM61 279q-17 -26 -21 -34q47 23 57 45q6 15 -4 15q-13 0 -32 -26z" />
    <glyph glyph-name="f.end" horiz-adv-x="180" 
d="M-95 113q18 9 87 23q21 88 52 163q40 100 79.5 168.5t68.5 92.5q15 12 28 12q16 0 25 -17q9 -18 -3.5 -69t-46.5 -105q-26 -42 -65 -81.5t-61 -56t-31 -21.5l-24 -81q79 15 121 15q23 0 36 -5q18 -7 12 -16t-26 -4q-13 4 -30 4q-8 0 -86 -10q-12 -2 -32 -6
q-16 -65 -16 -103q0 -40 18 -45q14 -4 7 -19q-8 -17 -24 -9q-2 1 -3 2q-18 12 -18 61q0 43 14 107q-16 -4 -37.5 -11l-27.5 -9q-19 -3 -23 8q-3 7 6 12zM137 444q-60 -111 -88 -191q87 71 137 153q19 31 30.5 65.5t11.5 53t-6 23.5q-11 2 -35.5 -27.5t-49.5 -76.5z" />
    <glyph glyph-name="g.end" horiz-adv-x="298" 
d="M147 318q19 -2 23 -18q3 -13 -9 -14h-5q-14 4 -59.5 -23t-62.5 -46q-18 -25 -18 -37q0 -19 36 -10q43 15 116 84q4 5 10.5 8.5t12.5 5t10 -2t4 -11.5q-1 -47 -14 -100q62 22 104 22q44 3 52 -17q4 -10 -5 -18q-12 -12 -27.5 -12.5t-16.5 7.5q-1 3 4.5 6.5t9 5t-1.5 5.5
q-6 2 -21 1t-45 -8t-60 -19q-37 -128 -106 -226q-48 -67 -81 -88.5t-61 -4.5q-19 12 -19 47q0 83 94 185q64 67 154 104q7 24 10.5 43.5t3.5 29.5t-3 11q-3 0 -22.5 -16t-49.5 -36.5t-55 -28.5q-56 -7 -56 27q0 10 6 28q12 43 68 81t80 35zM43 -111q69 89 113 226
q-45 -20 -87 -52q-73 -59 -107 -125.5t-24 -97.5q6 -19 23 -19q31 0 82 68z" />
    <glyph glyph-name="h.end" horiz-adv-x="248" 
d="M55 246q-42 -50 -38 -63q1 -2 4 -1q7 1 64.5 47.5t75.5 55.5q16 8 30 8q24 0 24 -17q1 -6 -10 -37t-12 -50q-1 -13 11.5 -19.5t33.5 -6.5q27 0 58.5 9.5t49.5 23.5q21 16 23 7q2 -8 -14 -22q-15 -14 -50 -25.5t-67 -11.5q-45 0 -62 24q-9 13 1.5 53t10.5 46
q0 20 -168 -118q-13 -11 -23.5 -9.5t-12.5 14.5q-1 9 10 33.5t30.5 59.5t25.5 47q12 20 36 70l46.5 97t23.5 50q4 8 11 15t12.5 3t2.5 -24q-2 -29 -39.5 -113.5t-87.5 -145.5z" />
    <glyph glyph-name="i.end" horiz-adv-x="170" 
d="M102 337q4 12 11.5 19t13.5 7h3h5t3.5 -1.5t2.5 -4t-1 -7.5t-5 -12q-9 -18 -12.5 -21t-10.5 1q-9 1 -11 4t1 15zM80 263q-1 -1 -9 -8t-14.5 -14.5t-13 -20.5t-8.5 -28q-1 -11 6 -17.5t21 -8.5t27 -2t28 1q107 10 151 66q10 12 8 20.5t-11 12.5q-6 1 -8.5 4.5t0.5 7
t10 3.5q13 -1 21.5 -9.5t8.5 -20.5q0 -14 -11 -28q-51 -68 -168 -76q-11 -1 -30 -1q-37 0 -55 9t-22 32q-9 43 39 91q12 11 27 -1q8 -6 3 -12z" />
    <glyph glyph-name="j.end" horiz-adv-x="212" 
d="M109 331q-1 -8 -16 -31.5t-34 -50.5t-22 -32q-6 -6 -33 -65q46 19 110.5 38.5t108 31.5t50.5 18q16 13 20 4q2 -5 -4 -12q-13 -17 -57.5 -30.5t-116 -33.5t-126.5 -48l-63 -135q-27 -60 -61 -107.5t-60 -64.5q-14 -10 -30 -10q-27 0 -27 39q0 12 3 29q6 28 36 80.5
t83.5 110.5t107.5 79q90 192 99 201q9 11 20.5 6.5t11.5 -17.5zM-219 -171q21 2 62 56.5t80 140.5q28 57 32 78q-47 -19 -118 -119q-68 -97 -70 -140q0 -17 14 -16zM123 417q-4 3 -4.5 8t0.5 9l1 3l3 3q10 29 26 29q9 -2 13 -19t-4 -19q-5 -1 -12.5 -7.5t-12 -9t-10.5 2.5z
" />
    <glyph glyph-name="k.end" horiz-adv-x="271" 
d="M216 332q9 0 12 -7t0 -14.5t-9 -7.5q-1 0 -12.5 -2t-23 -5t-27.5 -8.5t-34 -15t-34 -21.5q-43 -34 -43 -61q0 -34 62 -47q36 -8 75 -8q85 0 147 43q17 11 21 2q2 -7 -12 -20q-21 -20 -65 -33t-95 -13q-58 0 -109 17q-36 12 -48 50l-14 -32q-15 -34 -28 -67.5t-18 -42.5
q-4 -10 4.5 -11.5t1.5 -11.5q-7 -9 -13.5 -12t-10.5 0.5t-4 9.5q-2 2 -2.5 5t1 8.5l3 11t6 16l8.5 20.5l11 27.5l13 33.5q7 18 52 123.5l77 186.5t38 112q4 20 16 20q15 0 13 -35q0 -8 -2 -17q-15 -62 -125 -281q14 14 26 23q27 23 73.5 42t68.5 22z" />
    <glyph glyph-name="l.end" horiz-adv-x="205" 
d="M161 363q-78 -104 -116 -129q7 -42 29 -69q38 -47 99 -47q33 0 46 18q8 10 14 4q4 -6 -5 -19q-14 -24 -56 -24q-57 0 -101 44q-50 47 -50 124q0 59 28 125q21 54 61 106.5t61 66.5q17 15 37 15q25 0 28 -33q0 -76 -75 -182zM68 376q-28 -61 -26 -119q31 24 96 111
q59 79 76 156q6 28 -5.5 30t-27.5 -12q-57 -43 -113 -166z" />
    <glyph glyph-name="m.end" horiz-adv-x="393" 
d="M89 280q-7 -5 -23 -23.5t-26 -34.5q-7 -11 -11 -19.5t-7.5 -17.5t-3 -13.5t5.5 -4.5q5 -1 40.5 34.5l77 74.5t59.5 44q18 6 23.5 -3t-0.5 -23q-2 -5 -14 -31q-34 -70 -26 -70q9 2 64.5 55.5t59.5 54.5q7 3 14 1t9 -6.5t0 -9.5q-15 -21 -15 -60q0 -28 18 -36q22 -9 49 -9
q38 0 75.5 14.5t53.5 32.5q14 17 16 6q2 -7 -4 -14q-12 -20 -54.5 -40t-88.5 -20q-29 0 -50 8q-37 12 -37 60l6 38q-87 -84 -102 -96q-13 -8 -26 -2t-15 20t9 38.5t20 41.5t6 18q-5 1 -34.5 -26t-65.5 -63.5t-44 -43.5q-16 -16 -34 -16q-27 0 -20 33q5 21 31.5 71.5
t38.5 56.5q11 10 23 -5q8 -11 2 -15z" />
    <glyph glyph-name="n.end" horiz-adv-x="242" 
d="M56 290q5 8 15.5 5.5t8.5 -16.5q-3 -8 -21 -32l-33.5 -45t-14.5 -22q2 -1 28.5 20.5l62.5 50.5t56 40q11 6 21.5 7t15.5 -4t2 -15q-11 -28 -21 -61q-9 -19 -1 -28t16 -11t25 -2q21 0 59 10t46 28q6 13 10.5 3t-2.5 -21q-11 -20 -59 -33t-82 -8q-38 5 -38 37
q0 15 9.5 43.5t9.5 36.5q-54 -29 -147 -122q-7 -9 -26.5 -6.5t-19.5 15.5q-3 19 80 130z" />
    <glyph glyph-name="o.end" horiz-adv-x="229" 
d="M51 274q5 3 13 -1.5t10 -10.5t-7 -12q-22 -12 -37.5 -37t-19.5 -43t4.5 -22.5t34.5 5.5q45 19 87 59q-20 5 -33.5 21t-11.5 35t20 34t38 13q13 -2 21 -5t14.5 -12.5t8.5 -25.5t-12 -40q30 -5 73 24.5t49 52.5q0 9 8 10q11 1 9 -13q-5 -34 -56 -67t-103 -31
q-20 -24 -52.5 -46.5t-57.5 -30.5q-18 -6 -30 -6q-32 0 -34 33q-1 29 21 66.5t43 49.5zM117 251q12 -18 35 -19q14 17 17 33q2 16 -11 23.5t-26 -0.5q-10 -4 -15.5 -14.5t0.5 -22.5z" />
    <glyph glyph-name="p.end" horiz-adv-x="233" 
d="M103 323q-9 -14 -39 -57q33 21 72 26q33 4 55 -9.5t22 -36.5t-19 -43q-30 -34 -77.5 -50t-79.5 -16q-14 2 -16 11t10 18q36 18 41 11q1 -3 0 -7t-2 -5q-2 -2 -1.5 -2.5t3.5 0.5q1 0 10 2t17.5 4.5t20.5 7t25 13t25 20.5q16 15 16 32q0 12 -8 20t-21 8q-62 0 -125 -55
q-25 -46 -44 -89q-46 -106 -74 -180q0 -6 7 -1t8 1q2 -8 -10 -41.5t-19 -40.5q-11 -14 -24 6q-6 15 41 142q19 50 77.5 173t79.5 152q7 8 16.5 8.5t13 -6t-0.5 -16.5z" />
    <glyph glyph-name="q.end" horiz-adv-x="228" 
d="M49 232q-32 -33 -40 -59q-1 -7 -2 -11.5t2 -6.5t5 -2.5t8 1t10 3t11 4.5t13 6t12.5 8l10 7.5t10.5 10t9 9t11 11.5t10 12q6 6 24.5 29.5t25.5 28.5q4 6 12 7t14 -2.5t5 -7.5q-2 -18 -26 -40q-48 -51 -81 -102q-103 -165 -101 -246q1 -54 50 -39q45 14 117 85t85 128
q4 11 0.5 17t-6 8t-9.5 3t-8 1q-7 2 -8.5 7t5.5 7q6 2 17.5 4t21.5 -9.5t7 -35.5q-7 -52 -80 -130t-120 -99q-21 -9 -38 -9q-34 0 -46 24q-8 13 -8 38q0 42 23 98q8 23 29.5 65t39.5 73l18 30q-30 -20 -61 -27q-18 -4 -27 6.5t-5 35.5q3 25 32 65.5t81 64.5q11 6 19.5 1
t4.5 -19q-5 -7 -35 -24t-42 -29z" />
    <glyph glyph-name="r.end" horiz-adv-x="168" 
d="M71 295q0 -5 -9.5 -28.5t-19.5 -44.5l-10 -22q75 81 150 118q36 19 73.5 27.5t39.5 -0.5q4 -7 2.5 -13.5t-7 -11t-9.5 -2.5q-32 16 -113 -31q-41 -24 -76 -59.5t-52.5 -59t-22.5 -24.5q-14 -2 -21.5 4.5t-1.5 19.5l24 60t25 67q2 18 19 11q11 -5 9 -11z" />
    <glyph glyph-name="s.end" horiz-adv-x="165" 
d="M95 299q-34 -34 -49 -57q1 -7 6.5 -18.5t15 -29t14.5 -29.5q22 12 35 17q95 39 113 39q17 1 16 -11t-15 -15q-4 -1 -7 -1q-33 1 -130 -46l-2 -1l-2 -1q16 -40 4 -64q-14 -28 -63 -42.5t-72 -6.5q-12 8 -11.5 20t8.5 23q25 30 111 80q-3 7 -9 19q-3 6 -12 19t-13.5 21.5
t-8.5 25t4 28.5q9 23 23.5 37t25.5 18q13 5 19 -6.5t-1 -18.5zM-26 56q5 -11 42.5 0.5t53.5 27.5q18 19 5 54q-38 -21 -72.5 -47t-28.5 -35z" />
    <glyph glyph-name="s.end_alt" horiz-adv-x="119" 
d="M93 294q-1 -1 -10 -9t-18 -18t-18 -24q2 -3 0 -7q3 -9 19 -29.5t21 -29.5q31 16 42 31q10 14 16 5q8 -12 -8 -29q-9 -9 -42 -23q8 -19 -1 -38q-14 -28 -47 -37t-56 -1q-13 7 -13 21t13 25q6 6 16 11.5t17.5 8.5l23 9.5t21.5 8.5q-5 8 -17.5 24t-17.5 24q-16 25 -6 51
q15 39 47 51q13 5 19 -6.5t-1 -18.5zM2 105q7 -11 36 -2t38 28q4 10 1 22q-74 -31 -77 -43q0 -2 2 -5z" />
    <glyph glyph-name="t.end" horiz-adv-x="178" 
d="M32 383q7 -3 15 -3.5t17.5 0.5t11.5 1q57 108 66 117q9 10 14.5 13.5t8 0t-0.5 -18.5q-6 -24 -44 -109q28 0 75 9t66 17q16 6 20 -4q3 -8 -12 -13q-44 -16 -160 -31l-61 -122q-11 -26 -11 -52q0 -36 21 -56t50 -20q28 0 47 18q9 8 12 -3q2 -10 -7 -18q-19 -14 -48 -14
q-40 0 -64 23q-29 25 -29 78q0 44 21 108q11 29 25 57q-4 1 -13 0t-21 1t-16 7q-6 8 2 13t15 1z" />
    <glyph glyph-name="u.end" horiz-adv-x="242" 
d="M74 285q1 -6 -27 -52t-30 -60q0 -27 37 -2q6 3 12 8q20 15 41 38t38.5 45t18.5 23q6 6 12 6t9 -7.5t2 -19.5q0 -6 -9.5 -32t-9.5 -40q0 -25 25 -32q17 -5 49 -5q70 0 78 21q9 23 17 16q6 -5 1 -18q-16 -39 -96 -39q-27 0 -52 5q-44 9 -44 52q0 13 4 27.5t8 22.5l3 8
q-34 -55 -98 -99q-23 -15 -42 -15q-28 0 -24 37q2 19 14 45.5t24 47.5t13 24q2 10 13 7t13 -12z" />
    <glyph glyph-name="v.end" horiz-adv-x="186" 
d="M68 258q-3 -5 -7.5 -6t-7 -6t-5.5 -22q-6 -24 -6 -49q0 -15 3.5 -23t10.5 -6t40 35t63.5 78t23.5 68q-4 13 5 12q11 -2 15 -20q2 -6 1 -13q-3 -33 -61.5 -101.5t-80.5 -81.5q-24 -15 -37 23q-5 20 -5 47q0 58 20 89q14 19 25 2q7 -12 3 -26z" />
    <glyph glyph-name="w.end" horiz-adv-x="318" 
d="M63 272q0 -2 -23 -54q-24 -53 -6 -53h3q19 4 52.5 48.5t43.5 67.5q7 17 26 14q12 -2 9 -11q-11 -48 -11 -73q0 -42 23 -47q31 -4 84.5 62.5t53.5 100.5q-2 21 9 20q12 -6 15 -23q-2 -42 -58.5 -113.5t-95.5 -71.5q-31 1 -45.5 23.5t-13.5 44.5l1 22q-47 -58 -76 -81
q-15 -13 -31.5 -1.5t-14.5 41.5q2 28 14 59t12 34q1 6 9 6.5t14.5 -4t5.5 -11.5z" />
    <glyph glyph-name="x.end" horiz-adv-x="240" 
d="M212 336q19 4 21 -12q2 -11 -6 -12q-1 0 -3 1q-29 7 -110 -96l-29 -37q46 -21 91 -21q40 0 71.5 14t41.5 27q6 8 7.5 15.5t-0.5 12t-5 4.5q-8 0 -4 5q6 6 15 4q9 -4 9 -23t-12 -32q-15 -18 -51 -32t-78 -14q-53 0 -97 24q-26 -34 -61 -95q-2 -4 0 -2q9 5 9 1v-2
q0 -10 -15 -24.5t-23 -4.5q-10 20 73 139q-34 30 -38 82q0 25 6 43q1 8 7 12.5t12 3t7 -6.5q6 -16 6 -35q0 -23 -9 -38q-3 -25 21 -45q44 57 86 99.5t58 44.5z" />
    <glyph glyph-name="y.end" horiz-adv-x="275" 
d="M87 285q-1 -7 -13.5 -17.5t-15.5 -14.5q-1 -2 -8.5 -14t-12.5 -21t-11 -23.5t-5.5 -22t5.5 -15.5q15 -15 90 32q76 51 81 78q2 12 12 1q12 -14 8 -35q-1 -3 -5 -27t-10.5 -53t-15.5 -58q24 8 57 8q63 0 83 -30q13 -19 0 -23q-11 -4 -15 9q-7 25 -65 25q-46 0 -67 -13
q-28 -82 -69 -143q-39 -57 -80 -86t-74 -29q-16 0 -29 8q-12 7 -12 28q0 37 39.5 91.5t114.5 106.5q40 26 91 41q9 29 16 61t9.5 48.5t2.5 19.5q-41 -41 -84 -61q-43 -24 -70 -24q-21 0 -31 14q-16 17 5 68t44 77q9 11 18 12t14 -5t3 -13zM49 6q-72 -59 -104 -123
q-24 -48 4 -49q55 -1 103.5 56.5t83.5 136.5q9 18 15 36q-57 -18 -102 -57z" />
    <glyph glyph-name="z.end" horiz-adv-x="176" 
d="M88 294q-11 -11 -29 -44.5t-31 -61.5l-13 -29q45 35 91 35q48 0 48 -39q0 -18 -12 -54q-10 -24 -15 -35q49 10 84 10q61 0 79 -27q9 -13 -0.5 -20.5t-17.5 6.5q-14 22 -54 22q-36 0 -100 -14q-46 -93 -108 -155.5t-102 -75.5q-29 -9 -37 4t-4 33q3 14 15.5 38.5t37 58
t69 64.5t99.5 47q1 0 6 1.5t8 2.5q17 38 23.5 68t-1.5 36q-19 13 -57 -3.5t-56 -34.5q-8 -9 -19.5 -6.5t-6.5 16.5q42 119 68 160q13 20 32 13q14 -5 3 -16zM-57 -61q-21 -22 -37 -47.5t-19.5 -40.5t3.5 -20q16 -5 66.5 38.5t98.5 107.5q13 18 35 58q-77 -21 -147 -96z" />
    <glyph glyph-name="a.alt01" horiz-adv-x="270" 
d="M129 275q-42 0 -84 -43q-43 -43 -44 -69q-1 -8 6 -10q27 -9 81 49q82 88 96 107q6 8 18.5 2.5t9.5 -13.5l-9.5 -18.5l-16 -31.5t-12.5 -34t-3 -32q8 -43 86 25q18 15 32 30q11 14 17 5q4 -7 -5 -18q-11 -14 -27 -30.5t-47 -35t-54 -12.5q-28 8 -28 42q0 13 3.5 28t7.5 24
l4 9q-64 -82 -118 -110q-21 -11 -35 -11q-33 0 -21 50q7 30 49 79t77 55q18 1 23 -20q3 -17 -6 -17z" />
    <glyph glyph-name="e.alt01" horiz-adv-x="173" 
d="M3 183q1 38 28 78t60 51q20 7 32.5 -2.5t-0.5 -38.5q-11 -24 -38.5 -39t-51.5 -17q-8 -19 -8 -35q0 -32 44 -26q32 4 66.5 26.5t57.5 53.5q6 10 14 6q4 -2 2 -8q-8 -26 -50.5 -59.5t-85.5 -39.5q-33 -5 -52 8.5t-18 41.5zM106 287q-4 4 -13 3t-23.5 -15t-26.5 -35
q24 5 45.5 21t17.5 26z" />
    <glyph glyph-name="d.alt01" horiz-adv-x="264" 
d="M305 600q28 12 28 -36q0 -24 -11 -86q-22 -122 -91 -201q-16 -19 -62 -58q-9 -20 -14.5 -54.5t-6 -56t0.5 -28.5q2 -3 4 -4t5 0.5t5.5 3.5l6 5t5.5 4q9 6 9 -2q0 -7 -9 -18q-17 -20 -32 -11.5t-15 34.5q0 54 12 104q-63 -49 -93 -58q-41 -12 -44 30q-2 34 20 74t62 70
q51 31 58 11q5 -23 -20 -32q-26 -5 -58 -32q-40 -35 -43 -85q0 -10 5 -13t14 -1t23 9q36 18 82 61q10 39 41 135q30 93 65 157.5t53 77.5zM285 416q8 28 13.5 51t8 38t3.5 26.5t1 18t-1 10t-2 5.5v2q-2 3 -12.5 -11.5t-29.5 -51t-36 -82.5q-2 -6 -17 -44.5t-25 -70
t-11 -52.5q33 25 64.5 71.5t43.5 89.5z" />
    <glyph glyph-name="g.alt01" horiz-adv-x="284" 
d="M165 303q-11 2 -43.5 -17t-58.5 -43q-25 -18 -45.5 -46.5t-12.5 -37.5q13 -16 103 46q19 14 39 31l35 30.5t19 16.5q12 10 24 1q6 -4 3 -10q-31 -102 -34 -116q28 24 54.5 43t40 27.5t15.5 10.5q18 14 27 10q7 -4 -10 -21l-59.5 -45.5t-80.5 -63.5q-17 -78 -55.5 -148
t-70.5 -96q-22 -17 -38 -17q-31 0 -17 54q10 40 55.5 101t108.5 119q24 99 21 101q-2 2 -23.5 -16.5t-60 -45t-75.5 -37.5q-23 -7 -37 6.5t-5 40.5q11 35 72.5 92.5t93.5 61.5q24 2 26 -16q1 -15 -11 -16zM153 91l-26 -26q-64 -70 -101 -138q-25 -47 -6 -47q34 0 95 117
q29 58 38 94z" />
    <glyph glyph-name="r.alt01" horiz-adv-x="208" 
d="M73 304q0 -5 -8.5 -23l-16.5 -34l-8 -16q34 37 72 64q62 44 99 31q19 -7 10 -23q-9 -14 -19 -8q-2 1 -3 2q-3 5 -20.5 4.5t-33.5 -10.5q-57 -33 -94 -81q-14 -18 -23 -34.5t-15 -31.5t-7 -17q-4 -8 -14 -5t-9 13q1 13 31.5 86.5t33.5 87.5q2 11 12.5 8t12.5 -13z" />
    <glyph glyph-name="A_t" horiz-adv-x="675" 
d="M491 564q-38 -71 -67 -243q71 0 71 -12q0 -6 -6 -7.5t-27 -1.5h-41q-12 -59 -12 -105q0 -37 14.5 -61t39.5 -24q5 0 12 3.5t10 3.5q5 0 5 -8q0 -7 -7.5 -14t-19.5 -7q-32 0 -54 29.5t-23 75.5q-1 35 10 107q-107 0 -190 -9l-111 -119l-102.5 -110t-41.5 -36q-16 0 -16 21
q0 12 6.5 23.5t13 17.5t8.5 6q3 0 3 -8q0 -4 -2 -10l-2 -7q0 -2 2 -2l203 221q-129 -12 -190 -31q-6 -2 -7 -2q-12 0 -12 16q0 12 13 16l138 19q45 5 81 8l164 173.5t106 101.5q9 6 20 6q15 0 15 -17q0 -7 -4 -14zM399 321q10 52 25 111t26 92l10 33q-3 -1 -50.5 -48
l-105.5 -106.5t-83 -87.5q72 6 147 6h31zM672 360q-20 -4 -41 -6t-32 -2h-11q-3 -6 -15 -33l-21 -47t-18 -47.5t-12 -47.5q-3 -29 25 -29q24 0 54 21q30 20 51 48q12 16 13 2q1 -8 -4 -17q-12 -24 -42 -46t-52 -26q-31 -6 -51 4t-16 42q3 21 11.5 47.5t16 44.5l20.5 47
t17 39q-32 2 -50 17q-14 12 -5 26q5 7 10 2q22 -23 56 -22q52 118 79 146q12 13 23 2q7 -6 1 -13q-30 -31 -79 -136q75 1 171 33q14 5 16 -5q2 -11 -19 -19q-1 -1 -2 -1q-26 -11 -94 -24z" />
    <glyph glyph-name="I_t" horiz-adv-x="350" 
d="M87 116q8 5 9 -3q1 -6 -3 -11q-17 -17 -50 -3q-8 3 -14 12q-34 -25 -71 -39.5t-60 -10.5q-33 4 -33 38q0 27 19 37q14 10 16 -1q1 -6 -4 -10q-12 -5 -14 -19t11 -19q38 -16 111 35l6 4l9 7q-6 21 -6 52q0 48 16 108q25 88 86 192.5t91 117.5q39 18 46 -3
q9 -25 -16.5 -110t-55.5 -153q-57 -130 -119 -198l-14 -14q1 -4 5 -6q18 -14 35 -3zM52 287q-16 -58 -16 -102q0 -21 3 -34q65 63 103 155q39 96 67.5 183.5t13.5 90.5q-20 4 -84.5 -107t-86.5 -186zM373 358q-20 -4 -41 -6t-32 -2h-11q-3 -6 -15 -33l-21 -47t-18 -47.5
t-12 -47.5q-3 -29 25 -29q24 0 54 21q30 20 51 48q12 16 13 2q1 -8 -4 -17q-12 -24 -42 -46t-52 -26q-31 -6 -51 4t-16 42q3 21 11.5 47.5t16 44.5l20.5 47t17 39q-32 2 -50 17q-14 12 -5 26q5 7 10 2q22 -23 56 -22q52 118 79 146q12 13 23 2q7 -6 1 -13q-30 -31 -79 -136
q75 1 171 33q14 5 16 -5q2 -11 -19 -19q-1 -1 -2 -1q-26 -11 -94 -24z" />
    <glyph glyph-name="d_d" horiz-adv-x="526" 
d="M567 600q28 12 28 -36q0 -24 -11 -86q-22 -122 -91 -201q-16 -19 -62 -58q-9 -20 -14.5 -54.5t-6 -56t0.5 -28.5q2 -3 4 -4t5 0.5t5.5 3.5l6 5t5.5 4q9 6 9 -2q0 -7 -9 -18q-17 -20 -32 -11.5t-15 34.5q0 54 12 104q-63 -49 -93 -58q-41 -12 -44 30q-1 11 2 26
q-44 -40 -80 -50q-43 -13 -46 49q-1 11 2 30q-18 -20 -26 -27l-30 -28.5t-24.5 -19t-31.5 -17.5q-49 -20 -45 31q5 48 58 103q44 46 80 46q12 -1 16 -7t1 -11.5t-8 -7.5q-38 -13 -80 -48q-19 -16 -31.5 -36.5t-14 -33.5t3.5 -18q4 -2 17.5 4.5t34 21.5t38.5 34l48 50
q11 58 33 117q12 40 40.5 97.5t49.5 77.5q14 13 27 13q11 0 18 -9.5t7 -21.5q0 -24 -19 -74.5t-51 -93.5q-36 -52 -85 -112q-10 -52 -3 -81q6 -23 61 15q35 24 51 46q1 3 4 4q22 42 65 75q51 31 58 11q5 -23 -20 -32q-26 -5 -58 -32q-40 -35 -43 -85q0 -10 5 -13t14 -1t23 9
q36 18 82 61q10 39 41 135q30 93 65 157.5t53 77.5zM547 416q8 28 13.5 51t8 38t3.5 26.5t1 18t-1 10t-2 5.5v2q-2 3 -12.5 -11.5t-29.5 -51t-36 -82.5q-2 -6 -17 -44.5t-25 -70t-11 -52.5q33 25 64.5 71.5t43.5 89.5zM252 400q20 36 34 70t16 50t-2 19q-19 0 -54 -66
t-54 -130q-3 -8 -14 -51q42 51 74 108z" />
    <glyph glyph-name="e_e" horiz-adv-x="354" 
d="M184 183q0 5 2 17q-63 -51 -116 -62q-26 -8 -47 3.5t-18 39.5q9 65 62 112q36 32 68 21q20 -8 6 -40t-42 -49q-16 -9 -34.5 -12t-25.5 3q-1 -3 -3.5 -7t-5 -10.5t-3.5 -17.5q0 -5 1 -8.5t2 -6t3.5 -4t4 -2.5t5 -1.5t5 -0.5h6h5.5q24 1 67 26t70 48q28 62 76 80
q20 7 32.5 -2.5t-0.5 -38.5q-11 -24 -38.5 -39t-51.5 -17q-8 -19 -8 -35q0 -32 44 -26q32 4 66.5 26.5t57.5 53.5q6 10 14 6q4 -2 2 -8q-8 -26 -50.5 -59.5t-85.5 -39.5q-33 -5 -52 8.5t-18 41.5zM73 268q-8 -7 -20 -26q11 -16 37 3q16 11 27 26t6 23q-3 6 -19.5 -3.5
t-30.5 -22.5zM287 287q-4 4 -13 3t-23.5 -15t-26.5 -35q24 5 45.5 21t17.5 26z" />
    <glyph glyph-name="g_g" horiz-adv-x="544" 
d="M425 303q-11 2 -43.5 -17t-58.5 -43q-25 -18 -45.5 -46.5t-12.5 -37.5q13 -16 103 46q19 14 39 31l35 30.5t19 16.5q12 10 24 1q6 -4 3 -10q-31 -102 -34 -116q28 24 54.5 43t40 27.5t15.5 10.5q18 14 27 10q7 -4 -10 -21l-59.5 -45.5t-80.5 -63.5q-17 -78 -55.5 -148
t-70.5 -96q-22 -17 -38 -17q-31 0 -17 54q10 40 55.5 101t108.5 119q24 99 21 101q-2 2 -23.5 -16.5t-60 -45t-75.5 -37.5q-23 -7 -37 6.5t-5 40.5v1q1 2 1 3q-10 -7 -35.5 -22.5l-40.5 -24.5q-15 -49 -24 -69q-18 -45 -46 -83t-54.5 -58.5t-45.5 -31.5t-28 -13
q-16 -6 -29 3.5t-8 36.5q10 53 85 128q68 61 132 101q5 20 8.5 41t4.5 32l1 11q-8 -9 -22 -22.5t-51.5 -39t-68.5 -32.5q-27 -6 -37.5 7t-2.5 36t48.5 64.5t81.5 54.5q25 9 34 -14q7 -17 -4 -22q-2 -1 -4 -1q-37 0 -80 -28.5t-56 -56.5q-11 -24 7 -22q14 1 56 22
q13 7 31.5 22t33 28.5l29.5 28.5l17 17q6 8 16 -2q9 -10 1 -21q-3 -5 -4.5 -16l-4 -30.5t-8.5 -40.5q90 54 100 65l1 1l1 1q30 36 69.5 66.5t61.5 33.5q24 2 26 -16q1 -15 -11 -16zM113 46q24 51 30 76q-41 -25 -99 -76q-19 -16 -36.5 -35.5t-28.5 -37t-18.5 -33.5
t-7.5 -25.5t4 -13.5q17 -7 73.5 42.5t82.5 102.5zM413 91l-26 -26q-64 -70 -101 -138q-25 -47 -6 -47q34 0 95 117q29 58 38 94z" />
    <glyph glyph-name="s_s.alt" horiz-adv-x="372" 
d="M282 348q8 0 14 -7t6 -13.5t-2 -8.5l-20 -5q-19 -5 -24 -15q-6 -18 44 -90l14 -21q58 32 76 50q13 10 13 -1q0 -7 -5 -14q-16 -24 -75 -55q11 -31 -6 -61q-26 -44 -66 -65.5t-58 -18.5q-19 2 -19 24q0 27 42 72q24 25 78 58q-8 13 -30 46t-30 48q-23 -30 -127 -121
q7 -14 7 -25q0 -31 -23 -50.5t-46 -22.5q-11 -1 -17 5.5t-6 18.5q0 18 11 34q9 13 43 44l-11 11l-9 9l-12 12t-9 10.5t-8.5 13.5t-3.5 12.5t-2 15.5q2 34 31.5 68t53.5 42q19 7 28 -15q5 -14 -2 -14q-8 0 -27 -12t-31 -26q-2 -2 -9.5 -10t-9 -10.5t-7 -11t-4 -12t0.5 -14.5
q1 -11 7 -19.5t22 -21.5t18 -15q105 90 135 126v6q2 25 20.5 38.5t34.5 10.5zM309 142q-1 3 -5 16q-1 0 -2 -1l-2 -1q-41 -20 -88 -75q-30 -36 -19 -38q20 -4 68.5 32.5t47.5 66.5zM91 113q3 11 -1 22q-45 -41 -48 -51q-3 -8 4 -7q18 1 36 20q8 9 9 16z" />
    <glyph glyph-name="t_t_alt" horiz-adv-x="242" 
d="M-17 402q29 -9 99 -9q31 73 39 89q6 11 16 7q13 -7 5 -33q-5 -16 -27 -64q27 0 123 -2q26 49 39 83q10 14 23 4q9 -8 4 -16q-22 -39 -39 -73q116 -4 136 -16q15 -12 5 -20q-5 -4 -10 0q-10 8 -83 16l-57 3q-34 -91 -50 -148q-33 -117 -33 -179q0 -33 13 -36q8 -1 1 -10
q-11 -14 -21 -2q-8 11 -9 39q-1 62 22.5 156.5t36.5 122.5q-77 -123 -139 -170q-17 -13 -33 -13q-20 0 -29 16q-15 26 13 108q3 12 41 105q1 6 5 13h-11q-61 2 -80 9q-12 5 -10 16q1 9 10 4zM221 358q2 4 8 14q-42 1 -123 1q-1 -2 -3 -6.5t-3 -6.5l-52 -115q-1 -2 -2 -4.5
t-4 -11l-5.5 -16t-5 -17.5t-3 -17.5t1.5 -14t7 -8.5q18 -8 34.5 5.5t49.5 53.5l15 18q39 47 85 125z" />
    <glyph glyph-name="z_z" horiz-adv-x="316" 
d="M337 231q13 15 20 8q4 -4 -4 -14l-92 -112q-20 -116 -46 -163q-29 -62 -64.5 -99t-57.5 -37q-27 3 -27 33q0 17 9 40q26 75 108 171l23.5 29.5t33.5 39.5l4 55q-81 -41 -93 -53q-5 -5 -14.5 -1t-11.5 13l-22 -28q-20 -116 -46 -163q-29 -62 -64.5 -99t-57.5 -37
q-27 3 -27 33q0 17 9 40q26 75 108 171l23.5 29.5t33.5 39.5l4 55q-81 -41 -93 -53q-6 -6 -17 1t-9 18q36 65 55 95q35 66 52 79q9 8 18 2t2 -17q-4 -9 -15.5 -26l-29 -41.5l-27.5 -39.5q-5 -10 -11.5 -20l-10.5 -16l-4 -6q18 13 93 51q7 2 16.5 -3t9.5 -15q0 -3 -1 -7.5
t-2.5 -13t-2.5 -17.5q20 25 53 61q12 21 18 29q35 66 52 79q9 8 18 2t2 -17q-4 -9 -15.5 -26l-29 -41.5l-27.5 -39.5q-18 -33 -27 -42l94 51q7 2 16.5 -3t9.5 -15q0 -3 -1 -7.5t-2.5 -13t-2.5 -17.5q34 42 70 78zM218 16q14 52 16 68q-57 -73 -69 -87q-67 -90 -75 -128
q-6 -24 0 -28.5t17 2.5q64 38 111 173zM60 16q14 52 16 68q-57 -73 -69 -87q-67 -90 -75 -128q-6 -24 0 -28.5t17 2.5q64 38 111 173z" />
    <glyph glyph-name="a.alt04" 
d="M271 222q3 15 12 14q11 -1 6 -18q-1 -2 -2 -5q-12 -26 -51 -48.5t-70 -22.5q-22 0 -30 15q-4 13 -1.5 29t7.5 30l5 15q-57 -69 -106 -85q-29 -10 -43 -2t-9 34q5 29 45 76t65 51q28 5 31 -13q1 -9 -5 -10q-8 0 -45 -26t-56 -51q-30 -42 -3 -41q6 0 14 3q52 16 137 125
q9 13 19.5 5.5t4.5 -20.5q-2 -4 -14.5 -22.5t-20 -38.5t-5.5 -42q2 -25 57 2q48 24 57 43q1 2 1 3z" />
    <glyph glyph-name="b.alt04" horiz-adv-x="172" 
d="M56 255l-21 -35q9 15 44 41q52 36 86 36q21 0 31 -17q6 -16 -2.5 -45t-31.5 -56q-31 -37 -61.5 -51.5t-39.5 2.5q-4 7 4 23t17 18q10 0 5 -13l-5 -13q17 -3 61 43q21 23 30 46.5t4 34.5q-6 9 -34 1t-50 -25q-10 -7 -19.5 -15t-16 -14.5t-14 -15l-11.5 -13t-10.5 -13.5
t-8 -11.5t-7.5 -11.5l-6 -9q-10 -23 -23 -16q-7 3 -6 10l41 84q10 20 61.5 152t57.5 141q7 15 15 13.5t8 -16.5q-2 -31 -38 -123t-60 -132z" />
    <glyph glyph-name="c.alt04" horiz-adv-x="209" 
d="M70 255q-36 -36 -42 -50q-20 -44 42 -48q80 -5 155 53q7 5 11.5 9.5t7 8t3.5 7t1 5v5v4.5q2 10 9 6q8 -4 6 -23q-6 -33 -66.5 -65t-118.5 -32q-16 0 -31 3q-46 10 -46 47q0 22 16 47q30 49 90 81q16 10 31 -4q8 -7 1 -11q-48 -23 -69 -43z" />
    <glyph glyph-name="d.alt04" horiz-adv-x="291" 
d="M305 600q27 12 27 -33q0 -15 -10 -87l-4 -20l-6.5 -24.5l-7 -24.5t-9.5 -28.5l-11.5 -27t-15 -29.5t-18.5 -27t-23 -28q-18 -18 -58 -52l-5 -17.5t-4 -14.5q-10 -44 -14.5 -99.5t0.5 -60.5q2 -3 4 -4t5 0.5t5.5 3.5l6 5t5.5 4q13 8 12 1q-1 -6 -9 -21
q-14 -23 -30.5 -11.5t-19.5 34.5q0 94 15 157q-57 -44 -93 -58q-41 -16 -44 30q-2 34 20 74t62 70q51 31 58 11q5 -23 -20 -32q-26 -5 -58 -32q-36 -31 -40 -81q-1 -17 5.5 -18.5t27.5 8.5q8 3 88 62q10 39 41 135q30 93 65 157.5t53 77.5zM285 416q7 27 12 50t7.5 38
t4 26.5t1.5 18t-0.5 10.5t-1.5 6v2q-2 3 -12.5 -11.5t-29.5 -51t-36 -82.5q-2 -6 -17 -44.5t-25 -70t-11 -52.5q33 25 64.5 71.5t43.5 89.5z" />
    <glyph glyph-name="e.alt04" horiz-adv-x="154" 
d="M125 274q-10 -26 -40 -41t-49 -13q-9 -18 -9 -32q0 -21 22 -28q24 -8 67.5 11t61.5 35q9 8 14 18l4 10q9 7 11 -4q3 -9 -7 -26q-12 -21 -61.5 -46.5t-78.5 -22.5q-24 2 -38.5 16t-14.5 38q0 17 7 35q10 28 30.5 55t47.5 38q19 7 32.5 -1.5t0.5 -41.5zM55 254
q-1 -2 -4 -6.5t-4 -6.5q13 0 36 16q11 8 18.5 17t8.5 14t0 8q-3 4 -12 0t-21 -15.5t-22 -26.5z" />
    <glyph glyph-name="f.alt04" horiz-adv-x="217" 
d="M-95 113q18 9 87 23q21 88 52 163q40 100 79.5 168.5t68.5 92.5q15 12 28 12q16 0 25 -17q9 -18 -3.5 -69t-46.5 -105q-26 -42 -65 -81.5t-61 -56t-31 -21.5l-24 -81q79 15 121 15q23 0 36 -5q18 -7 12 -16t-26 -4q-13 4 -30 4q-8 0 -86 -10q-12 -2 -32 -6
q-16 -65 -16 -103q0 -40 18 -45q14 -4 7 -19q-8 -17 -24 -9q-2 1 -3 2q-18 12 -18 61q0 43 14 107q-16 -4 -37.5 -11l-27.5 -9q-19 -3 -23 8q-3 7 6 12zM137 444q-60 -111 -88 -191q87 71 137 153q19 31 30.5 65.5t11.5 53t-6 23.5q-11 2 -35.5 -27.5t-49.5 -76.5z" />
    <glyph glyph-name="g.alt04" horiz-adv-x="252" 
d="M122 276q-15 -4 -55 -32q-47 -34 -57 -64q-5 -13 4 -16q6 -2 16 0.5t23 10t25 15.5t26.5 19.5l23.5 19l20 17t12 10.5q20 17 32 29l2 1h5.5t5.5 -0.5t5 -2t3.5 -3.5t1 -6t-2.5 -9q-29 -69 -37 -96q-12 -36 -19 -54q44 4 69 -28q9 -12 -2 -19q-11 -6 -16 4q-1 1 -1 3
q-3 10 -19 16t-39 3q-53 -135 -107 -183q-52 -52 -78 -21q-8 10 -8 34q0 35 18.5 75t57.5 70q43 32 102 42q12 35 20 61l19 60q-38 -32 -70 -54q-51 -35 -80 -38q-33 -3 -33 31q0 16 8 33q10 24 42.5 56.5t53.5 38.5q18 5 31 -11q7 -10 -2 -12zM76 72q-33 -17 -58.5 -44.5
t-34.5 -52.5q-24 -73 3 -73q12 -3 38.5 20.5t54.5 69.5q23 39 46 98q-25 -6 -49 -18z" />
    <glyph glyph-name="h.alt04" horiz-adv-x="243" 
d="M-9 148q-2 21 63.5 180.5t82.5 174.5q16 13 22.5 1.5t0.5 -27.5q-11 -28 -49.5 -112.5t-59.5 -117.5q-6 -10 -13.5 -29t-11.5 -34l-5 -14q68 84 120 121q8 6 14 0t4 -21q-6 -36 -6 -55q0 -37 19 -42q22 -6 58 17.5t35 37.5q-1 9 4 10q6 1 9 -9q2 -5 1 -10q-2 -17 -37 -42
t-64 -26q-26 -1 -35.5 19t-9.5 49l3 39q-70 -59 -111 -117q-9 -13 -21 -10.5t-13 17.5z" />
    <glyph glyph-name="i.alt04" horiz-adv-x="138" 
d="M156 217q0 17 12 11q11 -6 9 -15q-5 -20 -56 -45t-88 -29q-38 -8 -38 34q0 21 22.5 61.5t32.5 40.5q8 0 13 -4.5t-2 -16.5l-9.5 -13.5l-12 -17t-11.5 -19.5t-7.5 -18t-2 -14.5t7.5 -7.5q16 -4 73 17t57 36zM90 310q-13 4 -5 26q0 7 8.5 11.5t17.5 0.5q18 -15 6 -29
q-13 -13 -27 -9z" />
    <glyph glyph-name="j.alt04" horiz-adv-x="65" 
d="M83 351q9 -4 11 -13t-5 -13q-10 -15 -26 -12q-15 4 -6 29q0 5 9 9t17 0zM-28 73q37 -4 61.5 -28t19.5 -45q-3 -20 -17 -16q-11 2 -8 11q0 2 1 3q7 14 -10.5 30.5t-52.5 20.5q-34 -75 -69 -128q-37 -52 -79 -86t-78 -38q-34 0 -34 41q0 16 8 42t22.5 52.5t52 64.5t87.5 62
q40 17 70 17q77 171 79 173q8 12 23 1q6 -3 3 -6q-17 -25 -44 -91q-28 -62 -35 -80zM-58 49q-29 6 -81 -23q-48 -27 -86.5 -79t-43.5 -81q-7 -32 0 -41t41 6q94 50 170 218z" />
    <glyph glyph-name="k.alt04" horiz-adv-x="226" 
d="M201 315q-19 0 -60.5 -28t-60.5 -49q-27 -31 -36 -44t-7 -23q0 -18 71 10q6 2 13 5q70 28 99 47q12 11 17 3q5 -6 -8 -18q-23 -21 -85 -49t-99 -27q-41 1 -29 42q-52 -99 -67 -117q-14 -18 -24 -11q-6 4 0 11q31 45 83 148q119 238 128 277q5 20 20 14q16 -9 12 -34
q-4 -19 -35.5 -79t-60.5 -110l-30 -50q-1 -3 -3 -6q9 12 10 13q22 28 62 56.5t63 33.5q18 2 28 -11q4 -4 -1 -4z" />
    <glyph glyph-name="l.alt04" horiz-adv-x="197" 
d="M161 358q-78 -104 -116 -129q7 -46 29 -69q25 -28 60 -28q21 0 28 14q5 10 11 6q7 -5 -2 -21q-11 -19 -39 -19q-34 0 -64 27q-47 43 -47 119q0 61 28 127q21 54 61 106.5t61 66.5q17 15 37 15q25 0 28 -33q0 -76 -75 -182zM68 371q-28 -61 -26 -119q31 24 96 111
q59 79 76 156q6 28 -5.5 30t-27.5 -12q-57 -43 -113 -166z" />
    <glyph glyph-name="m.alt04" horiz-adv-x="381" 
d="M68 273q-6 -6 -17.5 -26.5t-19.5 -37.5l-8 -17q1 1 18 19l33 34.5t33.5 32.5t25.5 19q9 3 18 -1t7 -15q-5 -23 -10 -80q56 54 122 90q11 6 19 -2.5t3 -18.5q-8 -16 -8 -38q0 -42 32 -45q31 -3 66 22.5t37 41.5q2 11 9.5 7.5t4.5 -17.5q-4 -20 -45 -47.5t-68 -26.5
q-28 1 -42.5 19t-14 38.5t2.5 36.5q-18 -8 -46.5 -29t-43 -34.5t-19.5 -18.5q-26 -16 -29 5q-2 14 -1 32.5t3 35t3 16.5q-4 0 -58 -49q-11 -10 -24 -26l-21 -25.5t-13 -10.5q-9 -5 -17.5 0t-6.5 15q9 42 50 109q8 14 23 5q9 -6 2 -13z" />
    <glyph glyph-name="n.alt04" horiz-adv-x="270" 
d="M66 269l-56 -91q100 100 143 127q10 6 18.5 5.5t12.5 -6t1 -12.5q-7 -16 -7 -45q0 -44 21 -58q20 -12 59 12t41 39q2 18 10 19q10 0 9 -17q-2 -29 -43 -56t-73 -20q-48 13 -48 82l1 30q-94 -69 -140 -130q-6 -6 -16 -6.5t-16.5 5.5t-2.5 14q6 18 31 62.5t34 55.5
q6 7 19 1q8 -4 2 -11z" />
    <glyph glyph-name="o.alt04" horiz-adv-x="237" 
d="M78 270q-11 -3 -31 -34q-28 -44 -24 -71q3 -14 10 -18t28 3q30 13 67 60q-35 2 -35 34q0 20 19 42.5t43 29.5q18 4 27.5 -4.5t9.5 -24.5q-2 -26 -19 -53q26 6 38 9q30 9 44 19q10 6 11 -4q0 -6 -5 -11q-22 -20 -93 -34q-6 -2 -10 -2q-39 -51 -87 -80q-24 -11 -36 -11
q-25 0 -33 34q-7 31 11 74.5t43 57.5q21 8 28 -8q3 -8 -2 -9q-2 0 -4 1zM171 283q1 9 -4.5 12t-12.5 -2q-40 -26 -38 -51q1 -14 28 -12q23 32 27 53z" />
    <glyph glyph-name="p.alt04" horiz-adv-x="202" 
d="M103 323q-9 -14 -39 -57q33 21 72 26q33 4 55 -9.5t22 -36.5t-19 -43q-30 -34 -77.5 -50t-79.5 -16q-14 2 -16 11t10 18q36 18 41 11q1 -3 0 -7t-2 -5q-2 -2 -1.5 -2.5t3.5 0.5q1 0 10 2t17.5 4.5t20.5 7t25 13t25 20.5q16 15 16 32q0 12 -8 20t-21 8q-62 0 -125 -55
q-25 -46 -44 -89q-46 -106 -74 -180q0 -6 7 -1t8 1q2 -8 -10 -41.5t-19 -40.5q-11 -14 -24 6q-6 15 41 142q19 50 77.5 173t79.5 152q7 8 16.5 8.5t13 -6t-0.5 -16.5z" />
    <glyph glyph-name="q.alt04" horiz-adv-x="207" 
d="M55 234q-40 -35 -46 -61q-4 -25 38 -9q12 4 25.5 14.5t21 18.5l25.5 28q6 6 24.5 29.5t25.5 28.5q4 6 12 7t14 -2.5t5 -7.5q-2 -18 -26 -40q-37 -40 -78 -102q-46 -70 -73.5 -142t-27.5 -104q0 -26 11 -35t36 -4q27 5 88 60.5t66 94.5q1 11 -1.5 17.5t-5.5 8t-9 2.5t-7 1
q-7 2 -8.5 7t5.5 7q6 2 17 4t21 -9.5t8 -35.5q-3 -42 -57 -97t-95 -74q-18 -9 -38 -9q-34 0 -46 24q-8 13 -8 38q0 42 23 98q8 23 29.5 65t39.5 73l18 30q-27 -14 -53 -23q-20 -6 -30 5t-10 33q3 26 30.5 65t82.5 65q11 6 22 1.5t7 -18.5q-1 -9 -20 -22t-37 -22z" />
    <glyph glyph-name="r.alt04" horiz-adv-x="237" 
d="M118 270q34 20 71 25.5t43 -5.5q9 -12 -2 -23q-8 -7 -15 0q-7 3 -21.5 4t-43 -10.5t-58.5 -32.5q-20 -14 -35 -27t-24 -23t-14 -16.5t-9 -13.5l-4 -8q-2 -3 -9.5 -5.5t-13.5 1t-3 14.5q5 17 39 82q6 10 13.5 26.5t13 27.5t8.5 14q2 2 9 1.5t12 -6t1 -13.5l-41 -75
q31 37 83 63z" />
    <glyph glyph-name="s.alt04" horiz-adv-x="116" 
d="M90 294l-10 -8q-10 -9 -18.5 -19.5t-18.5 -25.5q1 -8 7.5 -18l17 -25t16.5 -25q29 17 42 35q10 14 16 5q8 -12 -8 -29q-8 -8 -41 -28q14 -32 4 -53q-14 -28 -47 -37t-56 -1q-11 9 -9.5 20.5t9.5 22.5q23 28 70 54q-2 3 -5 8.5t-4 8.5q-3 6 -12 18t-13.5 20t-8 23t3.5 28
q16 40 47 51q13 5 19 -6.5t-1 -18.5zM5 85q7 -11 32 -4.5t37 24.5q12 17 0 40q-36 -21 -56 -36t-13 -24z" />
    <glyph glyph-name="t.alt04" horiz-adv-x="160" 
d="M26 413q8 -20 56 -25q42 75 66 102q31 31 23 -6q-2 -7 -48 -101q14 -2 29 -2q33 0 54 11q14 7 19 1t-7 -16q-18 -16 -74 -16q-22 0 -32 2l-67 -124q-14 -28 -14 -53q0 -46 38 -65q16 -8 30 -8q21 0 32 17q5 10 9 1q5 -12 -6 -21q-13 -15 -36 -15q-33 0 -63 30
q-24 25 -24 67q0 45 31 112q21 47 29 62q-19 3 -41.5 14.5t-26.5 27.5q-2 8 2.5 12t11 2t9.5 -9z" />
    <glyph glyph-name="u.alt04" horiz-adv-x="221" 
d="M241 203q4 10 9.5 12t8.5 -4t0 -15q-6 -20 -31 -34.5t-48 -19.5q-15 -3 -26.5 2.5t-13.5 16.5q-2 8 1 23.5t7 26.5l4 11q-45 -50 -97 -74q-14 -8 -28.5 -2t-20.5 25q-5 22 12 62t31 56q14 14 28 3q9 -7 -1 -16q-30 -26 -46 -73q-13 -38 7 -36q2 0 4 1q32 9 78 52t46 59
q0 9 13 8q16 -1 15 -15q0 -2 -1 -4q-1 -5 -6 -18l-10.5 -27t-10 -27.5t-4 -22.5t7.5 -9q19 0 42.5 11.5t29.5 27.5z" />
    <glyph glyph-name="v.alt04" horiz-adv-x="212" 
d="M65 258q-3 -5 -8.5 -6t-9 -6.5t-6.5 -21.5q-7 -48 4 -59q3 -3 6 -1q13 8 70.5 69t63.5 73q9 19 19 7q8 -12 2 -20q-17 -23 -72.5 -81t-76.5 -71q-24 -15 -37 23q-4 15 -4 38q0 48 21 80q14 19 25 2q7 -12 3 -26z" />
    <glyph glyph-name="w.alt04" horiz-adv-x="322" 
d="M89 277l-7 -5q-6 -5 -11 -10l-13 -13t-14.5 -16.5t-13 -18.5t-11 -21.5t-6.5 -23.5q-2 -9 3 -9q2 0 24 13q52 36 81 70q26 30 40 55q8 6 25 1q9 -3 6 -9q-1 -3 -26.5 -36t-28.5 -45q-5 -20 5 -30.5t31 -8.5q26 5 59 30.5t45 53.5q18 41 9 61q-2 4 -6 6.5t-7 3.5t-5 3.5
t1 6.5q1 9 9.5 10.5t17.5 -3.5t13 -15q6 -15 6 -30q0 -39 -32 -78q-24 -30 -59 -52t-57 -20q-28 0 -40.5 14.5t-10.5 28.5l2 15q-47 -47 -73 -58q-14 -8 -28 -8q-32 0 -24 37q4 27 27 66t37 50q7 5 15 3t14 -8t3 -10z" />
    <glyph glyph-name="x.alt04" horiz-adv-x="196" 
d="M194 326q5 -1 7 -4t0.5 -6.5t-7.5 -4.5q-8 -1 -38 -24.5t-53 -49.5q-6 -5 -16 -17.5t-13 -15.5q25 -32 72 -54q26 -11 26 -2q0 12 6 5q9 -11 0 -20q-2 -2 -5 -3q-18 -7 -51 10t-58 44q-52 -67 -60 -81q-3 -4 -8.5 -4.5t-9 4.5t-1.5 12q0 1 63 89q-34 42 -30 70
q4 25 25 19q14 -5 12 -13q-21 -21 8 -59q19 26 25 32q25 32 60 53.5t46 19.5z" />
    <glyph glyph-name="y.alt04" horiz-adv-x="271" 
d="M95 285q-1 -7 -13.5 -17.5t-15.5 -14.5l-9 -14l-13.5 -21t-13 -23.5t-6.5 -22t5 -15.5q15 -15 90 32q76 51 81 78q2 12 12 1q12 -14 8 -35q-1 -2 -5 -24.5t-10 -50t-15 -56.5q41 20 62 46q12 15 15 2.5t-8 -24.5q-8 -9 -21.5 -19t-31.5 -21t-24 -15q-28 -82 -69 -143
q-39 -57 -80 -86t-74 -29q-16 0 -29 8q-13 9 -13 27q0 32 37 79.5t110 97.5q87 57 99 63q9 29 16 61t9.5 48.5t2.5 19.5q-41 -41 -84 -61q-43 -24 -70 -24q-21 0 -31 14q-16 17 5 68t44 77q9 11 19.5 12t16.5 -5t4 -13zM34 -22q-67 -54 -90 -106q-16 -37 10 -38
q50 -3 102 53.5t84 128.5q2 4 14 41q-8 -6 -54.5 -34.5t-65.5 -44.5z" />
    <glyph glyph-name="z.alt04" horiz-adv-x="164" 
d="M82 294q-11 -11 -29 -44.5t-31 -61.5l-13 -29q45 35 91 35q48 0 48 -39q0 -18 -12 -54q-10 -24 -15 -35q26 6 42 6q28 0 36 -12q11 -15 -1 -24q-10 -7 -18 6q-2 4 -5.5 6t-8.5 3t-9 1t-11.5 -1.5t-11 -2t-11.5 -2.5t-11 -3q-46 -93 -108 -155.5t-102 -75.5q-29 -9 -37 4
t-4 33q3 14 15.5 38.5t37 58t69 64.5t99.5 47q1 0 6 1.5t8 2.5q17 38 23.5 68t-1.5 36q-19 13 -57 -3.5t-56 -34.5q-8 -9 -19.5 -6.5t-6.5 16.5q42 119 68 160q13 20 32 13q14 -5 3 -16zM-63 -61q-21 -22 -37 -47.5t-19.5 -40.5t3.5 -20q16 -5 66.5 38.5t98.5 107.5
q13 18 35 58q-77 -21 -147 -96z" />
    <glyph glyph-name="b_b.alt04" horiz-adv-x="412" 
d="M296 255q-15 -27 -17 -30q13 16 40 36q52 36 86 36q21 0 31 -17q6 -16 -2.5 -45t-31.5 -56q-31 -37 -61.5 -51.5t-39.5 2.5q-4 7 4 23t17 18q10 0 5 -13l-5 -13q17 -3 61 43q21 23 30 46.5t4 34.5q-6 9 -34 1t-50 -25q-10 -7 -19.5 -15t-16 -14.5t-14 -15l-11.5 -13
t-10.5 -13.5t-8 -11.5t-7.5 -11.5l-6 -9q-10 -23 -23 -16q-7 3 -6 10l34 71q-67 -43 -109 -50q-10 -4 -18 -9.5t-16.5 -12t-14.5 -10.5q-14 -8 -26 5t-9 24q1 6 11.5 9t23 3.5t14.5 1.5q23 8 52 37.5t33 57.5q1 12 -5 17.5t-19 5.5q-28 0 -61 -25q-48 -38 -102 -137
q-6 -14 -13 0q-4 8 -4 18q0 5 3 14.5t9.5 25l13.5 31.5l19.5 43.5l22.5 51.5q108 248 109 249q3 8 9 13.5t10.5 0t3.5 -25.5q-4 -38 -41 -117.5t-70 -136.5q-24 -44 -31 -65q1 2 8 10.5t22 23.5t31 26q26 19 61 19q26 0 39.5 -13.5t4.5 -40.5q-6 -17 -17.5 -33.5
t-20.5 -23.5l-9 -8l51 23q36 18 52 33q12 28 38 94.5l46 117.5t25 59q7 15 15 13.5t8 -16.5q-2 -31 -38 -123t-60 -132z" />
    <glyph glyph-name="d_d.alt04" horiz-adv-x="553" 
d="M567 600q27 12 27 -33q0 -15 -10 -87l-4 -20l-6.5 -24.5l-7 -24.5t-9.5 -28.5l-11.5 -27t-15 -29.5t-18.5 -27t-23 -28q-18 -18 -58 -52l-5 -17.5t-4 -14.5q-10 -44 -14.5 -99.5t0.5 -60.5q2 -3 4 -4t5 0.5t5.5 3.5l6 5t5.5 4q13 8 12 1q-1 -6 -9 -21
q-14 -23 -30.5 -11.5t-19.5 34.5q0 94 15 157q-57 -44 -93 -58q-41 -16 -44 30q-1 11 2 26q-44 -40 -80 -50q-43 -13 -46 49q-1 11 2 30q-18 -20 -26 -27l-30 -28.5t-24.5 -19t-31.5 -17.5q-49 -20 -45 31q5 48 58 103q44 46 80 46q12 -1 16 -7t1 -11.5t-8 -7.5
q-38 -13 -80 -48q-19 -16 -31.5 -36.5t-14 -33.5t3.5 -18q4 -2 17.5 4.5t34 21.5t38.5 34l48 50q11 58 33 117q12 40 40.5 97.5t49.5 77.5q14 13 27 13q11 0 18 -9.5t7 -21.5q0 -24 -19 -74.5t-51 -93.5q-36 -52 -85 -112q-10 -52 -3 -81q6 -23 61 15q35 24 51 46q1 3 4 4
q22 42 65 75q51 31 58 11q5 -23 -20 -32q-26 -5 -58 -32q-36 -31 -40 -81q-1 -17 5.5 -18.5t27.5 8.5q8 3 88 62q10 39 41 135q30 93 65 157.5t53 77.5zM547 416q7 27 12 50t7.5 38t4 26.5t1.5 18t-0.5 10.5t-1.5 6v2q-2 3 -12.5 -11.5t-29.5 -51t-36 -82.5q-2 -6 -17 -44.5
t-25 -70t-11 -52.5q33 25 64.5 71.5t43.5 89.5zM192 343q-3 -8 -14 -51q42 51 74 108q20 36 34 70t16 50t-2 19q-19 0 -54 -66t-54 -130z" />
    <glyph glyph-name="e_e.alt04" horiz-adv-x="335" 
d="M59 158q25 2 71.5 29t69.5 49q27 62 73 81q19 7 33.5 -2t-0.5 -41q-10 -22 -40.5 -39t-48.5 -15q-9 -18 -9 -32q0 -21 22 -28q24 -8 67.5 11t61.5 35q9 8 13 18l5 10q9 7 11 -4q3 -9 -7 -26q-12 -21 -61.5 -46.5t-78.5 -22.5q-28 2 -42.5 20t-9.5 48q-65 -53 -119 -65
q-26 -8 -47 3.5t-18 39.5q9 65 62 112q36 32 68 21q20 -8 6 -40t-42 -49q-16 -9 -34.5 -12t-25.5 3q-1 -3 -3.5 -7t-5 -10.5t-3.5 -17.5q0 -5 1 -8.5t2 -6t3.5 -4t4 -2.5t5 -1.5t5 -0.5h6h5.5zM73 268q-8 -7 -20 -26q11 -16 37 3q16 11 27 26t6 23q-3 6 -19.5 -3.5
t-30.5 -22.5zM236 254q-1 -2 -4 -6.5t-4 -6.5q13 0 36 16q11 8 18.5 17t8.5 14t0 8q-3 4 -12 0t-21 -15.5t-22 -26.5z" />
    <glyph glyph-name="f_f.alt04" horiz-adv-x="377" 
d="M-196 82q11 -8 50 -8q30 0 70 6q5 1 14 2.5t13 1.5q17 50 59 143q48 109 107.5 204.5t95.5 126.5q14 13 28 14t18 -11q9 -20 -49 -131q-65 -123 -183 -219q-37 -81 -52 -122q51 10 141 41q0 2 1 3q85 228 152 331q23 35 49.5 56.5t44.5 22.5t27 -14q7 -17 -1.5 -44.5
t-21 -49.5l-40.5 -70q-28 -49 -98 -130t-86 -90q-2 -4 -2 -6l4 2q128 46 202 91q28 17 26 8q0 -3 -4 -8q-35 -48 -237 -116q-45 -120 -45 -174q0 -32 17 -42q18 -9 7 -14q-12 -5 -30 9q-16 15 -16 49q0 52 42 163q-79 -27 -140 -40q-21 -61 -28 -111q-2 -23 7.5 -29t17.5 1
q6 7 11 4t1 -11q-3 -12 -16.5 -15.5t-29.5 9.5q-10 10 -10 36q0 40 24 112q-19 -4 -56 -8q-22 -3 -41 -3q-44 0 -55 15q-6 8 -4.5 13.5t6.5 5t10 -3.5zM285 448q-56 -83 -126 -264q69 78 134 168q38 52 61.5 102.5t16.5 59.5q-8 4 -19.5 1t-30 -21t-36.5 -46zM79 317
l-32 -64q70 60 119 142q30 52 52.5 99.5t12.5 44.5q-38 -4 -152 -222z" />
    <glyph glyph-name="g_g.alt04" horiz-adv-x="486" 
d="M382 276q-15 -4 -55 -32q-47 -34 -57 -64q-5 -13 4 -16q6 -2 16 0.5t23 10t25 15.5t26.5 19.5l23.5 19l20 17t12 10.5q20 17 32 29l2 1h5.5t5.5 -0.5t5 -2t3.5 -3.5t1 -6t-2.5 -9q-29 -69 -37 -96q-12 -36 -19 -54q16 0 30.5 -6.5t17.5 -16.5q5 -15 -9 -21q-10 -3 -10 7
v2q1 10 -11 14.5t-26 -0.5q-53 -135 -107 -183q-52 -52 -78 -21q-8 10 -8 34q0 35 18.5 75t57.5 70q43 32 102 42q12 35 20 61l19 60q-38 -32 -70 -54q-51 -35 -80 -38q-19 -2 -28.5 11t-2.5 38l-39 -24t-43 -27q-15 -49 -24 -69q-18 -45 -46 -83t-54.5 -58.5t-45.5 -31.5
t-28 -13q-16 -6 -29 3.5t-8 36.5q10 53 85 128q68 61 132 101q5 20 8.5 41t4.5 32l1 11q-8 -9 -22 -22.5t-51.5 -39t-68.5 -32.5q-27 -6 -37.5 7t-2.5 36t48.5 64.5t81.5 54.5q25 9 34 -14q7 -17 -4 -22q-2 -1 -4 -1q-37 0 -80 -28.5t-56 -56.5q-11 -24 7 -22q14 1 56 22
q13 7 31.5 22t33 28.5l29.5 28.5l17 17q6 8 16 -2q9 -10 1 -21q-3 -5 -4.5 -16l-4 -30.5t-8.5 -40.5q79 47 94 59q18 24 42 46t40 26q18 5 31 -11q7 -10 -2 -12zM113 46q24 51 30 76q-41 -25 -99 -76q-19 -16 -36.5 -35.5t-28.5 -37t-18.5 -33.5t-7.5 -25.5t4 -13.5
q17 -7 73.5 42.5t82.5 102.5zM336 72q-33 -17 -58.5 -44.5t-34.5 -52.5q-24 -73 3 -73q12 -3 38.5 20.5t54.5 69.5q23 39 46 98q-25 -6 -49 -18z" />
    <glyph glyph-name="l_l.alt04" horiz-adv-x="373" 
d="M337 358q-78 -104 -116 -129q7 -46 29 -69q25 -28 60 -28q21 0 28 14q5 10 11 6q7 -5 -2 -21q-11 -19 -39 -19q-34 0 -64 27q-32 27 -43 75q-22 -23 -64.5 -47.5t-75.5 -27.5q-45 -5 -45 56q0 23 5 46q14 79 54.5 160t88.5 135q29 32 48 32q28 0 25 -55q-3 -39 -27.5 -82
t-75.5 -106q-54 -68 -93 -102q-4 -24 -4 -31q0 -34 35 -28q33 6 71 30.5t52 40.5l2 2q-5 65 28 148q21 54 61.5 106.5t60.5 66.5q17 15 37 15q25 0 28 -33q0 -76 -75 -182zM244 371q-28 -61 -26 -119q31 24 96 111q59 79 76 156q6 28 -5.5 30t-27.5 -12q-57 -43 -113 -166z
M216 513q5 30 -9 28q-12 -2 -31 -25q-39 -50 -77 -124.5t-53 -135.5q49 52 83 98q47 64 64.5 95.5t22.5 63.5z" />
    <glyph glyph-name="m_m.alt04" horiz-adv-x="768" 
d="M455 273q-6 -6 -17.5 -26.5t-19.5 -37.5l-8 -17q1 1 18 19l33 34.5t33.5 32.5t25.5 19q9 3 18 -1t7 -15q-5 -23 -10 -80q56 54 122 90q11 6 19 -2.5t3 -18.5q-8 -16 -8 -38q0 -42 32 -45q31 -3 66 22.5t37 41.5q2 11 9.5 7.5t4.5 -17.5q-4 -20 -45 -47.5t-68 -26.5
q-28 1 -42.5 19t-14 38.5t2.5 36.5q-18 -8 -46.5 -29t-43 -34.5t-19.5 -18.5q-26 -16 -29 5q-2 14 -1 32.5t3 35t3 16.5q-4 0 -58 -49q-11 -10 -24 -26l-21 -25.5t-13 -10.5q-9 -5 -16.5 0t-5.5 15q2 9 6 21q-25 -23 -54 -30q-26 -6 -43.5 5.5t-24.5 31.5q-3 10 -4 24t0 24
l1 9q-13 -7 -39 -26.5t-44 -34.5t-20 -17q-25 -15 -28 5q-2 14 -1 33t2.5 35.5t2.5 16.5q-2 0 -54 -52q-9 -9 -25.5 -29l-29 -34t-17.5 -15q-9 -5 -15.5 1t-4.5 16q12 53 44 106q8 14 21 6q11 -6 3 -14q-6 -6 -16 -25t-16 -35l-7 -16q1 1 28 31.5t53 57t36 30.5
q9 3 17.5 -0.5t6.5 -14.5q-2 -8 -3 -23t-2 -33t-2 -25q52 50 118 86q11 6 19 -2t3 -18q-10 -22 -10 -42q0 -15 6 -28q13 -27 46 -14q22 8 36 19.5t23.5 22.5t13.5 14q1 0 1 1q2 3 10 18.5t13 22.5q8 13 20 6q11 -6 3 -14z" />
    <glyph glyph-name="n_n.alt04" horiz-adv-x="550" 
d="M346 269l-53 -89q97 98 140 125q10 6 18.5 5.5t12.5 -6t1 -12.5q-7 -16 -7 -45q0 -44 21 -58q20 -12 68 16t50 43q2 18 10 19q10 0 9 -17q-1 -28 -51.5 -60t-82.5 -25q-48 13 -48 82l2 29q-94 -68 -140 -129q-6 -6 -16 -6.5t-17 6t-3 14.5q2 8 8 19q-38 -25 -66 -17
q-26 6 -37 35t-9 55l2 26q-89 -65 -141 -134q-6 -6 -16 -6t-17.5 7t-3.5 15q6 18 31 62.5t34 55.5q6 7 19 1q8 -4 2 -11l-53 -89q97 98 140 125q10 6 18.5 5.5t12.5 -6t1 -12.5q-7 -16 -7 -45q0 -44 21 -58q32 -20 88 29q26 47 38 61q6 7 19 1q8 -4 2 -11z" />
    <glyph glyph-name="o_o.alt04" horiz-adv-x="471" 
d="M312 270q-11 -3 -31 -34q-28 -44 -24 -71q3 -14 10 -18t28 3q30 13 67 60q-35 2 -35 34q0 20 19 42.5t43 29.5q18 4 27.5 -4.5t9.5 -24.5q-2 -26 -19 -53q26 6 38 9q30 9 44 19q10 6 11 -4q0 -6 -5 -11q-22 -20 -93 -34q-6 -2 -10 -2q-39 -51 -87 -80q-24 -11 -36 -11
q-25 0 -33 34q-6 25 5 58q-44 -29 -90 -38q-21 -4 -29 -2q-23 -21 -46 -35q-20 -10 -35 -10q-26 0 -34 38q-5 29 10.5 69t38.5 53q26 10 31 -6q2 -6 -2 -9q-19 -5 -37 -29q-10 -15 -16.5 -38t-4.5 -37q5 -30 37 -12q14 7 37 29q-8 12 -7 32q2 31 20.5 61.5t42.5 37.5
q19 4 29.5 -4.5t8.5 -24.5q-3 -39 -54 -95q9 0 26 5q42 11 86 44q17 33 37 45q21 8 28 -8q3 -8 -2 -9q-2 0 -4 1zM135 219q32 38 36 65q1 9 -3.5 11.5t-11.5 -2.5q-12 -8 -27.5 -34.5t-14.5 -44.5q0 -8 4 -14q5 5 17 19zM405 283q1 9 -4.5 12t-12.5 -2q-40 -26 -38 -51
q1 -14 28 -12q23 32 27 53z" />
    <glyph glyph-name="p_p.alt04" horiz-adv-x="415" 
d="M237 253l1 1q3 9 11 25q1 5 7.5 7t11.5 -1.5t4 -11.5q-7 -24 -12 -35q61 61 105 61q15 0 23 -13t0 -39q-8 -20 -20 -38t-20 -27l-7 -8q62 23 100 58q9 8 13.5 6t-3.5 -15q-17 -26 -95 -63q-52 -26 -76 -26q-16 0 -17.5 11t6.5 18q7 7 26 10t20 4q6 3 19.5 18.5t21.5 31.5
q20 34 10 46q-13 8 -59 -22q-39 -26 -65 -65l-63 -128q-23 -54 -38 -98q-5 -15 -13 -9q-9 6 -7 29q3 10 39.5 90t44.5 102l10.5 24.5t8.5 21.5q-81 -66 -161 -78q-23 -4 -35 14q-6 12 4 16q3 2 5 -1q8 -8 38 3q25 9 45.5 40t29.5 58q4 13 -14 8q-22 -7 -50 -29
q-48 -37 -72 -77l-47 -93q-14 -30 -25 -65l-12 -34q-11 -17 -16 -1q-2 6 -2 16q0 20 35 92q32 58 49 108l20.5 46t14.5 35q5 11 15.5 9.5t10.5 -12.5q-6 -22 -11 -32q2 1 13 11.5t19 17t22 15.5t27 14q20 11 36 2t10 -40q-4 -19 -21 -47t-28 -35q25 8 61.5 33.5t51.5 40.5z
" />
    <glyph glyph-name="s_s.alt04" horiz-adv-x="285" 
d="M259 294q-1 -1 -10 -9t-18 -18t-18 -24q2 -3 0 -7q3 -9 19 -29.5t21 -29.5q31 16 42 31q10 14 16 5q8 -12 -8 -29q-9 -9 -42 -23q8 -19 -1 -38q-14 -28 -47 -37t-56 -1q-13 7 -13 21t13 25q6 6 16 11.5t17.5 8.5l23 9.5t21.5 8.5q-4 6 -16.5 22t-18.5 26q-38 -41 -98 -70
q-7 -22 -43 -32q-28 -6 -46 9q-9 8 -1 14q6 3 30 10t34 15q3 11 -28.5 42.5t-28.5 48.5q2 21 22.5 42t29.5 20q8 0 13.5 -5.5t5.5 -10.5t-2 -7q-10 -2 -28 -19.5t-17 -24.5q2 -14 28.5 -42t27.5 -37q44 18 93 65q-5 16 2 33q16 40 47 51q13 5 19 -6.5t-1 -18.5zM168 105
q7 -11 36 -2t38 28q4 10 1 22q-74 -31 -77 -43q0 -2 2 -5z" />
    <glyph glyph-name="t_t.alt04" horiz-adv-x="242" 
d="M-17 402q29 -9 99 -9q31 73 39 89q6 11 16 7q13 -7 5 -33q-5 -16 -27 -64q27 0 123 -2q26 49 39 83q10 14 23 4q9 -8 4 -16q-22 -39 -39 -73q116 -4 136 -16q15 -12 5 -20q-5 -4 -10 0q-10 8 -83 16l-57 3q-13 -27 -50 -138q-13 -37 -23.5 -95t-10.5 -96q0 -33 9 -40
q8 -7 -3 -18q-12 -14 -21 8q-5 13 -6 39q-2 52 14 121.5t29 105t22 56.5q0 -1 -7 -12l-13.5 -21l-17 -26t-21.5 -30.5t-24 -30t-27 -29t-28 -23.5q-16 -12 -33 -12q-21 0 -30 17q-15 26 13 108q3 12 41 105q1 6 5 13h-11q-61 2 -80 9q-12 5 -10 16q1 9 10 4zM221 358
q2 4 8 14q-42 1 -123 1q-1 -2 -3 -6.5t-3 -6.5l-52 -115q-1 -2 -2 -4.5t-4 -11l-5.5 -16t-5 -17.5t-3 -17.5t1.5 -14t7 -8.5q18 -8 34.5 5.5t49.5 53.5l15 18q39 47 85 125z" />
    <glyph glyph-name="z_z.alt04" horiz-adv-x="317" 
d="M240 294q-11 -11 -29 -44.5t-31 -61.5l-13 -29q45 35 91 35q48 0 48 -39q0 -18 -12 -54q-10 -24 -15 -35q26 6 42 6q28 0 36 -12q11 -15 -1 -24q-10 -7 -18 6q-2 4 -5.5 6t-8.5 3t-9 1t-11.5 -1.5t-11 -2t-11.5 -2.5t-11 -3q-46 -93 -108 -155.5t-102 -75.5
q-30 -10 -38 3t1 38q12 44 78.5 113.5t152.5 94.5q17 38 23.5 68t-1.5 36q-19 13 -57 -3.5t-56 -34.5q-8 -9 -19.5 -6.5t-6.5 16.5q3 8 11 32q-9 -10 -45 -56q-20 -116 -46 -163q-29 -62 -64.5 -99t-57.5 -37q-27 3 -27 33q0 17 9 40q26 75 108 171l23.5 29.5t33.5 39.5
l4 55q-81 -41 -93 -53q-6 -6 -17 1t-9 18q36 65 55 95q35 66 52 79q9 8 18 2t2 -17q-4 -9 -15.5 -26l-29 -41.5l-27.5 -39.5q-5 -10 -11.5 -20l-10.5 -16l-4 -6q21 15 93 51q7 2 16.5 -3t9.5 -15q0 -3 -1 -7.5t-2.5 -13t-2.5 -17.5q32 40 60 68q19 48 36 76q13 20 32 13
q14 -5 3 -16zM103 -62q-22 -22 -39.5 -46.5t-23 -40.5t1.5 -20q16 -5 66.5 38.5t98.5 107.5q13 18 35 58q-60 -17 -139 -97zM60 16q14 52 16 68q-12 -16 -35.5 -43t-35.5 -45l-27 -39.5t-31.5 -49.5t-14.5 -38q-6 -24 0 -28.5t17 2.5q64 38 111 173z" />
    <glyph glyph-name="balt02_04" horiz-adv-x="181" 
d="M193 495q-7 -2 -25 -21.5t-30 -39.5q-13 -19 -35.5 -60.5l-38.5 -73.5l-16 -31q35 47 76 52q22 5 35 -8t11 -41q-8 -66 -54.5 -108.5t-84.5 -48.5q-20 -5 -19 12q2 18 13 26q9 6 14 -9q34 0 76 53q21 27 30.5 61t-4.5 40q-20 6 -49.5 -15.5t-49.5 -51.5
q-13 -21 -32.5 -58.5t-22.5 -42.5q-4 -12 -15 -2q-16 13 -2 34q21 39 113 223q60 113 90 122q22 9 24 -4q1 -8 -4 -8z" />
    </font>
</defs>
</svg>
